<svg width="399" height="109" viewBox="0 0 399 109" fill="none" xmlns="http://www.w3.org/2000/svg">
<path d="M54 47H161V64H54V47Z" fill="#EEBBC3" fill-opacity="0.25"/>
<path d="M14.43 26V7.8H17.238V26H14.43ZM2.548 26V7.8H5.356V26H2.548ZM3.77 18.278V15.574H15.678V18.278H3.77ZM28.0213 26.26C26.6173 26.26 25.3693 25.9653 24.2773 25.376C23.2026 24.7693 22.3533 23.946 21.7293 22.906C21.1226 21.866 20.8193 20.67 20.8193 19.318C20.8193 18.2433 20.9926 17.264 21.3393 16.38C21.686 15.496 22.1626 14.7333 22.7693 14.092C23.3933 13.4333 24.13 12.9307 24.9793 12.584C25.846 12.22 26.782 12.038 27.7873 12.038C28.6713 12.038 29.4946 12.2113 30.2573 12.558C31.02 12.8873 31.6786 13.3467 32.2333 13.936C32.8053 14.5253 33.2386 15.2273 33.5333 16.042C33.8453 16.8393 33.9926 17.7147 33.9753 18.668L33.9493 19.812H22.7953L22.1973 17.68H31.6353L31.2453 18.122V17.498C31.1933 16.926 31.0026 16.4147 30.6733 15.964C30.344 15.5133 29.928 15.158 29.4253 14.898C28.9226 14.638 28.3766 14.508 27.7873 14.508C26.8513 14.508 26.0626 14.69 25.4213 15.054C24.78 15.4007 24.2946 15.9207 23.9653 16.614C23.636 17.29 23.4713 18.1307 23.4713 19.136C23.4713 20.0893 23.6706 20.9213 24.0693 21.632C24.468 22.3253 25.0313 22.8627 25.7593 23.244C26.4873 23.6253 27.328 23.816 28.2813 23.816C28.9573 23.816 29.5813 23.7033 30.1533 23.478C30.7426 23.2527 31.3753 22.8453 32.0513 22.256L33.4033 24.154C32.9873 24.57 32.476 24.934 31.8693 25.246C31.28 25.558 30.6473 25.8093 29.9713 26C29.3126 26.1733 28.6626 26.26 28.0213 26.26ZM36.9377 26V6.76H39.6157V26H36.9377ZM43.4631 26V6.76H46.1411V26H43.4631ZM55.8185 26.26C54.4839 26.26 53.2879 25.9567 52.2305 25.35C51.1905 24.726 50.3672 23.8853 49.7605 22.828C49.1539 21.7533 48.8505 20.5313 48.8505 19.162C48.8505 17.7927 49.1539 16.5793 49.7605 15.522C50.3672 14.4473 51.1905 13.6067 52.2305 13C53.2879 12.376 54.4839 12.064 55.8185 12.064C57.1359 12.064 58.3145 12.376 59.3545 13C60.4119 13.6067 61.2439 14.4473 61.8505 15.522C62.4572 16.5793 62.7605 17.7927 62.7605 19.162C62.7605 20.5313 62.4572 21.7533 61.8505 22.828C61.2439 23.8853 60.4119 24.726 59.3545 25.35C58.3145 25.9567 57.1359 26.26 55.8185 26.26ZM55.8185 23.816C56.6332 23.816 57.3612 23.6167 58.0025 23.218C58.6439 22.802 59.1465 22.2473 59.5105 21.554C59.8745 20.8433 60.0479 20.046 60.0305 19.162C60.0479 18.2607 59.8745 17.4633 59.5105 16.77C59.1465 16.0593 58.6439 15.5047 58.0025 15.106C57.3612 14.7073 56.6332 14.508 55.8185 14.508C55.0039 14.508 54.2672 14.716 53.6085 15.132C52.9672 15.5307 52.4645 16.0853 52.1005 16.796C51.7365 17.4893 51.5632 18.278 51.5805 19.162C51.5632 20.046 51.7365 20.8433 52.1005 21.554C52.4645 22.2473 52.9672 22.802 53.6085 23.218C54.2672 23.6167 55.0039 23.816 55.8185 23.816Z" fill="black"/>
<path d="M56.76 62V34H68.92C70.6 34 72.1333 34.4 73.52 35.2C74.9067 35.9733 76 37.04 76.8 38.4C77.6267 39.7333 78.04 41.24 78.04 42.92C78.04 44.52 77.6267 46 76.8 47.36C76 48.6933 74.9067 49.76 73.52 50.56C72.16 51.3333 70.6267 51.72 68.92 51.72H61.84V62H56.76ZM73 62L65.88 49.36L71.24 48.36L79.16 62.04L73 62ZM61.84 47.2H68.96C69.7333 47.2 70.4 47.0267 70.96 46.68C71.5467 46.3067 72 45.8 72.32 45.16C72.64 44.52 72.8 43.8133 72.8 43.04C72.8 42.16 72.6 41.4 72.2 40.76C71.8 40.12 71.24 39.6133 70.52 39.24C69.8 38.8667 68.9733 38.68 68.04 38.68H61.84V47.2ZM84.3306 62V40.92H89.2506V62H84.3306ZM86.7306 36.44C85.744 36.44 84.9706 36.2 84.4106 35.72C83.8773 35.2133 83.6106 34.5067 83.6106 33.6C83.6106 32.7467 83.8906 32.0533 84.4506 31.52C85.0106 30.9867 85.7706 30.72 86.7306 30.72C87.744 30.72 88.5173 30.9733 89.0506 31.48C89.6106 31.96 89.8906 32.6667 89.8906 33.6C89.8906 34.4267 89.6106 35.1067 89.0506 35.64C88.4906 36.1733 87.7173 36.44 86.7306 36.44ZM104.529 62.4C102.556 62.4 100.783 61.92 99.2094 60.96C97.636 60 96.396 58.6933 95.4894 57.04C94.5827 55.3867 94.1294 53.52 94.1294 51.44C94.1294 49.36 94.5827 47.4933 95.4894 45.84C96.396 44.1867 97.636 42.88 99.2094 41.92C100.783 40.96 102.556 40.48 104.529 40.48C106.423 40.48 108.143 40.84 109.689 41.56C111.236 42.28 112.436 43.28 113.289 44.56L110.569 47.84C110.169 47.28 109.663 46.7733 109.049 46.32C108.436 45.8667 107.783 45.5067 107.089 45.24C106.396 44.9733 105.703 44.84 105.009 44.84C103.836 44.84 102.783 45.1333 101.849 45.72C100.943 46.28 100.223 47.0667 99.6894 48.08C99.156 49.0667 98.8894 50.1867 98.8894 51.44C98.8894 52.6933 99.156 53.8133 99.6894 54.8C100.249 55.7867 100.996 56.5733 101.929 57.16C102.863 57.7467 103.903 58.04 105.049 58.04C105.743 58.04 106.409 57.9333 107.049 57.72C107.716 57.48 108.343 57.1467 108.929 56.72C109.516 56.2933 110.063 55.76 110.569 55.12L113.289 58.44C112.383 59.6133 111.129 60.5733 109.529 61.32C107.956 62.04 106.289 62.4 104.529 62.4ZM121.652 55.56L120.692 50.96L130.692 40.92H137.252L121.652 55.56ZM117.052 62V32.4H121.972V62H117.052ZM131.292 62L123.532 52.6L127.012 49.64L137.372 62H131.292ZM143.807 71.2L148.287 60.84L148.327 64.12L137.927 40.92H143.607L149.407 54.68C149.593 55.0267 149.78 55.4933 149.967 56.08C150.153 56.64 150.313 57.2 150.447 57.76L149.447 58.08C149.633 57.5733 149.833 57.04 150.047 56.48C150.26 55.8933 150.46 55.2933 150.647 54.68L155.607 40.92H161.327L152.527 62L148.927 71.2H143.807Z" fill="#EEBBC3"/>
<path d="M2.872 62V59.4H5.81V46.4H2.872V43.8H11.556V46.4H8.618V59.4H11.556V62H2.872ZM14.924 49.65L13.936 48.454C14.612 48.142 15.1667 47.7867 15.6 47.388C16.0333 46.9893 16.25 46.6427 16.25 46.348C16.25 46.1227 16.1547 45.9233 15.964 45.75C15.7733 45.5593 15.6 45.4033 15.444 45.282C15.0627 44.97 14.8027 44.71 14.664 44.502C14.5427 44.294 14.482 44.0773 14.482 43.852C14.482 43.436 14.6293 43.1067 14.924 42.864C15.2187 42.604 15.6 42.474 16.068 42.474C16.5533 42.474 16.9867 42.604 17.368 42.864C17.7667 43.1067 18.0787 43.4447 18.304 43.878C18.5293 44.3113 18.642 44.8227 18.642 45.412C18.642 45.8627 18.5467 46.3047 18.356 46.738C18.1653 47.1713 17.8967 47.5787 17.55 47.96C17.2207 48.3413 16.8307 48.6793 16.38 48.974C15.9293 49.2687 15.444 49.494 14.924 49.65ZM20.7204 62V48.35H23.4244V51.262L22.9304 51.574C23.0691 51.1233 23.2857 50.69 23.5804 50.274C23.8924 49.858 24.2651 49.494 24.6984 49.182C25.1491 48.8527 25.6257 48.5927 26.1284 48.402C26.6484 48.2113 27.1771 48.116 27.7144 48.116C28.4944 48.116 29.1791 48.246 29.7684 48.506C30.3577 48.766 30.8431 49.156 31.2244 49.676C31.6057 50.196 31.8831 50.846 32.0564 51.626L31.6404 51.522L31.8224 51.08C32.0131 50.6813 32.2731 50.3087 32.6024 49.962C32.9491 49.598 33.3391 49.2773 33.7724 49C34.2057 48.7227 34.6651 48.506 35.1504 48.35C35.6357 48.194 36.1124 48.116 36.5804 48.116C37.6031 48.116 38.4437 48.324 39.1024 48.74C39.7784 49.156 40.2811 49.7887 40.6104 50.638C40.9571 51.4873 41.1304 52.5447 41.1304 53.81V62H38.4264V53.966C38.4264 53.186 38.3224 52.5533 38.1144 52.068C37.9237 51.5653 37.6291 51.1927 37.2304 50.95C36.8317 50.7073 36.3204 50.586 35.6964 50.586C35.2111 50.586 34.7517 50.6727 34.3184 50.846C33.9024 51.002 33.5384 51.2273 33.2264 51.522C32.9144 51.8167 32.6717 52.1633 32.4984 52.562C32.3251 52.9433 32.2384 53.368 32.2384 53.836V62H29.5344V53.914C29.5344 53.2033 29.4304 52.6053 29.2224 52.12C29.0144 51.6173 28.7111 51.236 28.3124 50.976C27.9137 50.716 27.4284 50.586 26.8564 50.586C26.3711 50.586 25.9204 50.6727 25.5044 50.846C25.0884 51.002 24.7244 51.2273 24.4124 51.522C24.1004 51.7993 23.8577 52.1373 23.6844 52.536C23.5111 52.9173 23.4244 53.3333 23.4244 53.784V62H20.7204Z" fill="black"/>
<path d="M2.274 90V80.9H3.678V90H2.274ZM2.898 86.126V84.774H7.591V86.126H2.898ZM2.898 82.252V80.9H8.176V82.252H2.898ZM9.64205 90V83.175H10.9941V85.32L10.8641 84.8C10.9594 84.4707 11.1197 84.1717 11.3451 83.903C11.5791 83.6343 11.8434 83.422 12.1381 83.266C12.4414 83.11 12.7534 83.032 13.0741 83.032C13.2214 83.032 13.3601 83.045 13.4901 83.071C13.6287 83.097 13.7371 83.1273 13.8151 83.162L13.4641 84.618C13.3601 84.5747 13.2431 84.54 13.1131 84.514C12.9917 84.4793 12.8704 84.462 12.7491 84.462C12.5151 84.462 12.2897 84.5097 12.0731 84.605C11.8651 84.6917 11.6787 84.8173 11.5141 84.982C11.3581 85.138 11.2324 85.3243 11.1371 85.541C11.0417 85.749 10.9941 85.9787 10.9941 86.23V90H9.64205ZM17.6612 90.13C16.9939 90.13 16.3959 89.9783 15.8672 89.675C15.3472 89.363 14.9356 88.9427 14.6322 88.414C14.3289 87.8767 14.1772 87.2657 14.1772 86.581C14.1772 85.8963 14.3289 85.2897 14.6322 84.761C14.9356 84.2237 15.3472 83.8033 15.8672 83.5C16.3959 83.188 16.9939 83.032 17.6612 83.032C18.3199 83.032 18.9092 83.188 19.4292 83.5C19.9579 83.8033 20.3739 84.2237 20.6772 84.761C20.9806 85.2897 21.1322 85.8963 21.1322 86.581C21.1322 87.2657 20.9806 87.8767 20.6772 88.414C20.3739 88.9427 19.9579 89.363 19.4292 89.675C18.9092 89.9783 18.3199 90.13 17.6612 90.13ZM17.6612 88.908C18.0686 88.908 18.4326 88.8083 18.7532 88.609C19.0739 88.401 19.3252 88.1237 19.5072 87.777C19.6892 87.4217 19.7759 87.023 19.7672 86.581C19.7759 86.1303 19.6892 85.7317 19.5072 85.385C19.3252 85.0297 19.0739 84.7523 18.7532 84.553C18.4326 84.3537 18.0686 84.254 17.6612 84.254C17.2539 84.254 16.8856 84.358 16.5562 84.566C16.2356 84.7653 15.9842 85.0427 15.8022 85.398C15.6202 85.7447 15.5336 86.139 15.5422 86.581C15.5336 87.023 15.6202 87.4217 15.8022 87.777C15.9842 88.1237 16.2356 88.401 16.5562 88.609C16.8856 88.8083 17.2539 88.908 17.6612 88.908ZM22.5913 90V83.175H23.9303V84.579L23.6963 84.735C23.7829 84.4317 23.9519 84.1543 24.2033 83.903C24.4546 83.643 24.7536 83.435 25.1003 83.279C25.4469 83.1143 25.8023 83.032 26.1663 83.032C26.6863 83.032 27.1196 83.136 27.4663 83.344C27.8129 83.5433 28.0729 83.851 28.2463 84.267C28.4196 84.683 28.5063 85.2073 28.5063 85.84V90H27.1673V85.931C27.1673 85.541 27.1153 85.2203 27.0113 84.969C26.9073 84.709 26.7469 84.5227 26.5303 84.41C26.3136 84.2887 26.0449 84.2367 25.7243 84.254C25.4643 84.254 25.2259 84.2973 25.0093 84.384C24.7926 84.462 24.6019 84.5747 24.4373 84.722C24.2813 84.8693 24.1556 85.0427 24.0603 85.242C23.9736 85.4327 23.9303 85.6407 23.9303 85.866V90H23.2673C23.1546 90 23.0419 90 22.9293 90C22.8166 90 22.7039 90 22.5913 90ZM31.1677 90V81.433H32.5067V90H31.1677ZM29.7507 84.475V83.175H34.0927V84.475H29.7507ZM35.065 86.945V85.619H38.809V86.945H35.065ZM43.6132 90.13C42.9112 90.13 42.2872 89.9827 41.7412 89.688C41.2039 89.3847 40.7792 88.973 40.4672 88.453C40.1639 87.933 40.0122 87.335 40.0122 86.659C40.0122 86.1217 40.0989 85.632 40.2722 85.19C40.4455 84.748 40.6839 84.3667 40.9872 84.046C41.2992 83.7167 41.6675 83.4653 42.0922 83.292C42.5255 83.11 42.9935 83.019 43.4962 83.019C43.9382 83.019 44.3499 83.1057 44.7312 83.279C45.1125 83.4437 45.4419 83.6733 45.7192 83.968C46.0052 84.2627 46.2219 84.6137 46.3692 85.021C46.5252 85.4197 46.5989 85.8573 46.5902 86.334L46.5772 86.906H41.0002L40.7012 85.84H45.4202L45.2252 86.061V85.749C45.1992 85.463 45.1039 85.2073 44.9392 84.982C44.7745 84.7567 44.5665 84.579 44.3152 84.449C44.0639 84.319 43.7909 84.254 43.4962 84.254C43.0282 84.254 42.6339 84.345 42.3132 84.527C41.9925 84.7003 41.7499 84.9603 41.5852 85.307C41.4205 85.645 41.3382 86.0653 41.3382 86.568C41.3382 87.0447 41.4379 87.4607 41.6372 87.816C41.8365 88.1627 42.1182 88.4313 42.4822 88.622C42.8462 88.8127 43.2665 88.908 43.7432 88.908C44.0812 88.908 44.3932 88.8517 44.6792 88.739C44.9739 88.6263 45.2902 88.4227 45.6282 88.128L46.3042 89.077C46.0962 89.285 45.8405 89.467 45.5372 89.623C45.2425 89.779 44.9262 89.9047 44.5882 90C44.2589 90.0867 43.9339 90.13 43.6132 90.13ZM48.0454 90V83.175H49.3844V84.579L49.1504 84.735C49.237 84.4317 49.406 84.1543 49.6574 83.903C49.9087 83.643 50.2077 83.435 50.5544 83.279C50.901 83.1143 51.2564 83.032 51.6204 83.032C52.1404 83.032 52.5737 83.136 52.9204 83.344C53.267 83.5433 53.527 83.851 53.7004 84.267C53.8737 84.683 53.9604 85.2073 53.9604 85.84V90H52.6214V85.931C52.6214 85.541 52.5694 85.2203 52.4654 84.969C52.3614 84.709 52.201 84.5227 51.9844 84.41C51.7677 84.2887 51.499 84.2367 51.1784 84.254C50.9184 84.254 50.68 84.2973 50.4634 84.384C50.2467 84.462 50.056 84.5747 49.8914 84.722C49.7354 84.8693 49.6097 85.0427 49.5144 85.242C49.4277 85.4327 49.3844 85.6407 49.3844 85.866V90H48.7214C48.6087 90 48.496 90 48.3834 90C48.2707 90 48.158 90 48.0454 90ZM58.6238 90.13C57.9998 90.13 57.4408 89.9783 56.9468 89.675C56.4615 89.363 56.0758 88.9427 55.7898 88.414C55.5038 87.8767 55.3608 87.2657 55.3608 86.581C55.3608 85.8963 55.4995 85.2897 55.7768 84.761C56.0628 84.2237 56.4485 83.8033 56.9338 83.5C57.4192 83.188 57.9695 83.032 58.5848 83.032C58.9228 83.032 59.2478 83.0883 59.5598 83.201C59.8805 83.305 60.1665 83.4523 60.4178 83.643C60.6692 83.825 60.8642 84.0287 61.0028 84.254C61.1502 84.4707 61.2238 84.6917 61.2238 84.917L60.8338 84.943V80.38H62.1728V90H60.8338V88.375H61.0938C61.0938 88.583 61.0245 88.791 60.8858 88.999C60.7472 89.1983 60.5608 89.3847 60.3268 89.558C60.1015 89.7313 59.8372 89.87 59.5338 89.974C59.2392 90.078 58.9358 90.13 58.6238 90.13ZM58.8058 88.973C59.2132 88.973 59.5728 88.869 59.8848 88.661C60.1968 88.453 60.4395 88.1713 60.6128 87.816C60.7948 87.452 60.8858 87.0403 60.8858 86.581C60.8858 86.1217 60.7948 85.7143 60.6128 85.359C60.4395 84.995 60.1968 84.709 59.8848 84.501C59.5728 84.293 59.2132 84.189 58.8058 84.189C58.3985 84.189 58.0388 84.293 57.7268 84.501C57.4148 84.709 57.1678 84.995 56.9858 85.359C56.8125 85.7143 56.7258 86.1217 56.7258 86.581C56.7258 87.0403 56.8125 87.452 56.9858 87.816C57.1678 88.1713 57.4148 88.453 57.7268 88.661C58.0388 88.869 58.3985 88.973 58.8058 88.973ZM67.9976 90V80.9H71.5596C72.2096 80.9 72.7946 81.0083 73.3146 81.225C73.8433 81.4417 74.294 81.7537 74.6666 82.161C75.0393 82.5683 75.3253 83.0493 75.5246 83.604C75.724 84.1587 75.8236 84.774 75.8236 85.45C75.8236 86.126 75.724 86.7457 75.5246 87.309C75.3253 87.8637 75.0393 88.3447 74.6666 88.752C74.3026 89.1507 73.8563 89.4583 73.3276 89.675C72.799 89.8917 72.2096 90 71.5596 90H67.9976ZM69.4016 88.791L69.3626 88.648H71.4946C71.954 88.648 72.3613 88.5743 72.7166 88.427C73.0806 88.2797 73.384 88.0717 73.6266 87.803C73.878 87.5257 74.0686 87.1877 74.1986 86.789C74.3286 86.3903 74.3936 85.944 74.3936 85.45C74.3936 84.956 74.3286 84.514 74.1986 84.124C74.0686 83.7253 73.878 83.3873 73.6266 83.11C73.3753 82.8327 73.072 82.6203 72.7166 82.473C72.3613 82.3257 71.954 82.252 71.4946 82.252H69.3236L69.4016 82.135V88.791ZM80.5692 90.13C79.8672 90.13 79.2432 89.9827 78.6972 89.688C78.1599 89.3847 77.7352 88.973 77.4232 88.453C77.1199 87.933 76.9682 87.335 76.9682 86.659C76.9682 86.1217 77.0549 85.632 77.2282 85.19C77.4016 84.748 77.6399 84.3667 77.9432 84.046C78.2552 83.7167 78.6236 83.4653 79.0482 83.292C79.4816 83.11 79.9496 83.019 80.4522 83.019C80.8942 83.019 81.3059 83.1057 81.6872 83.279C82.0686 83.4437 82.3979 83.6733 82.6752 83.968C82.9612 84.2627 83.1779 84.6137 83.3252 85.021C83.4812 85.4197 83.5549 85.8573 83.5462 86.334L83.5332 86.906H77.9562L77.6572 85.84H82.3762L82.1812 86.061V85.749C82.1552 85.463 82.0599 85.2073 81.8952 84.982C81.7306 84.7567 81.5226 84.579 81.2712 84.449C81.0199 84.319 80.7469 84.254 80.4522 84.254C79.9842 84.254 79.5899 84.345 79.2692 84.527C78.9486 84.7003 78.7059 84.9603 78.5412 85.307C78.3766 85.645 78.2942 86.0653 78.2942 86.568C78.2942 87.0447 78.3939 87.4607 78.5932 87.816C78.7926 88.1627 79.0742 88.4313 79.4382 88.622C79.8022 88.8127 80.2226 88.908 80.6992 88.908C81.0372 88.908 81.3492 88.8517 81.6352 88.739C81.9299 88.6263 82.2462 88.4227 82.5842 88.128L83.2602 89.077C83.0522 89.285 82.7966 89.467 82.4932 89.623C82.1986 89.779 81.8822 89.9047 81.5442 90C81.2149 90.0867 80.8899 90.13 80.5692 90.13ZM87.1105 90L84.2245 83.175H85.6675L87.7475 88.284L87.5005 88.401L89.7235 83.175H91.1015L88.0725 90H87.1105ZM95.3212 90.13C94.6192 90.13 93.9952 89.9827 93.4492 89.688C92.9119 89.3847 92.4872 88.973 92.1752 88.453C91.8719 87.933 91.7202 87.335 91.7202 86.659C91.7202 86.1217 91.8069 85.632 91.9802 85.19C92.1535 84.748 92.3919 84.3667 92.6952 84.046C93.0072 83.7167 93.3755 83.4653 93.8002 83.292C94.2335 83.11 94.7015 83.019 95.2042 83.019C95.6462 83.019 96.0579 83.1057 96.4392 83.279C96.8205 83.4437 97.1499 83.6733 97.4272 83.968C97.7132 84.2627 97.9299 84.6137 98.0772 85.021C98.2332 85.4197 98.3069 85.8573 98.2982 86.334L98.2852 86.906H92.7082L92.4092 85.84H97.1282L96.9332 86.061V85.749C96.9072 85.463 96.8119 85.2073 96.6472 84.982C96.4825 84.7567 96.2745 84.579 96.0232 84.449C95.7719 84.319 95.4989 84.254 95.2042 84.254C94.7362 84.254 94.3419 84.345 94.0212 84.527C93.7005 84.7003 93.4579 84.9603 93.2932 85.307C93.1285 85.645 93.0462 86.0653 93.0462 86.568C93.0462 87.0447 93.1459 87.4607 93.3452 87.816C93.5445 88.1627 93.8262 88.4313 94.1902 88.622C94.5542 88.8127 94.9745 88.908 95.4512 88.908C95.7892 88.908 96.1012 88.8517 96.3872 88.739C96.6819 88.6263 96.9982 88.4227 97.3362 88.128L98.0122 89.077C97.8042 89.285 97.5485 89.467 97.2452 89.623C96.9505 89.779 96.6342 89.9047 96.2962 90C95.9669 90.0867 95.6419 90.13 95.3212 90.13ZM99.7794 90V80.38H101.118V90H99.7794ZM105.957 90.13C105.29 90.13 104.692 89.9783 104.163 89.675C103.643 89.363 103.231 88.9427 102.928 88.414C102.625 87.8767 102.473 87.2657 102.473 86.581C102.473 85.8963 102.625 85.2897 102.928 84.761C103.231 84.2237 103.643 83.8033 104.163 83.5C104.692 83.188 105.29 83.032 105.957 83.032C106.616 83.032 107.205 83.188 107.725 83.5C108.254 83.8033 108.67 84.2237 108.973 84.761C109.276 85.2897 109.428 85.8963 109.428 86.581C109.428 87.2657 109.276 87.8767 108.973 88.414C108.67 88.9427 108.254 89.363 107.725 89.675C107.205 89.9783 106.616 90.13 105.957 90.13ZM105.957 88.908C106.364 88.908 106.728 88.8083 107.049 88.609C107.37 88.401 107.621 88.1237 107.803 87.777C107.985 87.4217 108.072 87.023 108.063 86.581C108.072 86.1303 107.985 85.7317 107.803 85.385C107.621 85.0297 107.37 84.7523 107.049 84.553C106.728 84.3537 106.364 84.254 105.957 84.254C105.55 84.254 105.181 84.358 104.852 84.566C104.531 84.7653 104.28 85.0427 104.098 85.398C103.916 85.7447 103.829 86.139 103.838 86.581C103.829 87.023 103.916 87.4217 104.098 87.777C104.28 88.1237 104.531 88.401 104.852 88.609C105.181 88.8083 105.55 88.908 105.957 88.908ZM110.887 92.86V83.175H112.239V84.735L112.031 84.618C112.083 84.358 112.231 84.111 112.473 83.877C112.716 83.6343 113.011 83.4393 113.357 83.292C113.713 83.136 114.077 83.058 114.449 83.058C115.065 83.058 115.611 83.2097 116.087 83.513C116.564 83.8163 116.941 84.2323 117.218 84.761C117.496 85.2897 117.634 85.8963 117.634 86.581C117.634 87.257 117.496 87.8637 117.218 88.401C116.95 88.9297 116.577 89.35 116.1 89.662C115.624 89.9653 115.086 90.117 114.488 90.117C114.09 90.117 113.704 90.039 113.331 89.883C112.959 89.7183 112.642 89.5103 112.382 89.259C112.122 89.0077 111.962 88.7477 111.901 88.479L112.239 88.297V92.86H110.887ZM114.267 88.882C114.666 88.882 115.021 88.7823 115.333 88.583C115.645 88.3837 115.892 88.1107 116.074 87.764C116.256 87.4173 116.347 87.023 116.347 86.581C116.347 86.139 116.256 85.749 116.074 85.411C115.901 85.0643 115.658 84.7913 115.346 84.592C115.034 84.3927 114.675 84.293 114.267 84.293C113.86 84.293 113.5 84.3927 113.188 84.592C112.876 84.7827 112.629 85.0513 112.447 85.398C112.265 85.7447 112.174 86.139 112.174 86.581C112.174 87.023 112.265 87.4173 112.447 87.764C112.629 88.1107 112.876 88.3837 113.188 88.583C113.5 88.7823 113.86 88.882 114.267 88.882ZM122.273 90.13C121.571 90.13 120.947 89.9827 120.401 89.688C119.864 89.3847 119.439 88.973 119.127 88.453C118.824 87.933 118.672 87.335 118.672 86.659C118.672 86.1217 118.759 85.632 118.932 85.19C119.106 84.748 119.344 84.3667 119.647 84.046C119.959 83.7167 120.328 83.4653 120.752 83.292C121.186 83.11 121.654 83.019 122.156 83.019C122.598 83.019 123.01 83.1057 123.391 83.279C123.773 83.4437 124.102 83.6733 124.379 83.968C124.665 84.2627 124.882 84.6137 125.029 85.021C125.185 85.4197 125.259 85.8573 125.25 86.334L125.237 86.906H119.66L119.361 85.84H124.08L123.885 86.061V85.749C123.859 85.463 123.764 85.2073 123.599 84.982C123.435 84.7567 123.227 84.579 122.975 84.449C122.724 84.319 122.451 84.254 122.156 84.254C121.688 84.254 121.294 84.345 120.973 84.527C120.653 84.7003 120.41 84.9603 120.245 85.307C120.081 85.645 119.998 86.0653 119.998 86.568C119.998 87.0447 120.098 87.4607 120.297 87.816C120.497 88.1627 120.778 88.4313 121.142 88.622C121.506 88.8127 121.927 88.908 122.403 88.908C122.741 88.908 123.053 88.8517 123.339 88.739C123.634 88.6263 123.95 88.4227 124.288 88.128L124.964 89.077C124.756 89.285 124.501 89.467 124.197 89.623C123.903 89.779 123.586 89.9047 123.248 90C122.919 90.0867 122.594 90.13 122.273 90.13ZM126.706 90V83.175H128.058V85.32L127.928 84.8C128.023 84.4707 128.183 84.1717 128.409 83.903C128.643 83.6343 128.907 83.422 129.202 83.266C129.505 83.11 129.817 83.032 130.138 83.032C130.285 83.032 130.424 83.045 130.554 83.071C130.692 83.097 130.801 83.1273 130.879 83.162L130.528 84.618C130.424 84.5747 130.307 84.54 130.177 84.514C130.055 84.4793 129.934 84.462 129.813 84.462C129.579 84.462 129.353 84.5097 129.137 84.605C128.929 84.6917 128.742 84.8173 128.578 84.982C128.422 85.138 128.296 85.3243 128.201 85.541C128.105 85.749 128.058 85.9787 128.058 86.23V90H126.706ZM134.89 91.716L140.246 80.9H141.533L136.19 91.716H134.89ZM146.81 90V80.9H150.372C151.022 80.9 151.607 81.0083 152.127 81.225C152.656 81.4417 153.106 81.7537 153.479 82.161C153.852 82.5683 154.138 83.0493 154.337 83.604C154.536 84.1587 154.636 84.774 154.636 85.45C154.636 86.126 154.536 86.7457 154.337 87.309C154.138 87.8637 153.852 88.3447 153.479 88.752C153.115 89.1507 152.669 89.4583 152.14 89.675C151.611 89.8917 151.022 90 150.372 90H146.81ZM148.214 88.791L148.175 88.648H150.307C150.766 88.648 151.174 88.5743 151.529 88.427C151.893 88.2797 152.196 88.0717 152.439 87.803C152.69 87.5257 152.881 87.1877 153.011 86.789C153.141 86.3903 153.206 85.944 153.206 85.45C153.206 84.956 153.141 84.514 153.011 84.124C152.881 83.7253 152.69 83.3873 152.439 83.11C152.188 82.8327 151.884 82.6203 151.529 82.473C151.174 82.3257 150.766 82.252 150.307 82.252H148.136L148.214 82.135V88.791ZM158.823 90.13C158.259 90.13 157.744 89.974 157.276 89.662C156.816 89.35 156.448 88.9253 156.171 88.388C155.893 87.8507 155.755 87.244 155.755 86.568C155.755 85.8833 155.893 85.2767 156.171 84.748C156.457 84.2107 156.838 83.7903 157.315 83.487C157.8 83.1837 158.342 83.032 158.94 83.032C159.295 83.032 159.62 83.084 159.915 83.188C160.209 83.292 160.465 83.4393 160.682 83.63C160.907 83.812 161.089 84.0243 161.228 84.267C161.375 84.5097 161.466 84.7697 161.501 85.047L161.202 84.943V83.175H162.554V90H161.202V88.375L161.514 88.284C161.462 88.518 161.353 88.7477 161.189 88.973C161.033 89.1897 160.829 89.3847 160.578 89.558C160.335 89.7313 160.062 89.87 159.759 89.974C159.464 90.078 159.152 90.13 158.823 90.13ZM159.174 88.895C159.581 88.895 159.941 88.7953 160.253 88.596C160.565 88.3967 160.807 88.1237 160.981 87.777C161.163 87.4217 161.254 87.0187 161.254 86.568C161.254 86.126 161.163 85.7317 160.981 85.385C160.807 85.0383 160.565 84.7653 160.253 84.566C159.941 84.3667 159.581 84.267 159.174 84.267C158.775 84.267 158.42 84.3667 158.108 84.566C157.804 84.7653 157.562 85.0383 157.38 85.385C157.206 85.7317 157.12 86.126 157.12 86.568C157.12 87.0187 157.206 87.4217 157.38 87.777C157.562 88.1237 157.804 88.3967 158.108 88.596C158.42 88.7953 158.775 88.895 159.174 88.895ZM165.268 90V81.433H166.607V90H165.268ZM163.851 84.475V83.175H168.193V84.475H163.851ZM171.975 90.13C171.412 90.13 170.896 89.974 170.428 89.662C169.969 89.35 169.6 88.9253 169.323 88.388C169.046 87.8507 168.907 87.244 168.907 86.568C168.907 85.8833 169.046 85.2767 169.323 84.748C169.609 84.2107 169.99 83.7903 170.467 83.487C170.952 83.1837 171.494 83.032 172.092 83.032C172.447 83.032 172.772 83.084 173.067 83.188C173.362 83.292 173.617 83.4393 173.834 83.63C174.059 83.812 174.241 84.0243 174.38 84.267C174.527 84.5097 174.618 84.7697 174.653 85.047L174.354 84.943V83.175H175.706V90H174.354V88.375L174.666 88.284C174.614 88.518 174.506 88.7477 174.341 88.973C174.185 89.1897 173.981 89.3847 173.73 89.558C173.487 89.7313 173.214 89.87 172.911 89.974C172.616 90.078 172.304 90.13 171.975 90.13ZM172.326 88.895C172.733 88.895 173.093 88.7953 173.405 88.596C173.717 88.3967 173.96 88.1237 174.133 87.777C174.315 87.4217 174.406 87.0187 174.406 86.568C174.406 86.126 174.315 85.7317 174.133 85.385C173.96 85.0383 173.717 84.7653 173.405 84.566C173.093 84.3667 172.733 84.267 172.326 84.267C171.927 84.267 171.572 84.3667 171.26 84.566C170.957 84.7653 170.714 85.0383 170.532 85.385C170.359 85.7317 170.272 86.126 170.272 86.568C170.272 87.0187 170.359 87.4217 170.532 87.777C170.714 88.1237 170.957 88.3967 171.26 88.596C171.572 88.7953 171.927 88.895 172.326 88.895ZM184.365 90.13C183.871 90.13 183.412 90.065 182.987 89.935C182.571 89.805 182.19 89.61 181.843 89.35C181.505 89.0813 181.202 88.752 180.933 88.362L181.895 87.257C182.32 87.8637 182.727 88.284 183.117 88.518C183.507 88.752 183.971 88.869 184.508 88.869C184.838 88.869 185.137 88.817 185.405 88.713C185.674 88.609 185.886 88.466 186.042 88.284C186.198 88.102 186.276 87.894 186.276 87.66C186.276 87.504 186.25 87.3567 186.198 87.218C186.146 87.0793 186.064 86.9537 185.951 86.841C185.847 86.7283 185.709 86.6243 185.535 86.529C185.371 86.4337 185.176 86.3513 184.95 86.282C184.725 86.204 184.465 86.139 184.17 86.087C183.702 85.9917 183.295 85.866 182.948 85.71C182.602 85.554 182.311 85.359 182.077 85.125C181.843 84.891 181.67 84.6267 181.557 84.332C181.445 84.0287 181.388 83.6907 181.388 83.318C181.388 82.954 181.466 82.616 181.622 82.304C181.787 81.992 182.008 81.7233 182.285 81.498C182.571 81.264 182.905 81.0863 183.286 80.965C183.668 80.835 184.079 80.77 184.521 80.77C184.989 80.77 185.418 80.8307 185.808 80.952C186.198 81.0733 186.545 81.2553 186.848 81.498C187.152 81.732 187.403 82.0223 187.602 82.369L186.614 83.344C186.441 83.058 186.246 82.8197 186.029 82.629C185.813 82.4297 185.574 82.2823 185.314 82.187C185.054 82.083 184.777 82.031 184.482 82.031C184.144 82.031 183.85 82.083 183.598 82.187C183.347 82.291 183.148 82.4383 183 82.629C182.862 82.811 182.792 83.0277 182.792 83.279C182.792 83.461 182.827 83.63 182.896 83.786C182.966 83.9333 183.07 84.0677 183.208 84.189C183.356 84.3017 183.551 84.4057 183.793 84.501C184.036 84.5877 184.326 84.6657 184.664 84.735C185.141 84.839 185.566 84.9733 185.938 85.138C186.311 85.294 186.627 85.4803 186.887 85.697C187.147 85.9137 187.342 86.1563 187.472 86.425C187.611 86.6937 187.68 86.984 187.68 87.296C187.68 87.8767 187.546 88.3793 187.277 88.804C187.009 89.2287 186.627 89.558 186.133 89.792C185.639 90.0173 185.05 90.13 184.365 90.13ZM192.231 90.13C191.598 90.13 191.03 89.974 190.528 89.662C190.034 89.35 189.639 88.9253 189.345 88.388C189.059 87.8507 188.916 87.2483 188.916 86.581C188.916 85.9137 189.059 85.3113 189.345 84.774C189.639 84.2367 190.034 83.812 190.528 83.5C191.03 83.188 191.598 83.032 192.231 83.032C192.837 83.032 193.388 83.1577 193.882 83.409C194.384 83.6517 194.766 83.9853 195.026 84.41L194.285 85.32C194.146 85.1207 193.968 84.9387 193.752 84.774C193.535 84.6093 193.305 84.4793 193.063 84.384C192.82 84.2887 192.586 84.241 192.361 84.241C191.945 84.241 191.572 84.345 191.243 84.553C190.922 84.7523 190.666 85.0297 190.476 85.385C190.285 85.7403 190.19 86.139 190.19 86.581C190.19 87.023 190.289 87.4217 190.489 87.777C190.688 88.1237 190.952 88.401 191.282 88.609C191.611 88.817 191.975 88.921 192.374 88.921C192.608 88.921 192.833 88.882 193.05 88.804C193.275 88.726 193.492 88.609 193.7 88.453C193.908 88.297 194.103 88.1063 194.285 87.881L195.026 88.791C194.748 89.181 194.35 89.5017 193.83 89.753C193.318 90.0043 192.785 90.13 192.231 90.13ZM196.51 90V83.175H197.849V90H196.51ZM197.16 81.667C196.874 81.667 196.653 81.5933 196.497 81.446C196.341 81.2987 196.263 81.0907 196.263 80.822C196.263 80.5707 196.341 80.367 196.497 80.211C196.661 80.055 196.882 79.977 197.16 79.977C197.446 79.977 197.667 80.0507 197.823 80.198C197.979 80.3453 198.057 80.5533 198.057 80.822C198.057 81.0733 197.974 81.277 197.81 81.433C197.654 81.589 197.437 81.667 197.16 81.667ZM203.092 90.13C202.39 90.13 201.766 89.9827 201.22 89.688C200.682 89.3847 200.258 88.973 199.946 88.453C199.642 87.933 199.491 87.335 199.491 86.659C199.491 86.1217 199.577 85.632 199.751 85.19C199.924 84.748 200.162 84.3667 200.466 84.046C200.778 83.7167 201.146 83.4653 201.571 83.292C202.004 83.11 202.472 83.019 202.975 83.019C203.417 83.019 203.828 83.1057 204.21 83.279C204.591 83.4437 204.92 83.6733 205.198 83.968C205.484 84.2627 205.7 84.6137 205.848 85.021C206.004 85.4197 206.077 85.8573 206.069 86.334L206.056 86.906H200.479L200.18 85.84H204.899L204.704 86.061V85.749C204.678 85.463 204.582 85.2073 204.418 84.982C204.253 84.7567 204.045 84.579 203.794 84.449C203.542 84.319 203.269 84.254 202.975 84.254C202.507 84.254 202.112 84.345 201.792 84.527C201.471 84.7003 201.228 84.9603 201.064 85.307C200.899 85.645 200.817 86.0653 200.817 86.568C200.817 87.0447 200.916 87.4607 201.116 87.816C201.315 88.1627 201.597 88.4313 201.961 88.622C202.325 88.8127 202.745 88.908 203.222 88.908C203.56 88.908 203.872 88.8517 204.158 88.739C204.452 88.6263 204.769 88.4227 205.107 88.128L205.783 89.077C205.575 89.285 205.319 89.467 205.016 89.623C204.721 89.779 204.405 89.9047 204.067 90C203.737 90.0867 203.412 90.13 203.092 90.13ZM207.524 90V83.175H208.863V84.579L208.629 84.735C208.716 84.4317 208.885 84.1543 209.136 83.903C209.387 83.643 209.686 83.435 210.033 83.279C210.38 83.1143 210.735 83.032 211.099 83.032C211.619 83.032 212.052 83.136 212.399 83.344C212.746 83.5433 213.006 83.851 213.179 84.267C213.352 84.683 213.439 85.2073 213.439 85.84V90H212.1V85.931C212.1 85.541 212.048 85.2203 211.944 84.969C211.84 84.709 211.68 84.5227 211.463 84.41C211.246 84.2887 210.978 84.2367 210.657 84.254C210.397 84.254 210.159 84.2973 209.942 84.384C209.725 84.462 209.535 84.5747 209.37 84.722C209.214 84.8693 209.088 85.0427 208.993 85.242C208.906 85.4327 208.863 85.6407 208.863 85.866V90H208.2C208.087 90 207.975 90 207.862 90C207.749 90 207.637 90 207.524 90ZM216.1 90V81.433H217.439V90H216.1ZM214.683 84.475V83.175H219.025V84.475H214.683ZM220.466 90V83.175H221.805V90H220.466ZM221.116 81.667C220.83 81.667 220.609 81.5933 220.453 81.446C220.297 81.2987 220.219 81.0907 220.219 80.822C220.219 80.5707 220.297 80.367 220.453 80.211C220.617 80.055 220.838 79.977 221.116 79.977C221.402 79.977 221.623 80.0507 221.779 80.198C221.935 80.3453 222.013 80.5533 222.013 80.822C222.013 81.0733 221.93 81.277 221.766 81.433C221.61 81.589 221.393 81.667 221.116 81.667ZM226.138 90.13C225.566 90.13 225.05 90.0303 224.591 89.831C224.131 89.6317 223.75 89.337 223.447 88.947L224.357 88.167C224.617 88.4703 224.898 88.6913 225.202 88.83C225.514 88.96 225.865 89.025 226.255 89.025C226.411 89.025 226.554 89.0077 226.684 88.973C226.822 88.9297 226.939 88.869 227.035 88.791C227.139 88.713 227.217 88.622 227.269 88.518C227.321 88.4053 227.347 88.284 227.347 88.154C227.347 87.9287 227.264 87.7467 227.1 87.608C227.013 87.5473 226.874 87.4823 226.684 87.413C226.502 87.335 226.263 87.257 225.969 87.179C225.466 87.049 225.054 86.9017 224.734 86.737C224.413 86.5723 224.166 86.386 223.993 86.178C223.863 86.0133 223.767 85.8357 223.707 85.645C223.646 85.4457 223.616 85.229 223.616 84.995C223.616 84.709 223.676 84.449 223.798 84.215C223.928 83.9723 224.101 83.7643 224.318 83.591C224.543 83.409 224.803 83.2703 225.098 83.175C225.401 83.0797 225.722 83.032 226.06 83.032C226.38 83.032 226.697 83.0753 227.009 83.162C227.329 83.2487 227.624 83.3743 227.893 83.539C228.161 83.7037 228.387 83.8987 228.569 84.124L227.802 84.969C227.637 84.8043 227.455 84.6613 227.256 84.54C227.065 84.41 226.87 84.3103 226.671 84.241C226.471 84.1717 226.289 84.137 226.125 84.137C225.943 84.137 225.778 84.1543 225.631 84.189C225.483 84.2237 225.358 84.2757 225.254 84.345C225.158 84.4143 225.085 84.501 225.033 84.605C224.981 84.709 224.955 84.826 224.955 84.956C224.963 85.0687 224.989 85.177 225.033 85.281C225.085 85.3763 225.154 85.4587 225.241 85.528C225.336 85.5973 225.479 85.671 225.67 85.749C225.86 85.827 226.103 85.9007 226.398 85.97C226.831 86.0827 227.186 86.2083 227.464 86.347C227.75 86.477 227.975 86.6287 228.14 86.802C228.313 86.9667 228.434 87.1573 228.504 87.374C228.573 87.5907 228.608 87.8333 228.608 88.102C228.608 88.492 228.495 88.843 228.27 89.155C228.053 89.4583 227.758 89.6967 227.386 89.87C227.013 90.0433 226.597 90.13 226.138 90.13ZM230.928 90V81.433H232.267V90H230.928ZM229.511 84.475V83.175H233.853V84.475H229.511ZM238.014 91.716L243.37 80.9H244.657L239.314 91.716H238.014ZM253.47 90.078C252.768 90.078 252.14 89.9263 251.585 89.623C251.03 89.311 250.593 88.8863 250.272 88.349C249.96 87.803 249.804 87.1877 249.804 86.503V80.887H251.208V86.386C251.208 86.828 251.312 87.2267 251.52 87.582C251.728 87.9287 252.001 88.206 252.339 88.414C252.686 88.622 253.063 88.726 253.47 88.726C253.903 88.726 254.293 88.622 254.64 88.414C254.995 88.206 255.277 87.9287 255.485 87.582C255.693 87.2267 255.797 86.828 255.797 86.386V80.887H257.136V86.503C257.136 87.1877 256.976 87.803 256.655 88.349C256.343 88.8863 255.91 89.311 255.355 89.623C254.8 89.9263 254.172 90.078 253.47 90.078ZM259.219 90V83.175H260.558V84.579L260.324 84.735C260.411 84.4317 260.58 84.1543 260.831 83.903C261.083 83.643 261.382 83.435 261.728 83.279C262.075 83.1143 262.43 83.032 262.794 83.032C263.314 83.032 263.748 83.136 264.094 83.344C264.441 83.5433 264.701 83.851 264.874 84.267C265.048 84.683 265.134 85.2073 265.134 85.84V90H263.795V85.931C263.795 85.541 263.743 85.2203 263.639 84.969C263.535 84.709 263.375 84.5227 263.158 84.41C262.942 84.2887 262.673 84.2367 262.352 84.254C262.092 84.254 261.854 84.2973 261.637 84.384C261.421 84.462 261.23 84.5747 261.065 84.722C260.909 84.8693 260.784 85.0427 260.688 85.242C260.602 85.4327 260.558 85.6407 260.558 85.866V90H259.895C259.783 90 259.67 90 259.557 90C259.445 90 259.332 90 259.219 90ZM269.798 90.13C269.174 90.13 268.615 89.9783 268.121 89.675C267.635 89.363 267.25 88.9427 266.964 88.414C266.678 87.8767 266.535 87.2657 266.535 86.581C266.535 85.8963 266.673 85.2897 266.951 84.761C267.237 84.2237 267.622 83.8033 268.108 83.5C268.593 83.188 269.143 83.032 269.759 83.032C270.097 83.032 270.422 83.0883 270.734 83.201C271.054 83.305 271.34 83.4523 271.592 83.643C271.843 83.825 272.038 84.0287 272.177 84.254C272.324 84.4707 272.398 84.6917 272.398 84.917L272.008 84.943V80.38H273.347V90H272.008V88.375H272.268C272.268 88.583 272.198 88.791 272.06 88.999C271.921 89.1983 271.735 89.3847 271.501 89.558C271.275 89.7313 271.011 89.87 270.708 89.974C270.413 90.078 270.11 90.13 269.798 90.13ZM269.98 88.973C270.387 88.973 270.747 88.869 271.059 88.661C271.371 88.453 271.613 88.1713 271.787 87.816C271.969 87.452 272.06 87.0403 272.06 86.581C272.06 86.1217 271.969 85.7143 271.787 85.359C271.613 84.995 271.371 84.709 271.059 84.501C270.747 84.293 270.387 84.189 269.98 84.189C269.572 84.189 269.213 84.293 268.901 84.501C268.589 84.709 268.342 84.995 268.16 85.359C267.986 85.7143 267.9 86.1217 267.9 86.581C267.9 87.0403 267.986 87.452 268.16 87.816C268.342 88.1713 268.589 88.453 268.901 88.661C269.213 88.869 269.572 88.973 269.98 88.973ZM278.375 90.13C277.673 90.13 277.049 89.9827 276.503 89.688C275.966 89.3847 275.541 88.973 275.229 88.453C274.926 87.933 274.774 87.335 274.774 86.659C274.774 86.1217 274.861 85.632 275.034 85.19C275.207 84.748 275.446 84.3667 275.749 84.046C276.061 83.7167 276.429 83.4653 276.854 83.292C277.287 83.11 277.755 83.019 278.258 83.019C278.7 83.019 279.112 83.1057 279.493 83.279C279.874 83.4437 280.204 83.6733 280.481 83.968C280.767 84.2627 280.984 84.6137 281.131 85.021C281.287 85.4197 281.361 85.8573 281.352 86.334L281.339 86.906H275.762L275.463 85.84H280.182L279.987 86.061V85.749C279.961 85.463 279.866 85.2073 279.701 84.982C279.536 84.7567 279.328 84.579 279.077 84.449C278.826 84.319 278.553 84.254 278.258 84.254C277.79 84.254 277.396 84.345 277.075 84.527C276.754 84.7003 276.512 84.9603 276.347 85.307C276.182 85.645 276.1 86.0653 276.1 86.568C276.1 87.0447 276.2 87.4607 276.399 87.816C276.598 88.1627 276.88 88.4313 277.244 88.622C277.608 88.8127 278.028 88.908 278.505 88.908C278.843 88.908 279.155 88.8517 279.441 88.739C279.736 88.6263 280.052 88.4227 280.39 88.128L281.066 89.077C280.858 89.285 280.602 89.467 280.299 89.623C280.004 89.779 279.688 89.9047 279.35 90C279.021 90.0867 278.696 90.13 278.375 90.13ZM282.807 90V83.175H284.159V85.32L284.029 84.8C284.124 84.4707 284.285 84.1717 284.51 83.903C284.744 83.6343 285.008 83.422 285.303 83.266C285.606 83.11 285.918 83.032 286.239 83.032C286.386 83.032 286.525 83.045 286.655 83.071C286.794 83.097 286.902 83.1273 286.98 83.162L286.629 84.618C286.525 84.5747 286.408 84.54 286.278 84.514C286.157 84.4793 286.035 84.462 285.914 84.462C285.68 84.462 285.455 84.5097 285.238 84.605C285.03 84.6917 284.844 84.8173 284.679 84.982C284.523 85.138 284.397 85.3243 284.302 85.541C284.207 85.749 284.159 85.9787 284.159 86.23V90H282.807ZM290.915 92.99C290.429 92.99 289.944 92.912 289.459 92.756C288.982 92.6087 288.596 92.4137 288.302 92.171L288.796 91.131C288.969 91.261 289.173 91.3737 289.407 91.469C289.641 91.573 289.888 91.651 290.148 91.703C290.408 91.7637 290.663 91.794 290.915 91.794C291.391 91.794 291.79 91.716 292.111 91.56C292.431 91.404 292.674 91.1743 292.839 90.871C293.003 90.5677 293.086 90.1907 293.086 89.74V88.427L293.229 88.518C293.185 88.7867 293.042 89.0467 292.8 89.298C292.566 89.5407 292.271 89.74 291.916 89.896C291.56 90.052 291.196 90.13 290.824 90.13C290.174 90.13 289.593 89.9783 289.082 89.675C288.579 89.363 288.18 88.9427 287.886 88.414C287.591 87.8767 287.444 87.2657 287.444 86.581C287.444 85.8963 287.587 85.2897 287.873 84.761C288.167 84.2237 288.566 83.8033 289.069 83.5C289.58 83.188 290.152 83.032 290.785 83.032C291.045 83.032 291.296 83.0667 291.539 83.136C291.781 83.1967 292.007 83.2877 292.215 83.409C292.423 83.5217 292.609 83.6473 292.774 83.786C292.938 83.9247 293.073 84.072 293.177 84.228C293.281 84.384 293.346 84.5313 293.372 84.67L293.086 84.774V83.175H294.425V89.584C294.425 90.13 294.342 90.611 294.178 91.027C294.022 91.4517 293.792 91.807 293.489 92.093C293.185 92.3877 292.817 92.6087 292.384 92.756C291.95 92.912 291.461 92.99 290.915 92.99ZM290.967 88.895C291.391 88.895 291.768 88.7953 292.098 88.596C292.427 88.3967 292.683 88.1237 292.865 87.777C293.047 87.4303 293.138 87.0317 293.138 86.581C293.138 86.1303 293.042 85.7317 292.852 85.385C292.67 85.0297 292.414 84.7523 292.085 84.553C291.764 84.3537 291.391 84.254 290.967 84.254C290.551 84.254 290.178 84.358 289.849 84.566C289.528 84.7653 289.272 85.0427 289.082 85.398C288.9 85.7447 288.809 86.139 288.809 86.581C288.809 87.023 288.9 87.4217 289.082 87.777C289.272 88.1237 289.528 88.3967 289.849 88.596C290.178 88.7953 290.551 88.895 290.967 88.895ZM296.302 90V83.175H297.654V85.32L297.524 84.8C297.62 84.4707 297.78 84.1717 298.005 83.903C298.239 83.6343 298.504 83.422 298.798 83.266C299.102 83.11 299.414 83.032 299.734 83.032C299.882 83.032 300.02 83.045 300.15 83.071C300.289 83.097 300.397 83.1273 300.475 83.162L300.124 84.618C300.02 84.5747 299.903 84.54 299.773 84.514C299.652 84.4793 299.531 84.462 299.409 84.462C299.175 84.462 298.95 84.5097 298.733 84.605C298.525 84.6917 298.339 84.8173 298.174 84.982C298.018 85.138 297.893 85.3243 297.797 85.541C297.702 85.749 297.654 85.9787 297.654 86.23V90H296.302ZM303.879 90.13C303.316 90.13 302.8 89.974 302.332 89.662C301.873 89.35 301.505 88.9253 301.227 88.388C300.95 87.8507 300.811 87.244 300.811 86.568C300.811 85.8833 300.95 85.2767 301.227 84.748C301.513 84.2107 301.895 83.7903 302.371 83.487C302.857 83.1837 303.398 83.032 303.996 83.032C304.352 83.032 304.677 83.084 304.971 83.188C305.266 83.292 305.522 83.4393 305.738 83.63C305.964 83.812 306.146 84.0243 306.284 84.267C306.432 84.5097 306.523 84.7697 306.557 85.047L306.258 84.943V83.175H307.61V90H306.258V88.375L306.57 88.284C306.518 88.518 306.41 88.7477 306.245 88.973C306.089 89.1897 305.886 89.3847 305.634 89.558C305.392 89.7313 305.119 89.87 304.815 89.974C304.521 90.078 304.209 90.13 303.879 90.13ZM304.23 88.895C304.638 88.895 304.997 88.7953 305.309 88.596C305.621 88.3967 305.864 88.1237 306.037 87.777C306.219 87.4217 306.31 87.0187 306.31 86.568C306.31 86.126 306.219 85.7317 306.037 85.385C305.864 85.0383 305.621 84.7653 305.309 84.566C304.997 84.3667 304.638 84.267 304.23 84.267C303.832 84.267 303.476 84.3667 303.164 84.566C302.861 84.7653 302.618 85.0383 302.436 85.385C302.263 85.7317 302.176 86.126 302.176 86.568C302.176 87.0187 302.263 87.4217 302.436 87.777C302.618 88.1237 302.861 88.3967 303.164 88.596C303.476 88.7953 303.832 88.895 304.23 88.895ZM312.327 90.13C311.703 90.13 311.144 89.9783 310.65 89.675C310.165 89.363 309.779 88.9427 309.493 88.414C309.207 87.8767 309.064 87.2657 309.064 86.581C309.064 85.8963 309.203 85.2897 309.48 84.761C309.766 84.2237 310.152 83.8033 310.637 83.5C311.122 83.188 311.673 83.032 312.288 83.032C312.626 83.032 312.951 83.0883 313.263 83.201C313.584 83.305 313.87 83.4523 314.121 83.643C314.372 83.825 314.567 84.0287 314.706 84.254C314.853 84.4707 314.927 84.6917 314.927 84.917L314.537 84.943V80.38H315.876V90H314.537V88.375H314.797C314.797 88.583 314.728 88.791 314.589 88.999C314.45 89.1983 314.264 89.3847 314.03 89.558C313.805 89.7313 313.54 89.87 313.237 89.974C312.942 90.078 312.639 90.13 312.327 90.13ZM312.509 88.973C312.916 88.973 313.276 88.869 313.588 88.661C313.9 88.453 314.143 88.1713 314.316 87.816C314.498 87.452 314.589 87.0403 314.589 86.581C314.589 86.1217 314.498 85.7143 314.316 85.359C314.143 84.995 313.9 84.709 313.588 84.501C313.276 84.293 312.916 84.189 312.509 84.189C312.102 84.189 311.742 84.293 311.43 84.501C311.118 84.709 310.871 84.995 310.689 85.359C310.516 85.7143 310.429 86.1217 310.429 86.581C310.429 87.0403 310.516 87.452 310.689 87.816C310.871 88.1713 311.118 88.453 311.43 88.661C311.742 88.869 312.102 88.973 312.509 88.973ZM320.314 90.13C319.829 90.13 319.404 90.0173 319.04 89.792C318.685 89.5667 318.408 89.2503 318.208 88.843C318.018 88.4357 317.922 87.9503 317.922 87.387V83.175H319.261V87.023C319.261 87.4217 319.322 87.7683 319.443 88.063C319.573 88.349 319.755 88.57 319.989 88.726C320.232 88.882 320.522 88.96 320.86 88.96C321.112 88.96 321.341 88.921 321.549 88.843C321.757 88.7563 321.935 88.6393 322.082 88.492C322.238 88.3447 322.36 88.167 322.446 87.959C322.533 87.751 322.576 87.5257 322.576 87.283V83.175H323.915V90H322.576V88.57L322.81 88.414C322.706 88.7347 322.529 89.025 322.277 89.285C322.035 89.545 321.744 89.753 321.406 89.909C321.068 90.0563 320.704 90.13 320.314 90.13ZM328.419 90.13C327.856 90.13 327.34 89.974 326.872 89.662C326.413 89.35 326.045 88.9253 325.767 88.388C325.49 87.8507 325.351 87.244 325.351 86.568C325.351 85.8833 325.49 85.2767 325.767 84.748C326.053 84.2107 326.435 83.7903 326.911 83.487C327.397 83.1837 327.938 83.032 328.536 83.032C328.892 83.032 329.217 83.084 329.511 83.188C329.806 83.292 330.062 83.4393 330.278 83.63C330.504 83.812 330.686 84.0243 330.824 84.267C330.972 84.5097 331.063 84.7697 331.097 85.047L330.798 84.943V83.175H332.15V90H330.798V88.375L331.11 88.284C331.058 88.518 330.95 88.7477 330.785 88.973C330.629 89.1897 330.426 89.3847 330.174 89.558C329.932 89.7313 329.659 89.87 329.355 89.974C329.061 90.078 328.749 90.13 328.419 90.13ZM328.77 88.895C329.178 88.895 329.537 88.7953 329.849 88.596C330.161 88.3967 330.404 88.1237 330.577 87.777C330.759 87.4217 330.85 87.0187 330.85 86.568C330.85 86.126 330.759 85.7317 330.577 85.385C330.404 85.0383 330.161 84.7653 329.849 84.566C329.537 84.3667 329.178 84.267 328.77 84.267C328.372 84.267 328.016 84.3667 327.704 84.566C327.401 84.7653 327.158 85.0383 326.976 85.385C326.803 85.7317 326.716 86.126 326.716 86.568C326.716 87.0187 326.803 87.4217 326.976 87.777C327.158 88.1237 327.401 88.3967 327.704 88.596C328.016 88.7953 328.372 88.895 328.77 88.895ZM334.865 90V81.433H336.204V90H334.865ZM333.448 84.475V83.175H337.79V84.475H333.448ZM342.131 90.13C341.429 90.13 340.805 89.9827 340.259 89.688C339.721 89.3847 339.297 88.973 338.985 88.453C338.681 87.933 338.53 87.335 338.53 86.659C338.53 86.1217 338.616 85.632 338.79 85.19C338.963 84.748 339.201 84.3667 339.505 84.046C339.817 83.7167 340.185 83.4653 340.61 83.292C341.043 83.11 341.511 83.019 342.014 83.019C342.456 83.019 342.867 83.1057 343.249 83.279C343.63 83.4437 343.959 83.6733 344.237 83.968C344.523 84.2627 344.739 84.6137 344.887 85.021C345.043 85.4197 345.116 85.8573 345.108 86.334L345.095 86.906H339.518L339.219 85.84H343.938L343.743 86.061V85.749C343.717 85.463 343.621 85.2073 343.457 84.982C343.292 84.7567 343.084 84.579 342.833 84.449C342.581 84.319 342.308 84.254 342.014 84.254C341.546 84.254 341.151 84.345 340.831 84.527C340.51 84.7003 340.267 84.9603 340.103 85.307C339.938 85.645 339.856 86.0653 339.856 86.568C339.856 87.0447 339.955 87.4607 340.155 87.816C340.354 88.1627 340.636 88.4313 341 88.622C341.364 88.8127 341.784 88.908 342.261 88.908C342.599 88.908 342.911 88.8517 343.197 88.739C343.491 88.6263 343.808 88.4227 344.146 88.128L344.822 89.077C344.614 89.285 344.358 89.467 344.055 89.623C343.76 89.779 343.444 89.9047 343.106 90C342.776 90.0867 342.451 90.13 342.131 90.13ZM353.353 90.13C352.859 90.13 352.399 90.065 351.975 89.935C351.559 89.805 351.177 89.61 350.831 89.35C350.493 89.0813 350.189 88.752 349.921 88.362L350.883 87.257C351.307 87.8637 351.715 88.284 352.105 88.518C352.495 88.752 352.958 88.869 353.496 88.869C353.825 88.869 354.124 88.817 354.393 88.713C354.661 88.609 354.874 88.466 355.03 88.284C355.186 88.102 355.264 87.894 355.264 87.66C355.264 87.504 355.238 87.3567 355.186 87.218C355.134 87.0793 355.051 86.9537 354.939 86.841C354.835 86.7283 354.696 86.6243 354.523 86.529C354.358 86.4337 354.163 86.3513 353.938 86.282C353.712 86.204 353.452 86.139 353.158 86.087C352.69 85.9917 352.282 85.866 351.936 85.71C351.589 85.554 351.299 85.359 351.065 85.125C350.831 84.891 350.657 84.6267 350.545 84.332C350.432 84.0287 350.376 83.6907 350.376 83.318C350.376 82.954 350.454 82.616 350.61 82.304C350.774 81.992 350.995 81.7233 351.273 81.498C351.559 81.264 351.892 81.0863 352.274 80.965C352.655 80.835 353.067 80.77 353.509 80.77C353.977 80.77 354.406 80.8307 354.796 80.952C355.186 81.0733 355.532 81.2553 355.836 81.498C356.139 81.732 356.39 82.0223 356.59 82.369L355.602 83.344C355.428 83.058 355.233 82.8197 355.017 82.629C354.8 82.4297 354.562 82.2823 354.302 82.187C354.042 82.083 353.764 82.031 353.47 82.031C353.132 82.031 352.837 82.083 352.586 82.187C352.334 82.291 352.135 82.4383 351.988 82.629C351.849 82.811 351.78 83.0277 351.78 83.279C351.78 83.461 351.814 83.63 351.884 83.786C351.953 83.9333 352.057 84.0677 352.196 84.189C352.343 84.3017 352.538 84.4057 352.781 84.501C353.023 84.5877 353.314 84.6657 353.652 84.735C354.128 84.839 354.553 84.9733 354.926 85.138C355.298 85.294 355.615 85.4803 355.875 85.697C356.135 85.9137 356.33 86.1563 356.46 86.425C356.598 86.6937 356.668 86.984 356.668 87.296C356.668 87.8767 356.533 88.3793 356.265 88.804C355.996 89.2287 355.615 89.558 355.121 89.792C354.627 90.0173 354.037 90.13 353.353 90.13ZM359.164 90V81.433H360.503V90H359.164ZM357.747 84.475V83.175H362.089V84.475H357.747ZM365.7 90.13C365.215 90.13 364.79 90.0173 364.426 89.792C364.071 89.5667 363.793 89.2503 363.594 88.843C363.403 88.4357 363.308 87.9503 363.308 87.387V83.175H364.647V87.023C364.647 87.4217 364.708 87.7683 364.829 88.063C364.959 88.349 365.141 88.57 365.375 88.726C365.618 88.882 365.908 88.96 366.246 88.96C366.497 88.96 366.727 88.921 366.935 88.843C367.143 88.7563 367.321 88.6393 367.468 88.492C367.624 88.3447 367.745 88.167 367.832 87.959C367.919 87.751 367.962 87.5257 367.962 87.283V83.175H369.301V90H367.962V88.57L368.196 88.414C368.092 88.7347 367.914 89.025 367.663 89.285C367.42 89.545 367.13 89.753 366.792 89.909C366.454 90.0563 366.09 90.13 365.7 90.13ZM374.026 90.13C373.402 90.13 372.843 89.9783 372.349 89.675C371.864 89.363 371.478 88.9427 371.192 88.414C370.906 87.8767 370.763 87.2657 370.763 86.581C370.763 85.8963 370.902 85.2897 371.179 84.761C371.465 84.2237 371.851 83.8033 372.336 83.5C372.821 83.188 373.372 83.032 373.987 83.032C374.325 83.032 374.65 83.0883 374.962 83.201C375.283 83.305 375.569 83.4523 375.82 83.643C376.071 83.825 376.266 84.0287 376.405 84.254C376.552 84.4707 376.626 84.6917 376.626 84.917L376.236 84.943V80.38H377.575V90H376.236V88.375H376.496C376.496 88.583 376.427 88.791 376.288 88.999C376.149 89.1983 375.963 89.3847 375.729 89.558C375.504 89.7313 375.239 89.87 374.936 89.974C374.641 90.078 374.338 90.13 374.026 90.13ZM374.208 88.973C374.615 88.973 374.975 88.869 375.287 88.661C375.599 88.453 375.842 88.1713 376.015 87.816C376.197 87.452 376.288 87.0403 376.288 86.581C376.288 86.1217 376.197 85.7143 376.015 85.359C375.842 84.995 375.599 84.709 375.287 84.501C374.975 84.293 374.615 84.189 374.208 84.189C373.801 84.189 373.441 84.293 373.129 84.501C372.817 84.709 372.57 84.995 372.388 85.359C372.215 85.7143 372.128 86.1217 372.128 86.581C372.128 87.0403 372.215 87.452 372.388 87.816C372.57 88.1713 372.817 88.453 373.129 88.661C373.441 88.869 373.801 88.973 374.208 88.973ZM382.603 90.13C381.901 90.13 381.277 89.9827 380.731 89.688C380.194 89.3847 379.769 88.973 379.457 88.453C379.154 87.933 379.002 87.335 379.002 86.659C379.002 86.1217 379.089 85.632 379.262 85.19C379.436 84.748 379.674 84.3667 379.977 84.046C380.289 83.7167 380.658 83.4653 381.082 83.292C381.516 83.11 381.984 83.019 382.486 83.019C382.928 83.019 383.34 83.1057 383.721 83.279C384.103 83.4437 384.432 83.6733 384.709 83.968C384.995 84.2627 385.212 84.6137 385.359 85.021C385.515 85.4197 385.589 85.8573 385.58 86.334L385.567 86.906H379.99L379.691 85.84H384.41L384.215 86.061V85.749C384.189 85.463 384.094 85.2073 383.929 84.982C383.765 84.7567 383.557 84.579 383.305 84.449C383.054 84.319 382.781 84.254 382.486 84.254C382.018 84.254 381.624 84.345 381.303 84.527C380.983 84.7003 380.74 84.9603 380.575 85.307C380.411 85.645 380.328 86.0653 380.328 86.568C380.328 87.0447 380.428 87.4607 380.627 87.816C380.827 88.1627 381.108 88.4313 381.472 88.622C381.836 88.8127 382.257 88.908 382.733 88.908C383.071 88.908 383.383 88.8517 383.669 88.739C383.964 88.6263 384.28 88.4227 384.618 88.128L385.294 89.077C385.086 89.285 384.831 89.467 384.527 89.623C384.233 89.779 383.916 89.9047 383.578 90C383.249 90.0867 382.924 90.13 382.603 90.13ZM387.036 90V83.175H388.375V84.579L388.141 84.735C388.227 84.4317 388.396 84.1543 388.648 83.903C388.899 83.643 389.198 83.435 389.545 83.279C389.891 83.1143 390.247 83.032 390.611 83.032C391.131 83.032 391.564 83.136 391.911 83.344C392.257 83.5433 392.517 83.851 392.691 84.267C392.864 84.683 392.951 85.2073 392.951 85.84V90H391.612V85.931C391.612 85.541 391.56 85.2203 391.456 84.969C391.352 84.709 391.191 84.5227 390.975 84.41C390.758 84.2887 390.489 84.2367 390.169 84.254C389.909 84.254 389.67 84.2973 389.454 84.384C389.237 84.462 389.046 84.5747 388.882 84.722C388.726 84.8693 388.6 85.0427 388.505 85.242C388.418 85.4327 388.375 85.6407 388.375 85.866V90H387.712C387.599 90 387.486 90 387.374 90C387.261 90 387.148 90 387.036 90ZM395.612 90V81.433H396.951V90H395.612ZM394.195 84.475V83.175H398.537V84.475H394.195Z" fill="black"/>
<path d="M11.5166 107V101.08H12.3406V103.664L12.1966 103.76C12.2499 103.573 12.3539 103.403 12.5086 103.248C12.6633 103.088 12.8473 102.96 13.0606 102.864C13.2739 102.763 13.4926 102.712 13.7166 102.712C14.0366 102.712 14.3033 102.776 14.5166 102.904C14.7299 103.027 14.8899 103.216 14.9966 103.472C15.1033 103.728 15.1566 104.051 15.1566 104.44V107H14.3326V104.496C14.3326 104.256 14.3006 104.059 14.2366 103.904C14.1726 103.744 14.0739 103.629 13.9406 103.56C13.8073 103.485 13.6419 103.453 13.4446 103.464C13.2846 103.464 13.1379 103.491 13.0046 103.544C12.8713 103.592 12.7539 103.661 12.6526 103.752C12.5566 103.843 12.4793 103.949 12.4206 104.072C12.3673 104.189 12.3406 104.317 12.3406 104.456V107H11.9326C11.8633 107 11.7939 107 11.7246 107C11.6553 107 11.5859 107 11.5166 107ZM16.7944 107V101.728H17.6184V107H16.7944ZM15.9224 103.6V102.8H18.5944V103.6H15.9224ZM19.8647 107V101.728H20.6887V107H19.8647ZM18.9927 103.6V102.8H21.6647V103.6H18.9927ZM22.415 108.76V102.8H23.247V103.76L23.119 103.688C23.151 103.528 23.2417 103.376 23.391 103.232C23.5404 103.083 23.7217 102.963 23.935 102.872C24.1537 102.776 24.3777 102.728 24.607 102.728C24.9857 102.728 25.3217 102.821 25.615 103.008C25.9084 103.195 26.1404 103.451 26.311 103.776C26.4817 104.101 26.567 104.475 26.567 104.896C26.567 105.312 26.4817 105.685 26.311 106.016C26.1457 106.341 25.9164 106.6 25.623 106.792C25.3297 106.979 24.999 107.072 24.631 107.072C24.3857 107.072 24.1484 107.024 23.919 106.928C23.6897 106.827 23.495 106.699 23.335 106.544C23.175 106.389 23.0764 106.229 23.039 106.064L23.247 105.952V108.76H22.415ZM24.495 106.312C24.7404 106.312 24.959 106.251 25.151 106.128C25.343 106.005 25.495 105.837 25.607 105.624C25.719 105.411 25.775 105.168 25.775 104.896C25.775 104.624 25.719 104.384 25.607 104.176C25.5004 103.963 25.351 103.795 25.159 103.672C24.967 103.549 24.7457 103.488 24.495 103.488C24.2444 103.488 24.023 103.549 23.831 103.672C23.639 103.789 23.487 103.955 23.375 104.168C23.263 104.381 23.207 104.624 23.207 104.896C23.207 105.168 23.263 105.411 23.375 105.624C23.487 105.837 23.639 106.005 23.831 106.128C24.023 106.251 24.2444 106.312 24.495 106.312ZM28.8619 107.08C28.5099 107.08 28.1926 107.019 27.9099 106.896C27.6272 106.773 27.3926 106.592 27.2059 106.352L27.7659 105.872C27.9259 106.059 28.0992 106.195 28.2859 106.28C28.4779 106.36 28.6939 106.4 28.9339 106.4C29.0299 106.4 29.1179 106.389 29.1979 106.368C29.2832 106.341 29.3552 106.304 29.4139 106.256C29.4779 106.208 29.5259 106.152 29.5579 106.088C29.5899 106.019 29.6059 105.944 29.6059 105.864C29.6059 105.725 29.5552 105.613 29.4539 105.528C29.4006 105.491 29.3152 105.451 29.1979 105.408C29.0859 105.36 28.9392 105.312 28.7579 105.264C28.4486 105.184 28.1952 105.093 27.9979 104.992C27.8006 104.891 27.6486 104.776 27.5419 104.648C27.4619 104.547 27.4032 104.437 27.3659 104.32C27.3286 104.197 27.3099 104.064 27.3099 103.92C27.3099 103.744 27.3472 103.584 27.4219 103.44C27.5019 103.291 27.6086 103.163 27.7419 103.056C27.8806 102.944 28.0406 102.859 28.2219 102.8C28.4086 102.741 28.6059 102.712 28.8139 102.712C29.0112 102.712 29.2059 102.739 29.3979 102.792C29.5952 102.845 29.7766 102.923 29.9419 103.024C30.1072 103.125 30.2459 103.245 30.3579 103.384L29.8859 103.904C29.7846 103.803 29.6726 103.715 29.5499 103.64C29.4326 103.56 29.3126 103.499 29.1899 103.456C29.0672 103.413 28.9552 103.392 28.8539 103.392C28.7419 103.392 28.6406 103.403 28.5499 103.424C28.4592 103.445 28.3819 103.477 28.3179 103.52C28.2592 103.563 28.2139 103.616 28.1819 103.68C28.1499 103.744 28.1339 103.816 28.1339 103.896C28.1392 103.965 28.1552 104.032 28.1819 104.096C28.2139 104.155 28.2566 104.205 28.3099 104.248C28.3686 104.291 28.4566 104.336 28.5739 104.384C28.6912 104.432 28.8406 104.477 29.0219 104.52C29.2886 104.589 29.5072 104.667 29.6779 104.752C29.8539 104.832 29.9926 104.925 30.0939 105.032C30.2006 105.133 30.2752 105.251 30.3179 105.384C30.3606 105.517 30.3819 105.667 30.3819 105.832C30.3819 106.072 30.3126 106.288 30.1739 106.48C30.0406 106.667 29.8592 106.813 29.6299 106.92C29.4006 107.027 29.1446 107.08 28.8619 107.08ZM31.626 107.08C31.45 107.08 31.314 107.029 31.218 106.928C31.122 106.821 31.074 106.672 31.074 106.48C31.074 106.304 31.1247 106.16 31.226 106.048C31.3274 105.936 31.4607 105.88 31.626 105.88C31.802 105.88 31.938 105.933 32.034 106.04C32.13 106.141 32.178 106.288 32.178 106.48C32.178 106.656 32.1274 106.8 32.026 106.912C31.9247 107.024 31.7914 107.08 31.626 107.08ZM31.626 103.92C31.45 103.92 31.314 103.869 31.218 103.768C31.122 103.661 31.074 103.512 31.074 103.32C31.074 103.144 31.1247 103 31.226 102.888C31.3274 102.776 31.4607 102.72 31.626 102.72C31.802 102.72 31.938 102.773 32.034 102.88C32.13 102.981 32.178 103.128 32.178 103.32C32.178 103.496 32.1274 103.64 32.026 103.752C31.9247 103.864 31.7914 103.92 31.626 103.92ZM32.6783 108.056L35.9743 101.4H36.7663L33.4783 108.056H32.6783ZM36.3971 108.056L39.6931 101.4H40.4851L37.1971 108.056H36.3971ZM41.2822 107V102.8H42.1142V104.12L42.0342 103.8C42.0929 103.597 42.1916 103.413 42.3302 103.248C42.4742 103.083 42.6369 102.952 42.8182 102.856C43.0049 102.76 43.1969 102.712 43.3942 102.712C43.4849 102.712 43.5702 102.72 43.6502 102.736C43.7356 102.752 43.8022 102.771 43.8502 102.792L43.6342 103.688C43.5702 103.661 43.4982 103.64 43.4182 103.624C43.3436 103.603 43.2689 103.592 43.1942 103.592C43.0502 103.592 42.9116 103.621 42.7782 103.68C42.6502 103.733 42.5356 103.811 42.4342 103.912C42.3382 104.008 42.2609 104.123 42.2022 104.256C42.1436 104.384 42.1142 104.525 42.1142 104.68V107H41.2822ZM44.6448 107V102.8H45.4688V107H44.6448ZM45.0448 101.872C44.8688 101.872 44.7328 101.827 44.6368 101.736C44.5408 101.645 44.4928 101.517 44.4928 101.352C44.4928 101.197 44.5408 101.072 44.6368 100.976C44.7381 100.88 44.8741 100.832 45.0448 100.832C45.2208 100.832 45.3568 100.877 45.4528 100.968C45.5488 101.059 45.5968 101.187 45.5968 101.352C45.5968 101.507 45.5461 101.632 45.4448 101.728C45.3488 101.824 45.2155 101.872 45.0448 101.872ZM48.5193 107.08C48.13 107.08 47.7807 106.984 47.4713 106.792C47.1673 106.6 46.9247 106.339 46.7433 106.008C46.5673 105.677 46.4793 105.307 46.4793 104.896C46.4793 104.485 46.5673 104.115 46.7433 103.784C46.9247 103.453 47.1673 103.192 47.4713 103C47.7807 102.808 48.13 102.712 48.5193 102.712C48.8927 102.712 49.2313 102.789 49.5353 102.944C49.8447 103.093 50.0793 103.299 50.2393 103.56L49.7833 104.12C49.698 103.997 49.5887 103.885 49.4553 103.784C49.322 103.683 49.1807 103.603 49.0313 103.544C48.882 103.485 48.738 103.456 48.5993 103.456C48.3433 103.456 48.114 103.52 47.9113 103.648C47.714 103.771 47.5567 103.941 47.4393 104.16C47.322 104.379 47.2633 104.624 47.2633 104.896C47.2633 105.168 47.3247 105.413 47.4473 105.632C47.57 105.845 47.7327 106.016 47.9353 106.144C48.138 106.272 48.362 106.336 48.6073 106.336C48.7513 106.336 48.89 106.312 49.0233 106.264C49.162 106.216 49.2953 106.144 49.4233 106.048C49.5513 105.952 49.6713 105.835 49.7833 105.696L50.2393 106.256C50.0687 106.496 49.8233 106.693 49.5033 106.848C49.1887 107.003 48.8607 107.08 48.5193 107.08ZM51.7686 105.688L51.7286 104.792L53.7366 102.8H54.8486L51.7686 105.688ZM51.0166 107V101.08H51.8406V107H51.0166ZM53.8486 107L52.2646 105.152L52.8486 104.616L54.9046 107H53.8486ZM56.2675 108.84L57.1155 106.88L57.1235 107.536L55.0275 102.8H55.9875L57.2995 105.888C57.3261 105.941 57.3581 106.024 57.3955 106.136C57.4328 106.243 57.4648 106.349 57.4915 106.456L57.2835 106.504C57.3261 106.392 57.3661 106.28 57.4035 106.168C57.4461 106.056 57.4861 105.944 57.5235 105.832L58.6195 102.8H59.5955L57.8675 107L57.1555 108.84H56.2675ZM60.2119 107V102.8H61.0359V103.664L60.8919 103.76C60.9452 103.573 61.0492 103.403 61.2039 103.248C61.3586 103.088 61.5426 102.96 61.7559 102.864C61.9692 102.763 62.1879 102.712 62.4119 102.712C62.7319 102.712 62.9986 102.776 63.2119 102.904C63.4252 103.027 63.5852 103.216 63.6919 103.472C63.7986 103.728 63.8519 104.051 63.8519 104.44V107H63.0279V104.496C63.0279 104.256 62.9959 104.059 62.9319 103.904C62.8679 103.744 62.7692 103.629 62.6359 103.56C62.5026 103.485 62.3372 103.453 62.1399 103.464C61.9799 103.464 61.8332 103.491 61.6999 103.544C61.5666 103.592 61.4492 103.661 61.3479 103.752C61.2519 103.843 61.1746 103.949 61.1159 104.072C61.0626 104.189 61.0359 104.317 61.0359 104.456V107H60.6279C60.5586 107 60.4892 107 60.4199 107C60.3506 107 60.2812 107 60.2119 107ZM66.8497 108.84C66.5511 108.84 66.2524 108.792 65.9537 108.696C65.6604 108.605 65.4231 108.485 65.2417 108.336L65.5457 107.696C65.6524 107.776 65.7777 107.845 65.9217 107.904C66.0657 107.968 66.2177 108.016 66.3777 108.048C66.5377 108.085 66.6951 108.104 66.8497 108.104C67.1431 108.104 67.3884 108.056 67.5857 107.96C67.7831 107.864 67.9324 107.723 68.0337 107.536C68.1351 107.349 68.1857 107.117 68.1857 106.84V106.032L68.2737 106.088C68.2471 106.253 68.1591 106.413 68.0097 106.568C67.8657 106.717 67.6844 106.84 67.4657 106.936C67.2471 107.032 67.0231 107.08 66.7937 107.08C66.3937 107.08 66.0364 106.987 65.7217 106.8C65.4124 106.608 65.1671 106.349 64.9857 106.024C64.8044 105.693 64.7137 105.317 64.7137 104.896C64.7137 104.475 64.8017 104.101 64.9777 103.776C65.1591 103.445 65.4044 103.187 65.7137 103C66.0284 102.808 66.3804 102.712 66.7697 102.712C66.9297 102.712 67.0844 102.733 67.2337 102.776C67.3831 102.813 67.5217 102.869 67.6497 102.944C67.7777 103.013 67.8924 103.091 67.9937 103.176C68.0951 103.261 68.1777 103.352 68.2417 103.448C68.3057 103.544 68.3457 103.635 68.3617 103.72L68.1857 103.784V102.8H69.0097V106.744C69.0097 107.08 68.9591 107.376 68.8577 107.632C68.7617 107.893 68.6204 108.112 68.4337 108.288C68.2471 108.469 68.0204 108.605 67.7537 108.696C67.4871 108.792 67.1857 108.84 66.8497 108.84ZM66.8817 106.32C67.1431 106.32 67.3751 106.259 67.5777 106.136C67.7804 106.013 67.9377 105.845 68.0497 105.632C68.1617 105.419 68.2177 105.173 68.2177 104.896C68.2177 104.619 68.1591 104.373 68.0417 104.16C67.9297 103.941 67.7724 103.771 67.5697 103.648C67.3724 103.525 67.1431 103.464 66.8817 103.464C66.6257 103.464 66.3964 103.528 66.1937 103.656C65.9964 103.779 65.8391 103.949 65.7217 104.168C65.6097 104.381 65.5537 104.624 65.5537 104.896C65.5537 105.168 65.6097 105.413 65.7217 105.632C65.8391 105.845 65.9964 106.013 66.1937 106.136C66.3964 106.259 66.6257 106.32 66.8817 106.32ZM71.5745 107.08C71.2759 107.08 71.0145 107.011 70.7905 106.872C70.5719 106.733 70.4012 106.539 70.2785 106.288C70.1612 106.037 70.1025 105.739 70.1025 105.392V102.8H70.9265V105.168C70.9265 105.413 70.9639 105.627 71.0385 105.808C71.1185 105.984 71.2305 106.12 71.3745 106.216C71.5239 106.312 71.7025 106.36 71.9105 106.36C72.0652 106.36 72.2065 106.336 72.3345 106.288C72.4625 106.235 72.5719 106.163 72.6625 106.072C72.7585 105.981 72.8332 105.872 72.8865 105.744C72.9399 105.616 72.9665 105.477 72.9665 105.328V102.8H73.7905V107H72.9665V106.12L73.1105 106.024C73.0465 106.221 72.9372 106.4 72.7825 106.56C72.6332 106.72 72.4545 106.848 72.2465 106.944C72.0385 107.035 71.8145 107.08 71.5745 107.08ZM75.6503 108.84L76.4983 106.88L76.5063 107.536L74.4103 102.8H75.3703L76.6823 105.888C76.709 105.941 76.741 106.024 76.7783 106.136C76.8156 106.243 76.8476 106.349 76.8743 106.456L76.6663 106.504C76.709 106.392 76.749 106.28 76.7863 106.168C76.829 106.056 76.869 105.944 76.9063 105.832L78.0023 102.8H78.9783L77.2503 107L76.5383 108.84H75.6503ZM81.4766 107.08C81.0446 107.08 80.6606 106.989 80.3246 106.808C79.9939 106.621 79.7326 106.368 79.5406 106.048C79.3539 105.728 79.2606 105.36 79.2606 104.944C79.2606 104.613 79.3139 104.312 79.4206 104.04C79.5273 103.768 79.6739 103.533 79.8606 103.336C80.0526 103.133 80.2793 102.979 80.5406 102.872C80.8073 102.76 81.0953 102.704 81.4046 102.704C81.6766 102.704 81.9299 102.757 82.1646 102.864C82.3993 102.965 82.6019 103.107 82.7726 103.288C82.9486 103.469 83.0819 103.685 83.1726 103.936C83.2686 104.181 83.3139 104.451 83.3086 104.744L83.3006 105.096H79.8686L79.6846 104.44H82.5886L82.4686 104.576V104.384C82.4526 104.208 82.3939 104.051 82.2926 103.912C82.1913 103.773 82.0633 103.664 81.9086 103.584C81.7539 103.504 81.5859 103.464 81.4046 103.464C81.1166 103.464 80.8739 103.52 80.6766 103.632C80.4793 103.739 80.3299 103.899 80.2286 104.112C80.1273 104.32 80.0766 104.579 80.0766 104.888C80.0766 105.181 80.1379 105.437 80.2606 105.656C80.3833 105.869 80.5566 106.035 80.7806 106.152C81.0046 106.269 81.2633 106.328 81.5566 106.328C81.7646 106.328 81.9566 106.293 82.1326 106.224C82.3139 106.155 82.5086 106.029 82.7166 105.848L83.1326 106.432C83.0046 106.56 82.8473 106.672 82.6606 106.768C82.4793 106.864 82.2846 106.941 82.0766 107C81.8739 107.053 81.6739 107.08 81.4766 107.08ZM84.2041 107V102.8H85.0281V103.664L84.8841 103.76C84.9374 103.573 85.0414 103.403 85.1961 103.248C85.3508 103.088 85.5348 102.96 85.7481 102.864C85.9614 102.763 86.1801 102.712 86.4041 102.712C86.7241 102.712 86.9908 102.776 87.2041 102.904C87.4174 103.027 87.5774 103.216 87.6841 103.472C87.7908 103.728 87.8441 104.051 87.8441 104.44V107H87.0201V104.496C87.0201 104.256 86.9881 104.059 86.9241 103.904C86.8601 103.744 86.7614 103.629 86.6281 103.56C86.4948 103.485 86.3294 103.453 86.1321 103.464C85.9721 103.464 85.8254 103.491 85.6921 103.544C85.5588 103.592 85.4414 103.661 85.3401 103.752C85.2441 103.843 85.1668 103.949 85.1081 104.072C85.0548 104.189 85.0281 104.317 85.0281 104.456V107H84.6201C84.5508 107 84.4814 107 84.4121 107C84.3428 107 84.2734 107 84.2041 107ZM89.2979 107.088C89.1219 107.088 88.9859 107.037 88.8899 106.936C88.7939 106.829 88.7459 106.68 88.7459 106.488C88.7459 106.312 88.7966 106.168 88.8979 106.056C88.9992 105.944 89.1326 105.888 89.2979 105.888C89.4739 105.888 89.6099 105.941 89.7059 106.048C89.8019 106.149 89.8499 106.296 89.8499 106.488C89.8499 106.664 89.7992 106.808 89.6979 106.92C89.5966 107.032 89.4632 107.088 89.2979 107.088ZM92.5342 107.08C92.1502 107.08 91.8062 106.987 91.5022 106.8C91.2036 106.608 90.9662 106.349 90.7902 106.024C90.6142 105.693 90.5262 105.317 90.5262 104.896C90.5262 104.475 90.6116 104.101 90.7822 103.776C90.9582 103.445 91.1956 103.187 91.4942 103C91.7929 102.808 92.1316 102.712 92.5102 102.712C92.7182 102.712 92.9182 102.747 93.1102 102.816C93.3076 102.88 93.4836 102.971 93.6382 103.088C93.7929 103.2 93.9129 103.325 93.9982 103.464C94.0889 103.597 94.1342 103.733 94.1342 103.872L93.8942 103.888V101.08H94.7182V107H93.8942V106H94.0542C94.0542 106.128 94.0116 106.256 93.9262 106.384C93.8409 106.507 93.7262 106.621 93.5822 106.728C93.4436 106.835 93.2809 106.92 93.0942 106.984C92.9129 107.048 92.7262 107.08 92.5342 107.08ZM92.6462 106.368C92.8969 106.368 93.1182 106.304 93.3102 106.176C93.5022 106.048 93.6516 105.875 93.7582 105.656C93.8702 105.432 93.9262 105.179 93.9262 104.896C93.9262 104.613 93.8702 104.363 93.7582 104.144C93.6516 103.92 93.5022 103.744 93.3102 103.616C93.1182 103.488 92.8969 103.424 92.6462 103.424C92.3956 103.424 92.1742 103.488 91.9822 103.616C91.7902 103.744 91.6382 103.92 91.5262 104.144C91.4196 104.363 91.3662 104.613 91.3662 104.896C91.3662 105.179 91.4196 105.432 91.5262 105.656C91.6382 105.875 91.7902 106.048 91.9822 106.176C92.1742 106.304 92.3956 106.368 92.6462 106.368ZM97.8125 107.08C97.3805 107.08 96.9965 106.989 96.6605 106.808C96.3299 106.621 96.0685 106.368 95.8765 106.048C95.6899 105.728 95.5965 105.36 95.5965 104.944C95.5965 104.613 95.6499 104.312 95.7565 104.04C95.8632 103.768 96.0099 103.533 96.1965 103.336C96.3885 103.133 96.6152 102.979 96.8765 102.872C97.1432 102.76 97.4312 102.704 97.7405 102.704C98.0125 102.704 98.2659 102.757 98.5005 102.864C98.7352 102.965 98.9379 103.107 99.1085 103.288C99.2845 103.469 99.4179 103.685 99.5085 103.936C99.6045 104.181 99.6499 104.451 99.6445 104.744L99.6365 105.096H96.2045L96.0205 104.44H98.9245L98.8045 104.576V104.384C98.7885 104.208 98.7299 104.051 98.6285 103.912C98.5272 103.773 98.3992 103.664 98.2445 103.584C98.0899 103.504 97.9219 103.464 97.7405 103.464C97.4525 103.464 97.2099 103.52 97.0125 103.632C96.8152 103.739 96.6659 103.899 96.5645 104.112C96.4632 104.32 96.4125 104.579 96.4125 104.888C96.4125 105.181 96.4739 105.437 96.5965 105.656C96.7192 105.869 96.8925 106.035 97.1165 106.152C97.3405 106.269 97.5992 106.328 97.8925 106.328C98.1005 106.328 98.2925 106.293 98.4685 106.224C98.6499 106.155 98.8445 106.029 99.0525 105.848L99.4685 106.432C99.3405 106.56 99.1832 106.672 98.9965 106.768C98.8152 106.864 98.6205 106.941 98.4125 107C98.2099 107.053 98.0099 107.08 97.8125 107.08ZM101.838 107L100.062 102.8H100.95L102.23 105.944L102.078 106.016L103.446 102.8H104.294L102.43 107H101.838Z" fill="#B8C1EC"/>
<path d="M126.693 107V102.8H127.517V103.664L127.373 103.76C127.426 103.573 127.53 103.403 127.685 103.248C127.839 103.088 128.023 102.96 128.237 102.864C128.45 102.763 128.669 102.712 128.893 102.712C129.213 102.712 129.479 102.776 129.693 102.904C129.906 103.027 130.066 103.216 130.173 103.472C130.279 103.728 130.333 104.051 130.333 104.44V107H129.509V104.496C129.509 104.256 129.477 104.059 129.413 103.904C129.349 103.744 129.25 103.629 129.117 103.56C128.983 103.485 128.818 103.453 128.621 103.464C128.461 103.464 128.314 103.491 128.181 103.544C128.047 103.592 127.93 103.661 127.829 103.752C127.733 103.843 127.655 103.949 127.597 104.072C127.543 104.189 127.517 104.317 127.517 104.456V107H127.109C127.039 107 126.97 107 126.901 107C126.831 107 126.762 107 126.693 107ZM133.33 108.84C133.032 108.84 132.733 108.792 132.434 108.696C132.141 108.605 131.904 108.485 131.722 108.336L132.026 107.696C132.133 107.776 132.258 107.845 132.402 107.904C132.546 107.968 132.698 108.016 132.858 108.048C133.018 108.085 133.176 108.104 133.33 108.104C133.624 108.104 133.869 108.056 134.066 107.96C134.264 107.864 134.413 107.723 134.514 107.536C134.616 107.349 134.666 107.117 134.666 106.84V106.032L134.754 106.088C134.728 106.253 134.64 106.413 134.49 106.568C134.346 106.717 134.165 106.84 133.946 106.936C133.728 107.032 133.504 107.08 133.274 107.08C132.874 107.08 132.517 106.987 132.202 106.8C131.893 106.608 131.648 106.349 131.466 106.024C131.285 105.693 131.194 105.317 131.194 104.896C131.194 104.475 131.282 104.101 131.458 103.776C131.64 103.445 131.885 103.187 132.194 103C132.509 102.808 132.861 102.712 133.25 102.712C133.41 102.712 133.565 102.733 133.714 102.776C133.864 102.813 134.002 102.869 134.13 102.944C134.258 103.013 134.373 103.091 134.474 103.176C134.576 103.261 134.658 103.352 134.722 103.448C134.786 103.544 134.826 103.635 134.842 103.72L134.666 103.784V102.8H135.49V106.744C135.49 107.08 135.44 107.376 135.338 107.632C135.242 107.893 135.101 108.112 134.914 108.288C134.728 108.469 134.501 108.605 134.234 108.696C133.968 108.792 133.666 108.84 133.33 108.84ZM133.362 106.32C133.624 106.32 133.856 106.259 134.058 106.136C134.261 106.013 134.418 105.845 134.53 105.632C134.642 105.419 134.698 105.173 134.698 104.896C134.698 104.619 134.64 104.373 134.522 104.16C134.41 103.941 134.253 103.771 134.05 103.648C133.853 103.525 133.624 103.464 133.362 103.464C133.106 103.464 132.877 103.528 132.674 103.656C132.477 103.779 132.32 103.949 132.202 104.168C132.09 104.381 132.034 104.624 132.034 104.896C132.034 105.168 132.09 105.413 132.202 105.632C132.32 105.845 132.477 106.013 132.674 106.136C132.877 106.259 133.106 106.32 133.362 106.32ZM138.055 107.08C137.757 107.08 137.495 107.011 137.271 106.872C137.053 106.733 136.882 106.539 136.759 106.288C136.642 106.037 136.583 105.739 136.583 105.392V102.8H137.407V105.168C137.407 105.413 137.445 105.627 137.519 105.808C137.599 105.984 137.711 106.12 137.855 106.216C138.005 106.312 138.183 106.36 138.391 106.36C138.546 106.36 138.687 106.336 138.815 106.288C138.943 106.235 139.053 106.163 139.143 106.072C139.239 105.981 139.314 105.872 139.367 105.744C139.421 105.616 139.447 105.477 139.447 105.328V102.8H140.271V107H139.447V106.12L139.591 106.024C139.527 106.221 139.418 106.4 139.263 106.56C139.114 106.72 138.935 106.848 138.727 106.944C138.519 107.035 138.295 107.08 138.055 107.08ZM142.131 108.84L142.979 106.88L142.987 107.536L140.891 102.8H141.851L143.163 105.888C143.19 105.941 143.222 106.024 143.259 106.136C143.296 106.243 143.328 106.349 143.355 106.456L143.147 106.504C143.19 106.392 143.23 106.28 143.267 106.168C143.31 106.056 143.35 105.944 143.387 105.832L144.483 102.8H145.459L143.731 107L143.019 108.84H142.131ZM146.075 107V102.8H146.907V104.12L146.827 103.8C146.886 103.597 146.985 103.413 147.123 103.248C147.267 103.083 147.43 102.952 147.611 102.856C147.798 102.76 147.99 102.712 148.187 102.712C148.278 102.712 148.363 102.72 148.443 102.736C148.529 102.752 148.595 102.771 148.643 102.792L148.427 103.688C148.363 103.661 148.291 103.64 148.211 103.624C148.137 103.603 148.062 103.592 147.987 103.592C147.843 103.592 147.705 103.621 147.571 103.68C147.443 103.733 147.329 103.811 147.227 103.912C147.131 104.008 147.054 104.123 146.995 104.256C146.937 104.384 146.907 104.525 146.907 104.68V107H146.075ZM149.438 107V102.8H150.262V107H149.438ZM149.838 101.872C149.662 101.872 149.526 101.827 149.43 101.736C149.334 101.645 149.286 101.517 149.286 101.352C149.286 101.197 149.334 101.072 149.43 100.976C149.531 100.88 149.667 100.832 149.838 100.832C150.014 100.832 150.15 100.877 150.246 100.968C150.342 101.059 150.39 101.187 150.39 101.352C150.39 101.507 150.339 101.632 150.238 101.728C150.142 101.824 150.009 101.872 149.838 101.872ZM153.313 107.08C152.923 107.08 152.574 106.984 152.265 106.792C151.961 106.6 151.718 106.339 151.537 106.008C151.361 105.677 151.273 105.307 151.273 104.896C151.273 104.485 151.361 104.115 151.537 103.784C151.718 103.453 151.961 103.192 152.265 103C152.574 102.808 152.923 102.712 153.313 102.712C153.686 102.712 154.025 102.789 154.329 102.944C154.638 103.093 154.873 103.299 155.033 103.56L154.577 104.12C154.491 103.997 154.382 103.885 154.249 103.784C154.115 103.683 153.974 103.603 153.825 103.544C153.675 103.485 153.531 103.456 153.393 103.456C153.137 103.456 152.907 103.52 152.705 103.648C152.507 103.771 152.35 103.941 152.233 104.16C152.115 104.379 152.057 104.624 152.057 104.896C152.057 105.168 152.118 105.413 152.241 105.632C152.363 105.845 152.526 106.016 152.729 106.144C152.931 106.272 153.155 106.336 153.401 106.336C153.545 106.336 153.683 106.312 153.817 106.264C153.955 106.216 154.089 106.144 154.217 106.048C154.345 105.952 154.465 105.835 154.577 105.696L155.033 106.256C154.862 106.496 154.617 106.693 154.297 106.848C153.982 107.003 153.654 107.08 153.313 107.08ZM156.562 105.688L156.522 104.792L158.53 102.8H159.642L156.562 105.688ZM155.81 107V101.08H156.634V107H155.81ZM158.642 107L157.058 105.152L157.642 104.616L159.698 107H158.642ZM161.061 108.84L161.909 106.88L161.917 107.536L159.821 102.8H160.781L162.093 105.888C162.119 105.941 162.151 106.024 162.189 106.136C162.226 106.243 162.258 106.349 162.285 106.456L162.077 106.504C162.119 106.392 162.159 106.28 162.197 106.168C162.239 106.056 162.279 105.944 162.317 105.832L163.413 102.8H164.389L162.661 107L161.949 108.84H161.061Z" fill="#B8C1EC"/>
<path d="M5.68533 101C3.75539 101 2.18533 102.57 2.18533 104.5C2.18533 106.43 3.75539 108 5.68533 108C7.61527 108 9.18533 106.43 9.18533 104.5C9.18533 102.57 7.61527 101 5.68533 101ZM7.18759 105.206C7.20695 104.973 7.21757 104.737 7.21757 104.5C7.21757 104.263 7.20695 104.027 7.18759 103.794C8.04963 103.982 8.50791 104.304 8.50791 104.5C8.50791 104.696 8.04963 105.018 7.18759 105.206ZM5.68533 107.323C5.4889 107.323 5.16699 106.864 4.9793 106.002C5.21219 106.022 5.44875 106.032 5.68533 106.032C5.92192 106.032 6.15847 106.022 6.39136 106.002C6.20368 106.864 5.88177 107.323 5.68533 107.323ZM5.68533 105.355C5.39173 105.355 5.12206 105.339 4.87205 105.313C4.84634 105.063 4.83051 104.794 4.83051 104.5C4.83051 104.206 4.84635 103.937 4.87205 103.687C5.12206 103.661 5.39173 103.645 5.68533 103.645C5.97893 103.645 6.24861 103.661 6.49862 103.687C6.52432 103.937 6.54016 104.206 6.54016 104.5C6.54016 104.794 6.52432 105.063 6.49862 105.313C6.24861 105.339 5.97893 105.355 5.68533 105.355ZM2.86275 104.5C2.86275 104.304 3.32104 103.982 4.18308 103.794C4.16372 104.027 4.15309 104.263 4.15309 104.5C4.15309 104.737 4.16372 104.973 4.18308 105.206C3.32104 105.018 2.86275 104.696 2.86275 104.5ZM5.68533 101.677C5.88177 101.677 6.20368 102.136 6.39136 102.998C6.15847 102.978 5.92192 102.968 5.68533 102.968C5.44875 102.968 5.21219 102.978 4.9793 102.998C5.16699 102.136 5.4889 101.677 5.68533 101.677ZM8.30333 103.45C7.96428 103.29 7.54843 103.17 7.096 103.089C7.01532 102.637 6.89532 102.221 6.73505 101.882C7.44779 102.169 8.01648 102.738 8.30333 103.45ZM4.63562 101.882C4.47534 102.221 4.35534 102.637 4.27466 103.089C3.82225 103.17 3.4064 103.29 3.06735 103.45C3.3542 102.738 3.92289 102.169 4.63562 101.882ZM3.06736 105.55C3.40642 105.71 3.82225 105.83 4.27466 105.911C4.35534 106.363 4.47532 106.779 4.6356 107.118C3.92289 106.831 3.35421 106.262 3.06736 105.55ZM6.73506 107.118C6.89535 106.779 7.01532 106.363 7.096 105.911C7.54841 105.83 7.96426 105.71 8.30332 105.55C8.01647 106.262 7.44781 106.831 6.73506 107.118Z" fill="#B8C1EC"/>
<path d="M115.592 101C114.761 101 113.957 101.303 113.324 101.855C112.691 102.408 112.27 103.173 112.137 104.014C112.004 104.855 112.167 105.717 112.597 106.446C113.027 107.175 113.696 107.724 114.485 107.993C114.66 108.025 114.725 107.917 114.725 107.823C114.725 107.737 114.721 107.455 114.721 107.154C113.842 107.32 113.614 106.935 113.544 106.733C113.467 106.536 113.343 106.362 113.185 106.226C113.063 106.159 112.888 105.993 113.181 105.988C113.293 106.001 113.4 106.04 113.494 106.104C113.588 106.168 113.665 106.255 113.719 106.356C113.767 106.444 113.831 106.522 113.909 106.584C113.986 106.647 114.074 106.693 114.169 106.721C114.264 106.748 114.363 106.756 114.46 106.745C114.558 106.733 114.653 106.701 114.739 106.652C114.754 106.469 114.833 106.299 114.962 106.172C114.183 106.082 113.369 105.773 113.369 104.4C113.364 104.043 113.493 103.698 113.728 103.436C113.621 103.126 113.633 102.786 113.763 102.485C113.763 102.485 114.056 102.391 114.725 102.853C115.298 102.691 115.903 102.691 116.475 102.853C117.145 102.386 117.438 102.485 117.438 102.485C117.567 102.786 117.58 103.126 117.473 103.436C117.709 103.698 117.837 104.043 117.832 104.4C117.832 105.777 117.014 106.082 116.235 106.172C116.318 106.259 116.383 106.363 116.423 106.478C116.464 106.592 116.48 106.714 116.471 106.836C116.471 107.316 116.467 107.702 116.467 107.823C116.467 107.917 116.532 108.029 116.707 107.993C117.494 107.721 118.162 107.172 118.59 106.442C119.018 105.713 119.18 104.851 119.046 104.011C118.912 103.171 118.491 102.406 117.858 101.855C117.225 101.303 116.422 101 115.592 101Z" fill="#B8C1EC"/>
<path d="M125.404 104.828C125.404 105.005 125.389 105.185 125.357 105.367C125.329 105.549 125.277 105.715 125.201 105.863C125.128 106.009 125.029 106.129 124.904 106.223C124.779 106.316 124.62 106.363 124.428 106.363C124.357 106.363 124.287 106.35 124.217 106.324C124.149 106.296 124.088 106.257 124.033 106.207C123.978 106.155 123.934 106.094 123.9 106.023C123.866 105.953 123.85 105.876 123.85 105.793V105.754C123.826 105.84 123.792 105.921 123.748 105.996C123.706 106.069 123.656 106.133 123.596 106.188C123.536 106.242 123.469 106.285 123.396 106.316C123.323 106.348 123.245 106.363 123.162 106.363C123.003 106.363 122.869 106.326 122.76 106.25C122.653 106.174 122.567 106.074 122.502 105.949C122.437 105.824 122.39 105.682 122.361 105.523C122.333 105.365 122.318 105.202 122.318 105.035C122.318 104.842 122.339 104.659 122.381 104.484C122.425 104.307 122.489 104.152 122.572 104.02C122.658 103.884 122.762 103.777 122.885 103.699C123.007 103.618 123.148 103.578 123.307 103.578C123.353 103.578 123.402 103.586 123.451 103.602C123.501 103.617 123.547 103.642 123.592 103.676C123.636 103.707 123.675 103.747 123.709 103.797C123.745 103.846 123.773 103.904 123.791 103.969V103.652H124.42V105.586C124.42 105.669 124.433 105.729 124.459 105.766C124.488 105.802 124.524 105.82 124.568 105.82C124.626 105.82 124.674 105.794 124.713 105.742C124.754 105.69 124.788 105.62 124.814 105.531C124.84 105.44 124.859 105.335 124.869 105.215C124.882 105.092 124.889 104.964 124.889 104.828C124.889 104.555 124.863 104.294 124.81 104.047C124.758 103.799 124.675 103.582 124.56 103.395C124.448 103.207 124.3 103.059 124.115 102.949C123.933 102.837 123.712 102.781 123.451 102.781C123.188 102.781 122.964 102.839 122.779 102.953C122.597 103.065 122.448 103.219 122.334 103.414C122.222 103.609 122.14 103.84 122.088 104.105C122.038 104.368 122.014 104.652 122.014 104.957C122.014 105.257 122.038 105.538 122.088 105.801C122.14 106.064 122.222 106.293 122.334 106.488C122.448 106.684 122.597 106.839 122.779 106.953C122.964 107.065 123.188 107.121 123.451 107.121C123.665 107.121 123.855 107.083 124.021 107.008C124.191 106.932 124.346 106.831 124.486 106.703L124.717 107.086C124.383 107.422 123.962 107.59 123.451 107.59C123.212 107.59 122.997 107.557 122.807 107.492C122.619 107.424 122.452 107.331 122.307 107.211C122.163 107.091 122.04 106.949 121.935 106.785C121.834 106.621 121.751 106.441 121.685 106.246C121.62 106.051 121.573 105.844 121.545 105.625C121.514 105.406 121.498 105.184 121.498 104.957C121.498 104.725 121.514 104.5 121.545 104.281C121.576 104.06 121.624 103.852 121.689 103.656C121.754 103.461 121.838 103.281 121.939 103.117C122.044 102.953 122.169 102.812 122.314 102.695C122.46 102.576 122.627 102.483 122.814 102.418C123.002 102.35 123.214 102.316 123.451 102.316C123.685 102.316 123.896 102.35 124.084 102.418C124.274 102.483 124.441 102.574 124.584 102.691C124.73 102.809 124.853 102.947 124.955 103.105C125.059 103.264 125.144 103.438 125.209 103.625C125.277 103.81 125.326 104.005 125.357 104.211C125.389 104.414 125.404 104.62 125.404 104.828ZM123.791 104.391C123.744 104.292 123.687 104.221 123.619 104.18C123.554 104.138 123.489 104.117 123.424 104.117C123.346 104.117 123.278 104.141 123.221 104.188C123.163 104.234 123.115 104.299 123.076 104.383C123.04 104.464 123.012 104.56 122.994 104.672C122.978 104.784 122.971 104.904 122.971 105.031C122.971 105.172 122.978 105.29 122.994 105.387C123.012 105.48 123.037 105.556 123.068 105.613C123.102 105.671 123.143 105.711 123.189 105.734C123.236 105.758 123.29 105.77 123.35 105.77C123.415 105.77 123.475 105.747 123.529 105.703C123.584 105.656 123.631 105.596 123.67 105.523C123.709 105.451 123.739 105.37 123.76 105.281C123.781 105.19 123.791 105.099 123.791 105.008V104.391Z" fill="#B8C1EC"/>
<path d="M178.639 101.5H173.526C173.469 101.499 173.412 101.51 173.358 101.531C173.305 101.552 173.256 101.583 173.215 101.623C173.174 101.663 173.141 101.711 173.118 101.763C173.095 101.815 173.083 101.872 173.083 101.929V107.071C173.083 107.128 173.095 107.185 173.118 107.237C173.141 107.289 173.174 107.337 173.215 107.377C173.256 107.417 173.305 107.448 173.358 107.469C173.412 107.49 173.469 107.501 173.526 107.5H178.639C178.696 107.501 178.753 107.49 178.807 107.469C178.86 107.448 178.909 107.417 178.95 107.377C178.991 107.337 179.024 107.289 179.047 107.237C179.07 107.185 179.082 107.128 179.083 107.071V101.929C179.082 101.872 179.07 101.815 179.047 101.763C179.024 101.711 178.991 101.663 178.95 101.623C178.909 101.583 178.86 101.552 178.807 101.531C178.753 101.51 178.696 101.499 178.639 101.5ZM174.902 106.522H173.997V103.822H174.902V106.522ZM174.45 103.444C174.325 103.444 174.205 103.395 174.117 103.307C174.029 103.219 173.979 103.1 173.979 102.976C173.979 102.852 174.029 102.733 174.117 102.645C174.205 102.557 174.325 102.508 174.45 102.508C174.516 102.501 174.583 102.507 174.647 102.527C174.71 102.547 174.769 102.581 174.819 102.625C174.869 102.669 174.908 102.723 174.936 102.784C174.963 102.844 174.977 102.91 174.977 102.976C174.977 103.042 174.963 103.108 174.936 103.168C174.908 103.229 174.869 103.283 174.819 103.327C174.769 103.372 174.71 103.405 174.647 103.425C174.583 103.445 174.516 103.451 174.45 103.444ZM178.168 106.522H177.263V105.073C177.263 104.71 177.133 104.473 176.804 104.473C176.702 104.474 176.603 104.505 176.52 104.564C176.437 104.622 176.374 104.705 176.339 104.8C176.315 104.871 176.305 104.945 176.309 105.019V106.519H175.403C175.403 106.519 175.403 104.065 175.403 103.819H176.309V104.2C176.391 104.058 176.511 103.941 176.655 103.862C176.799 103.783 176.962 103.744 177.127 103.75C177.73 103.75 178.168 104.137 178.168 104.968V106.522Z" fill="#B8C1EC"/>
<path d="M186.7 107V102.8H187.532V104.12L187.452 103.8C187.511 103.597 187.61 103.413 187.748 103.248C187.892 103.083 188.055 102.952 188.236 102.856C188.423 102.76 188.615 102.712 188.812 102.712C188.903 102.712 188.988 102.72 189.068 102.736C189.154 102.752 189.22 102.771 189.268 102.792L189.052 103.688C188.988 103.661 188.916 103.64 188.836 103.624C188.762 103.603 188.687 103.592 188.612 103.592C188.468 103.592 188.33 103.621 188.196 103.68C188.068 103.733 187.954 103.811 187.852 103.912C187.756 104.008 187.679 104.123 187.62 104.256C187.562 104.384 187.532 104.525 187.532 104.68V107H186.7ZM190.063 107V102.8H190.887V107H190.063ZM190.463 101.872C190.287 101.872 190.151 101.827 190.055 101.736C189.959 101.645 189.911 101.517 189.911 101.352C189.911 101.197 189.959 101.072 190.055 100.976C190.156 100.88 190.292 100.832 190.463 100.832C190.639 100.832 190.775 100.877 190.871 100.968C190.967 101.059 191.015 101.187 191.015 101.352C191.015 101.507 190.964 101.632 190.863 101.728C190.767 101.824 190.634 101.872 190.463 101.872ZM193.938 107.08C193.548 107.08 193.199 106.984 192.89 106.792C192.586 106.6 192.343 106.339 192.162 106.008C191.986 105.677 191.898 105.307 191.898 104.896C191.898 104.485 191.986 104.115 192.162 103.784C192.343 103.453 192.586 103.192 192.89 103C193.199 102.808 193.548 102.712 193.938 102.712C194.311 102.712 194.65 102.789 194.954 102.944C195.263 103.093 195.498 103.299 195.658 103.56L195.202 104.12C195.116 103.997 195.007 103.885 194.874 103.784C194.74 103.683 194.599 103.603 194.45 103.544C194.3 103.485 194.156 103.456 194.018 103.456C193.762 103.456 193.532 103.52 193.33 103.648C193.132 103.771 192.975 103.941 192.858 104.16C192.74 104.379 192.682 104.624 192.682 104.896C192.682 105.168 192.743 105.413 192.866 105.632C192.988 105.845 193.151 106.016 193.354 106.144C193.556 106.272 193.78 106.336 194.026 106.336C194.17 106.336 194.308 106.312 194.442 106.264C194.58 106.216 194.714 106.144 194.842 106.048C194.97 105.952 195.09 105.835 195.202 105.696L195.658 106.256C195.487 106.496 195.242 106.693 194.922 106.848C194.607 107.003 194.279 107.08 193.938 107.08ZM197.187 105.688L197.147 104.792L199.155 102.8H200.267L197.187 105.688ZM196.435 107V101.08H197.259V107H196.435ZM199.267 107L197.683 105.152L198.267 104.616L200.323 107H199.267ZM201.686 108.84L202.534 106.88L202.542 107.536L200.446 102.8H201.406L202.718 105.888C202.744 105.941 202.776 106.024 202.814 106.136C202.851 106.243 202.883 106.349 202.91 106.456L202.702 106.504C202.744 106.392 202.784 106.28 202.822 106.168C202.864 106.056 202.904 105.944 202.942 105.832L204.038 102.8H205.014L203.286 107L202.574 108.84H201.686ZM205.63 107V102.8H206.454V103.664L206.31 103.76C206.363 103.573 206.467 103.403 206.622 103.248C206.777 103.088 206.961 102.96 207.174 102.864C207.387 102.763 207.606 102.712 207.83 102.712C208.15 102.712 208.417 102.776 208.63 102.904C208.843 103.027 209.003 103.216 209.11 103.472C209.217 103.728 209.27 104.051 209.27 104.44V107H208.446V104.496C208.446 104.256 208.414 104.059 208.35 103.904C208.286 103.744 208.187 103.629 208.054 103.56C207.921 103.485 207.755 103.453 207.558 103.464C207.398 103.464 207.251 103.491 207.118 103.544C206.985 103.592 206.867 103.661 206.766 103.752C206.67 103.843 206.593 103.949 206.534 104.072C206.481 104.189 206.454 104.317 206.454 104.456V107H206.046C205.977 107 205.907 107 205.838 107C205.769 107 205.699 107 205.63 107ZM212.268 108.84C211.969 108.84 211.671 108.792 211.372 108.696C211.079 108.605 210.841 108.485 210.66 108.336L210.964 107.696C211.071 107.776 211.196 107.845 211.34 107.904C211.484 107.968 211.636 108.016 211.796 108.048C211.956 108.085 212.113 108.104 212.268 108.104C212.561 108.104 212.807 108.056 213.004 107.96C213.201 107.864 213.351 107.723 213.452 107.536C213.553 107.349 213.604 107.117 213.604 106.84V106.032L213.692 106.088C213.665 106.253 213.577 106.413 213.428 106.568C213.284 106.717 213.103 106.84 212.884 106.936C212.665 107.032 212.441 107.08 212.212 107.08C211.812 107.08 211.455 106.987 211.14 106.8C210.831 106.608 210.585 106.349 210.404 106.024C210.223 105.693 210.132 105.317 210.132 104.896C210.132 104.475 210.22 104.101 210.396 103.776C210.577 103.445 210.823 103.187 211.132 103C211.447 102.808 211.799 102.712 212.188 102.712C212.348 102.712 212.503 102.733 212.652 102.776C212.801 102.813 212.94 102.869 213.068 102.944C213.196 103.013 213.311 103.091 213.412 103.176C213.513 103.261 213.596 103.352 213.66 103.448C213.724 103.544 213.764 103.635 213.78 103.72L213.604 103.784V102.8H214.428V106.744C214.428 107.08 214.377 107.376 214.276 107.632C214.18 107.893 214.039 108.112 213.852 108.288C213.665 108.469 213.439 108.605 213.172 108.696C212.905 108.792 212.604 108.84 212.268 108.84ZM212.3 106.32C212.561 106.32 212.793 106.259 212.996 106.136C213.199 106.013 213.356 105.845 213.468 105.632C213.58 105.419 213.636 105.173 213.636 104.896C213.636 104.619 213.577 104.373 213.46 104.16C213.348 103.941 213.191 103.771 212.988 103.648C212.791 103.525 212.561 103.464 212.3 103.464C212.044 103.464 211.815 103.528 211.612 103.656C211.415 103.779 211.257 103.949 211.14 104.168C211.028 104.381 210.972 104.624 210.972 104.896C210.972 105.168 211.028 105.413 211.14 105.632C211.257 105.845 211.415 106.013 211.612 106.136C211.815 106.259 212.044 106.32 212.3 106.32ZM216.993 107.08C216.694 107.08 216.433 107.011 216.209 106.872C215.99 106.733 215.819 106.539 215.697 106.288C215.579 106.037 215.521 105.739 215.521 105.392V102.8H216.345V105.168C216.345 105.413 216.382 105.627 216.457 105.808C216.537 105.984 216.649 106.12 216.793 106.216C216.942 106.312 217.121 106.36 217.329 106.36C217.483 106.36 217.625 106.336 217.753 106.288C217.881 106.235 217.99 106.163 218.081 106.072C218.177 105.981 218.251 105.872 218.305 105.744C218.358 105.616 218.385 105.477 218.385 105.328V102.8H219.209V107H218.385V106.12L218.529 106.024C218.465 106.221 218.355 106.4 218.201 106.56C218.051 106.72 217.873 106.848 217.665 106.944C217.457 107.035 217.233 107.08 216.993 107.08ZM221.068 108.84L221.916 106.88L221.924 107.536L219.828 102.8H220.788L222.1 105.888C222.127 105.941 222.159 106.024 222.196 106.136C222.234 106.243 222.266 106.349 222.292 106.456L222.084 106.504C222.127 106.392 222.167 106.28 222.204 106.168C222.247 106.056 222.287 105.944 222.324 105.832L223.42 102.8H224.396L222.668 107L221.956 108.84H221.068ZM226.895 107.08C226.463 107.08 226.079 106.989 225.743 106.808C225.412 106.621 225.151 106.368 224.959 106.048C224.772 105.728 224.679 105.36 224.679 104.944C224.679 104.613 224.732 104.312 224.839 104.04C224.945 103.768 225.092 103.533 225.279 103.336C225.471 103.133 225.697 102.979 225.959 102.872C226.225 102.76 226.513 102.704 226.823 102.704C227.095 102.704 227.348 102.757 227.583 102.864C227.817 102.965 228.02 103.107 228.191 103.288C228.367 103.469 228.5 103.685 228.591 103.936C228.687 104.181 228.732 104.451 228.727 104.744L228.719 105.096H225.287L225.103 104.44H228.007L227.887 104.576V104.384C227.871 104.208 227.812 104.051 227.711 103.912C227.609 103.773 227.481 103.664 227.327 103.584C227.172 103.504 227.004 103.464 226.823 103.464C226.535 103.464 226.292 103.52 226.095 103.632C225.897 103.739 225.748 103.899 225.647 104.112C225.545 104.32 225.495 104.579 225.495 104.888C225.495 105.181 225.556 105.437 225.679 105.656C225.801 105.869 225.975 106.035 226.199 106.152C226.423 106.269 226.681 106.328 226.975 106.328C227.183 106.328 227.375 106.293 227.551 106.224C227.732 106.155 227.927 106.029 228.135 105.848L228.551 106.432C228.423 106.56 228.265 106.672 228.079 106.768C227.897 106.864 227.703 106.941 227.495 107C227.292 107.053 227.092 107.08 226.895 107.08ZM229.622 107V102.8H230.446V103.664L230.302 103.76C230.356 103.573 230.46 103.403 230.614 103.248C230.769 103.088 230.953 102.96 231.166 102.864C231.38 102.763 231.598 102.712 231.822 102.712C232.142 102.712 232.409 102.776 232.622 102.904C232.836 103.027 232.996 103.216 233.102 103.472C233.209 103.728 233.262 104.051 233.262 104.44V107H232.438V104.496C232.438 104.256 232.406 104.059 232.342 103.904C232.278 103.744 232.18 103.629 232.046 103.56C231.913 103.485 231.748 103.453 231.55 103.464C231.39 103.464 231.244 103.491 231.11 103.544C230.977 103.592 230.86 103.661 230.758 103.752C230.662 103.843 230.585 103.949 230.526 104.072C230.473 104.189 230.446 104.317 230.446 104.456V107H230.038C229.969 107 229.9 107 229.83 107C229.761 107 229.692 107 229.622 107ZM236.132 107.08C235.748 107.08 235.404 106.987 235.1 106.8C234.801 106.608 234.564 106.349 234.388 106.024C234.212 105.693 234.124 105.317 234.124 104.896C234.124 104.475 234.209 104.101 234.38 103.776C234.556 103.445 234.793 103.187 235.092 103C235.391 102.808 235.729 102.712 236.108 102.712C236.316 102.712 236.516 102.747 236.708 102.816C236.905 102.88 237.081 102.971 237.236 103.088C237.391 103.2 237.511 103.325 237.596 103.464C237.687 103.597 237.732 103.733 237.732 103.872L237.492 103.888V101.08H238.316V107H237.492V106H237.652C237.652 106.128 237.609 106.256 237.524 106.384C237.439 106.507 237.324 106.621 237.18 106.728C237.041 106.835 236.879 106.92 236.692 106.984C236.511 107.048 236.324 107.08 236.132 107.08ZM236.244 106.368C236.495 106.368 236.716 106.304 236.908 106.176C237.1 106.048 237.249 105.875 237.356 105.656C237.468 105.432 237.524 105.179 237.524 104.896C237.524 104.613 237.468 104.363 237.356 104.144C237.249 103.92 237.1 103.744 236.908 103.616C236.716 103.488 236.495 103.424 236.244 103.424C235.993 103.424 235.772 103.488 235.58 103.616C235.388 103.744 235.236 103.92 235.124 104.144C235.017 104.363 234.964 104.613 234.964 104.896C234.964 105.179 235.017 105.432 235.124 105.656C235.236 105.875 235.388 106.048 235.58 106.176C235.772 106.304 235.993 106.368 236.244 106.368ZM241.41 107.08C240.978 107.08 240.594 106.989 240.258 106.808C239.928 106.621 239.666 106.368 239.474 106.048C239.288 105.728 239.194 105.36 239.194 104.944C239.194 104.613 239.248 104.312 239.354 104.04C239.461 103.768 239.608 103.533 239.794 103.336C239.986 103.133 240.213 102.979 240.474 102.872C240.741 102.76 241.029 102.704 241.338 102.704C241.61 102.704 241.864 102.757 242.098 102.864C242.333 102.965 242.536 103.107 242.706 103.288C242.882 103.469 243.016 103.685 243.106 103.936C243.202 104.181 243.248 104.451 243.242 104.744L243.234 105.096H239.802L239.618 104.44H242.522L242.402 104.576V104.384C242.386 104.208 242.328 104.051 242.226 103.912C242.125 103.773 241.997 103.664 241.842 103.584C241.688 103.504 241.52 103.464 241.338 103.464C241.05 103.464 240.808 103.52 240.61 103.632C240.413 103.739 240.264 103.899 240.162 104.112C240.061 104.32 240.01 104.579 240.01 104.888C240.01 105.181 240.072 105.437 240.194 105.656C240.317 105.869 240.49 106.035 240.714 106.152C240.938 106.269 241.197 106.328 241.49 106.328C241.698 106.328 241.89 106.293 242.066 106.224C242.248 106.155 242.442 106.029 242.65 105.848L243.066 106.432C242.938 106.56 242.781 106.672 242.594 106.768C242.413 106.864 242.218 106.941 242.01 107C241.808 107.053 241.608 107.08 241.41 107.08ZM245.436 107L243.66 102.8H244.548L245.828 105.944L245.676 106.016L247.044 102.8H247.892L246.028 107H245.436Z" fill="#B8C1EC"/>
<path d="M185.412 104.828C185.412 105.005 185.396 105.185 185.365 105.367C185.337 105.549 185.284 105.715 185.209 105.863C185.136 106.009 185.037 106.129 184.912 106.223C184.787 106.316 184.628 106.363 184.435 106.363C184.365 106.363 184.295 106.35 184.225 106.324C184.157 106.296 184.096 106.257 184.041 106.207C183.986 106.155 183.942 106.094 183.908 106.023C183.874 105.953 183.857 105.876 183.857 105.793V105.754C183.834 105.84 183.8 105.921 183.756 105.996C183.714 106.069 183.663 106.133 183.603 106.188C183.544 106.242 183.477 106.285 183.404 106.316C183.331 106.348 183.253 106.363 183.17 106.363C183.011 106.363 182.877 106.326 182.768 106.25C182.661 106.174 182.575 106.074 182.51 105.949C182.445 105.824 182.398 105.682 182.369 105.523C182.34 105.365 182.326 105.202 182.326 105.035C182.326 104.842 182.347 104.659 182.389 104.484C182.433 104.307 182.497 104.152 182.58 104.02C182.666 103.884 182.77 103.777 182.893 103.699C183.015 103.618 183.156 103.578 183.314 103.578C183.361 103.578 183.409 103.586 183.459 103.602C183.508 103.617 183.555 103.642 183.6 103.676C183.644 103.707 183.683 103.747 183.717 103.797C183.753 103.846 183.781 103.904 183.799 103.969V103.652H184.428V105.586C184.428 105.669 184.441 105.729 184.467 105.766C184.495 105.802 184.532 105.82 184.576 105.82C184.633 105.82 184.682 105.794 184.721 105.742C184.762 105.69 184.796 105.62 184.822 105.531C184.848 105.44 184.866 105.335 184.877 105.215C184.89 105.092 184.896 104.964 184.896 104.828C184.896 104.555 184.87 104.294 184.818 104.047C184.766 103.799 184.683 103.582 184.568 103.395C184.456 103.207 184.308 103.059 184.123 102.949C183.941 102.837 183.719 102.781 183.459 102.781C183.196 102.781 182.972 102.839 182.787 102.953C182.605 103.065 182.456 103.219 182.342 103.414C182.23 103.609 182.148 103.84 182.096 104.105C182.046 104.368 182.021 104.652 182.021 104.957C182.021 105.257 182.046 105.538 182.096 105.801C182.148 106.064 182.23 106.293 182.342 106.488C182.456 106.684 182.605 106.839 182.787 106.953C182.972 107.065 183.196 107.121 183.459 107.121C183.672 107.121 183.863 107.083 184.029 107.008C184.199 106.932 184.353 106.831 184.494 106.703L184.725 107.086C184.391 107.422 183.969 107.59 183.459 107.59C183.219 107.59 183.004 107.557 182.814 107.492C182.627 107.424 182.46 107.331 182.314 107.211C182.171 107.091 182.047 106.949 181.943 106.785C181.842 106.621 181.758 106.441 181.693 106.246C181.628 106.051 181.581 105.844 181.553 105.625C181.521 105.406 181.506 105.184 181.506 104.957C181.506 104.725 181.521 104.5 181.553 104.281C181.584 104.06 181.632 103.852 181.697 103.656C181.762 103.461 181.846 103.281 181.947 103.117C182.051 102.953 182.176 102.812 182.322 102.695C182.468 102.576 182.635 102.483 182.822 102.418C183.01 102.35 183.222 102.316 183.459 102.316C183.693 102.316 183.904 102.35 184.092 102.418C184.282 102.483 184.449 102.574 184.592 102.691C184.738 102.809 184.861 102.947 184.963 103.105C185.067 103.264 185.152 103.438 185.217 103.625C185.284 103.81 185.334 104.005 185.365 104.211C185.396 104.414 185.412 104.62 185.412 104.828ZM183.799 104.391C183.752 104.292 183.695 104.221 183.627 104.18C183.562 104.138 183.497 104.117 183.432 104.117C183.353 104.117 183.286 104.141 183.228 104.188C183.171 104.234 183.123 104.299 183.084 104.383C183.047 104.464 183.02 104.56 183.002 104.672C182.986 104.784 182.978 104.904 182.978 105.031C182.978 105.172 182.986 105.29 183.002 105.387C183.02 105.48 183.045 105.556 183.076 105.613C183.11 105.671 183.15 105.711 183.197 105.734C183.244 105.758 183.297 105.77 183.357 105.77C183.422 105.77 183.482 105.747 183.537 105.703C183.592 105.656 183.639 105.596 183.678 105.523C183.717 105.451 183.747 105.37 183.768 105.281C183.788 105.19 183.799 105.099 183.799 105.008V104.391Z" fill="#B8C1EC"/>
</svg>
