<svg width="1201" height="401" viewBox="0 0 1201 401" fill="none" xmlns="http://www.w3.org/2000/svg">
<path d="M0.940613 0.768005H1200.94V400.768H0.940613V0.768005Z" fill="#232323"/>
<path d="M646.303 144.552C646.303 140.162 642.526 137.378 640.638 136.535L635.364 143.59C639.01 145.739 646.303 148.941 646.303 144.552Z" fill="#8BD3DD"/>
<path d="M625.872 174.215C626.016 180.379 622.164 183.168 620.219 183.792L615.466 175.763L618.203 173.926C620.699 171.454 625.728 168.05 625.872 174.215Z" fill="#8BD3DD"/>
<path d="M582.484 147.286C577.047 150.243 575.543 152.868 575.471 153.81L586.235 152.641C587.25 149.624 587.921 144.328 582.484 147.286Z" fill="#8BD3DD"/>
<path d="M625.942 226.575C625.942 222.403 622.153 218.859 620.258 217.609L612.933 222.151L615.365 226.575C618.891 228.313 625.942 230.747 625.942 226.575Z" fill="#8BD3DD"/>
<circle cx="580.133" cy="270.501" r="5.33575" fill="#8BD3DD"/>
<circle cx="620.667" cy="269.858" r="5.33575" fill="#8BD3DD"/>
<circle cx="600.745" cy="211.901" r="5.33575" fill="#8BD3DD"/>
<path d="M577.805 126.75L555.562 141.028L561.487 149.09L583.73 135.297L577.805 126.75Z" fill="#8BD3DD"/>
<rect x="555.565" y="140.466" width="10.6703" height="118.958" rx="1" fill="#8BD3DD"/>
<rect x="575.488" y="152.724" width="10.6703" height="25.3963" rx="1" fill="#8BD3DD"/>
<rect x="575.487" y="200.386" width="10.6703" height="44.218" fill="#8BD3DD"/>
<rect x="618.073" y="149.198" width="10.6703" height="43.0142" transform="rotate(60 618.073 149.198)" fill="#8BD3DD"/>
<rect x="618.178" y="126.788" width="10.6703" height="44.8199" transform="rotate(60 618.178 126.788)" fill="#8BD3DD"/>
<rect x="641.411" y="136.987" width="10.6703" height="21.3726" transform="rotate(120 641.411 136.987)" fill="#8BD3DD"/>
<rect x="616.763" y="173.504" width="10.6703" height="21.53" transform="rotate(60 616.763 173.504)" fill="#8BD3DD"/>
<rect x="637.248" y="184.949" width="10.6703" height="21.53" transform="rotate(60 637.248 184.949)" fill="#8BD3DD"/>
<rect x="642.584" y="206.845" width="10.6703" height="21.53" transform="rotate(120 642.584 206.845)" fill="#8BD3DD"/>
<rect x="615.21" y="153.931" width="10.6703" height="20.939" fill="#8BD3DD"/>
<rect x="635.606" y="144.124" width="10.6703" height="45.3268" fill="#8BD3DD"/>
<rect x="615.332" y="226.539" width="10.6101" height="44.1138" fill="#8BD3DD"/>
<circle cx="640.984" cy="258.473" r="5.33575" fill="#8BD3DD"/>
<rect x="635.648" y="215.154" width="10.6101" height="44.1138" fill="#8BD3DD"/>
<rect x="620.557" y="217.74" width="10.2624" height="19.7359" transform="rotate(120.966 620.557 217.74)" fill="#8BD3DD"/>
<path d="M564.012 262.926C559.117 265.491 556.339 261.858 555.562 259.721V256.419L575.571 243.889C579.132 241.784 586.236 238.838 586.158 243.889C586.08 248.94 584.636 250.656 583.924 250.882C579.326 253.828 568.907 260.362 564.012 262.926Z" fill="#8BD3DD"/>
<rect x="595.409" y="210.902" width="10.6703" height="44.5981" fill="#8BD3DD"/>
<rect x="582.82" y="275.194" width="10.6703" height="20.661" transform="rotate(-120 582.82 275.194)" fill="#8BD3DD"/>
<circle cx="580.823" cy="200.386" r="5.33575" fill="#8BD3DD"/>
<circle cx="580.822" cy="177.048" r="5.33575" fill="#8BD3DD"/>
<circle cx="620.546" cy="153.931" r="5.33575" fill="#8BD3DD"/>
<circle cx="620.961" cy="131.312" r="5.33575" fill="#8BD3DD"/>
<circle cx="620.802" cy="200.548" r="5.33575" fill="#8BD3DD"/>
<circle cx="600.869" cy="188.843" r="5.33575" fill="#8BD3DD"/>
<circle cx="580.823" cy="131.035" r="5.33575" fill="#8BD3DD"/>
<path d="M600.672 264.911C604.486 262.728 605.86 257.645 606.071 255.377H595.417C595.58 259.464 596.859 267.093 600.672 264.911Z" fill="#8BD3DD"/>
<path d="M590.107 177.519L583.358 181.714L585.25 174.87L590.107 177.519Z" fill="#8BD3DD"/>
<path d="M646.277 188.985C646.277 191.997 643.223 194.038 641.696 194.682L637.931 188.268C640.713 187.252 646.277 185.973 646.277 188.985Z" fill="#8BD3DD"/>
<path d="M646.257 216.057C646.353 210.113 643.575 207.285 642.174 206.615L636.935 215.22C640.002 217.976 646.162 222.002 646.257 216.057Z" fill="#8BD3DD"/>
</svg>
