<svg width="399" height="111" viewBox="0 0 399 111" fill="none" xmlns="http://www.w3.org/2000/svg">
<path d="M48.6827 51.0939H145.157V65.2684H48.6827V51.0939Z" fill="#8BD3DD" fill-opacity="0.25"/>
<path d="M14.8839 26.7684V8.56843H17.6919V26.7684H14.8839ZM3.00186 26.7684V8.56843H5.80986V26.7684H3.00186ZM4.22386 19.0464V16.3424H16.1319V19.0464H4.22386ZM28.4752 27.0284C27.0712 27.0284 25.8232 26.7338 24.7312 26.1444C23.6565 25.5378 22.8072 24.7144 22.1832 23.6744C21.5765 22.6344 21.2732 21.4384 21.2732 20.0864C21.2732 19.0118 21.4465 18.0324 21.7932 17.1484C22.1398 16.2644 22.6165 15.5018 23.2232 14.8604C23.8472 14.2018 24.5838 13.6991 25.4332 13.3524C26.2998 12.9884 27.2358 12.8064 28.2412 12.8064C29.1252 12.8064 29.9485 12.9798 30.7112 13.3264C31.4738 13.6558 32.1325 14.1151 32.6872 14.7044C33.2592 15.2938 33.6925 15.9958 33.9872 16.8104C34.2992 17.6078 34.4465 18.4831 34.4292 19.4364L34.4032 20.5804H23.2492L22.6512 18.4484H32.0892L31.6992 18.8904V18.2664C31.6472 17.6944 31.4565 17.1831 31.1272 16.7324C30.7978 16.2818 30.3818 15.9264 29.8792 15.6664C29.3765 15.4064 28.8305 15.2764 28.2412 15.2764C27.3052 15.2764 26.5165 15.4584 25.8752 15.8224C25.2338 16.1691 24.7485 16.6891 24.4192 17.3824C24.0898 18.0584 23.9252 18.8991 23.9252 19.9044C23.9252 20.8578 24.1245 21.6898 24.5232 22.4004C24.9218 23.0938 25.4852 23.6311 26.2132 24.0124C26.9412 24.3938 27.7818 24.5844 28.7352 24.5844C29.4112 24.5844 30.0352 24.4718 30.6072 24.2464C31.1965 24.0211 31.8292 23.6138 32.5052 23.0244L33.8572 24.9224C33.4412 25.3384 32.9298 25.7024 32.3232 26.0144C31.7338 26.3264 31.1012 26.5778 30.4252 26.7684C29.7665 26.9418 29.1165 27.0284 28.4752 27.0284ZM37.3915 26.7684V7.52843H40.0695V26.7684H37.3915ZM43.9169 26.7684V7.52843H46.5949V26.7684H43.9169ZM56.2724 27.0284C54.9377 27.0284 53.7417 26.7251 52.6844 26.1184C51.6444 25.4944 50.8211 24.6538 50.2144 23.5964C49.6077 22.5218 49.3044 21.2998 49.3044 19.9304C49.3044 18.5611 49.6077 17.3478 50.2144 16.2904C50.8211 15.2158 51.6444 14.3751 52.6844 13.7684C53.7417 13.1444 54.9377 12.8324 56.2724 12.8324C57.5897 12.8324 58.7684 13.1444 59.8084 13.7684C60.8657 14.3751 61.6977 15.2158 62.3044 16.2904C62.9111 17.3478 63.2144 18.5611 63.2144 19.9304C63.2144 21.2998 62.9111 22.5218 62.3044 23.5964C61.6977 24.6538 60.8657 25.4944 59.8084 26.1184C58.7684 26.7251 57.5897 27.0284 56.2724 27.0284ZM56.2724 24.5844C57.0871 24.5844 57.8151 24.3851 58.4564 23.9864C59.0977 23.5704 59.6004 23.0158 59.9644 22.3224C60.3284 21.6118 60.5017 20.8144 60.4844 19.9304C60.5017 19.0291 60.3284 18.2318 59.9644 17.5384C59.6004 16.8278 59.0977 16.2731 58.4564 15.8744C57.8151 15.4758 57.0871 15.2764 56.2724 15.2764C55.4577 15.2764 54.7211 15.4844 54.0624 15.9004C53.4211 16.2991 52.9184 16.8538 52.5544 17.5644C52.1904 18.2578 52.0171 19.0464 52.0344 19.9304C52.0171 20.8144 52.1904 21.6118 52.5544 22.3224C52.9184 23.0158 53.4211 23.5704 54.0624 23.9864C54.7211 24.3851 55.4577 24.5844 56.2724 24.5844ZM66.5485 31.4224L65.5605 30.2264C66.1672 29.8798 66.6612 29.4811 67.0425 29.0304C67.4238 28.5798 67.6145 28.1898 67.6145 27.8604C67.6145 27.6871 67.5712 27.5138 67.4845 27.3404C67.3978 27.1844 67.2158 26.9591 66.9385 26.6644C66.5918 26.3351 66.3665 26.0578 66.2625 25.8324C66.1585 25.6071 66.1065 25.3644 66.1065 25.1044C66.1065 24.6884 66.2538 24.3591 66.5485 24.1164C66.8432 23.8564 67.2245 23.7264 67.6925 23.7264C68.1258 23.7264 68.5158 23.8564 68.8625 24.1164C69.2265 24.3591 69.5038 24.7058 69.6945 25.1564C69.9025 25.5898 70.0065 26.0924 70.0065 26.6644C70.0065 27.1844 69.9198 27.6871 69.7465 28.1724C69.5732 28.6578 69.3305 29.1084 69.0185 29.5244C68.7065 29.9404 68.3425 30.3131 67.9265 30.6424C67.5105 30.9718 67.0512 31.2318 66.5485 31.4224Z" fill="black"/>
<path d="M50.8771 64V38.8H61.8211C63.3331 38.8 64.7131 39.16 65.9611 39.88C67.2091 40.576 68.1931 41.536 68.9131 42.76C69.6571 43.96 70.0291 45.316 70.0291 46.828C70.0291 48.268 69.6571 49.6 68.9131 50.824C68.1931 52.024 67.2091 52.984 65.9611 53.704C64.7371 54.4 63.3571 54.748 61.8211 54.748H55.4491V64H50.8771ZM65.4931 64L59.0851 52.624L63.9091 51.724L71.0371 64.036L65.4931 64ZM55.4491 50.68H61.8571C62.5531 50.68 63.1531 50.524 63.6571 50.212C64.1851 49.876 64.5931 49.42 64.8811 48.844C65.1691 48.268 65.3131 47.632 65.3131 46.936C65.3131 46.144 65.1331 45.46 64.7731 44.884C64.4131 44.308 63.9091 43.852 63.2611 43.516C62.6131 43.18 61.8691 43.012 61.0291 43.012H55.4491V50.68ZM75.6907 64V45.028H80.1187V64H75.6907ZM77.8507 40.996C76.9627 40.996 76.2667 40.78 75.7627 40.348C75.2827 39.892 75.0427 39.256 75.0427 38.44C75.0427 37.672 75.2947 37.048 75.7987 36.568C76.3027 36.088 76.9867 35.848 77.8507 35.848C78.7627 35.848 79.4587 36.076 79.9387 36.532C80.4427 36.964 80.6947 37.6 80.6947 38.44C80.6947 39.184 80.4427 39.796 79.9387 40.276C79.4347 40.756 78.7387 40.996 77.8507 40.996ZM93.8695 64.36C92.0935 64.36 90.4975 63.928 89.0815 63.064C87.6655 62.2 86.5495 61.024 85.7335 59.536C84.9175 58.048 84.5095 56.368 84.5095 54.496C84.5095 52.624 84.9175 50.944 85.7335 49.456C86.5495 47.968 87.6655 46.792 89.0815 45.928C90.4975 45.064 92.0935 44.632 93.8695 44.632C95.5735 44.632 97.1215 44.956 98.5135 45.604C99.9055 46.252 100.986 47.152 101.754 48.304L99.3055 51.256C98.9455 50.752 98.4895 50.296 97.9375 49.888C97.3855 49.48 96.7975 49.156 96.1735 48.916C95.5495 48.676 94.9255 48.556 94.3015 48.556C93.2455 48.556 92.2975 48.82 91.4575 49.348C90.6415 49.852 89.9935 50.56 89.5135 51.472C89.0335 52.36 88.7935 53.368 88.7935 54.496C88.7935 55.624 89.0335 56.632 89.5135 57.52C90.0175 58.408 90.6895 59.116 91.5295 59.644C92.3695 60.172 93.3055 60.436 94.3375 60.436C94.9615 60.436 95.5615 60.34 96.1375 60.148C96.7375 59.932 97.3015 59.632 97.8295 59.248C98.3575 58.864 98.8495 58.384 99.3055 57.808L101.754 60.796C100.938 61.852 99.8095 62.716 98.3695 63.388C96.9535 64.036 95.4535 64.36 93.8695 64.36ZM109.28 58.204L108.416 54.064L117.416 45.028H123.32L109.28 58.204ZM105.14 64V37.36H109.568V64H105.14ZM117.956 64L110.972 55.54L114.104 52.876L123.428 64H117.956ZM129.219 72.28L133.251 62.956L133.287 65.908L123.927 45.028H129.039L134.259 57.412C134.427 57.724 134.595 58.144 134.763 58.672C134.931 59.176 135.075 59.68 135.195 60.184L134.295 60.472C134.463 60.016 134.643 59.536 134.835 59.032C135.027 58.504 135.207 57.964 135.375 57.412L139.839 45.028H144.987L137.067 64L133.827 72.28H129.219Z" fill="#8BD3DD"/>
<path d="M2.87203 64V61.4H5.81003V48.4H2.87203V45.8H11.556V48.4H8.61803V61.4H11.556V64H2.87203ZM14.924 51.65L13.936 50.454C14.612 50.142 15.1667 49.7867 15.6 49.388C16.0334 48.9893 16.25 48.6427 16.25 48.348C16.25 48.1227 16.1547 47.9233 15.964 47.75C15.7734 47.5593 15.6 47.4033 15.444 47.282C15.0627 46.97 14.8027 46.71 14.664 46.502C14.5427 46.294 14.482 46.0773 14.482 45.852C14.482 45.436 14.6294 45.1067 14.924 44.864C15.2187 44.604 15.6 44.474 16.068 44.474C16.5534 44.474 16.9867 44.604 17.368 44.864C17.7667 45.1067 18.0787 45.4447 18.304 45.878C18.5294 46.3113 18.642 46.8227 18.642 47.412C18.642 47.8627 18.5467 48.3047 18.356 48.738C18.1654 49.1713 17.8967 49.5787 17.55 49.96C17.2207 50.3413 16.8307 50.6793 16.38 50.974C15.9294 51.2687 15.444 51.494 14.924 51.65ZM20.7204 64V50.35H23.4244V53.262L22.9304 53.574C23.0691 53.1233 23.2858 52.69 23.5804 52.274C23.8924 51.858 24.2651 51.494 24.6984 51.182C25.1491 50.8527 25.6258 50.5927 26.1284 50.402C26.6484 50.2113 27.1771 50.116 27.7144 50.116C28.4944 50.116 29.1791 50.246 29.7684 50.506C30.3578 50.766 30.8431 51.156 31.2244 51.676C31.6058 52.196 31.8831 52.846 32.0564 53.626L31.6404 53.522L31.8224 53.08C32.0131 52.6813 32.2731 52.3087 32.6024 51.962C32.9491 51.598 33.3391 51.2773 33.7724 51C34.2058 50.7227 34.6651 50.506 35.1504 50.35C35.6358 50.194 36.1124 50.116 36.5804 50.116C37.6031 50.116 38.4438 50.324 39.1024 50.74C39.7784 51.156 40.2811 51.7887 40.6104 52.638C40.9571 53.4873 41.1304 54.5447 41.1304 55.81V64H38.4264V55.966C38.4264 55.186 38.3224 54.5533 38.1144 54.068C37.9238 53.5653 37.6291 53.1927 37.2304 52.95C36.8318 52.7073 36.3204 52.586 35.6964 52.586C35.2111 52.586 34.7518 52.6727 34.3184 52.846C33.9024 53.002 33.5384 53.2273 33.2264 53.522C32.9144 53.8167 32.6718 54.1633 32.4984 54.562C32.3251 54.9433 32.2384 55.368 32.2384 55.836V64H29.5344V55.914C29.5344 55.2033 29.4304 54.6053 29.2224 54.12C29.0144 53.6173 28.7111 53.236 28.3124 52.976C27.9138 52.716 27.4284 52.586 26.8564 52.586C26.3711 52.586 25.9204 52.6727 25.5044 52.846C25.0884 53.002 24.7244 53.2273 24.4124 53.522C24.1004 53.7993 23.8578 54.1373 23.6844 54.536C23.5111 54.9173 23.4244 55.3333 23.4244 55.784V64H20.7204Z" fill="black"/>
<path d="M2.27403 92V82.9H3.67803V92H2.27403ZM2.89803 88.126V86.774H7.59103V88.126H2.89803ZM2.89803 84.252V82.9H8.17603V84.252H2.89803ZM9.64209 92V85.175H10.9941V87.32L10.8641 86.8C10.9594 86.4707 11.1198 86.1717 11.3451 85.903C11.5791 85.6343 11.8434 85.422 12.1381 85.266C12.4414 85.11 12.7534 85.032 13.0741 85.032C13.2214 85.032 13.3601 85.045 13.4901 85.071C13.6288 85.097 13.7371 85.1273 13.8151 85.162L13.4641 86.618C13.3601 86.5747 13.2431 86.54 13.1131 86.514C12.9918 86.4793 12.8704 86.462 12.7491 86.462C12.5151 86.462 12.2898 86.5097 12.0731 86.605C11.8651 86.6917 11.6788 86.8173 11.5141 86.982C11.3581 87.138 11.2324 87.3243 11.1371 87.541C11.0418 87.749 10.9941 87.9787 10.9941 88.23V92H9.64209ZM17.6613 92.13C16.9939 92.13 16.3959 91.9783 15.8673 91.675C15.3473 91.363 14.9356 90.9427 14.6323 90.414C14.3289 89.8767 14.1773 89.2657 14.1773 88.581C14.1773 87.8963 14.3289 87.2897 14.6323 86.761C14.9356 86.2237 15.3473 85.8033 15.8673 85.5C16.3959 85.188 16.9939 85.032 17.6613 85.032C18.3199 85.032 18.9093 85.188 19.4293 85.5C19.9579 85.8033 20.3739 86.2237 20.6773 86.761C20.9806 87.2897 21.1323 87.8963 21.1323 88.581C21.1323 89.2657 20.9806 89.8767 20.6773 90.414C20.3739 90.9427 19.9579 91.363 19.4293 91.675C18.9093 91.9783 18.3199 92.13 17.6613 92.13ZM17.6613 90.908C18.0686 90.908 18.4326 90.8083 18.7533 90.609C19.0739 90.401 19.3253 90.1237 19.5073 89.777C19.6893 89.4217 19.7759 89.023 19.7673 88.581C19.7759 88.1303 19.6893 87.7317 19.5073 87.385C19.3253 87.0297 19.0739 86.7523 18.7533 86.553C18.4326 86.3537 18.0686 86.254 17.6613 86.254C17.2539 86.254 16.8856 86.358 16.5563 86.566C16.2356 86.7653 15.9843 87.0427 15.8023 87.398C15.6203 87.7447 15.5336 88.139 15.5423 88.581C15.5336 89.023 15.6203 89.4217 15.8023 89.777C15.9843 90.1237 16.2356 90.401 16.5563 90.609C16.8856 90.8083 17.2539 90.908 17.6613 90.908ZM22.5913 92V85.175H23.9303V86.579L23.6963 86.735C23.783 86.4317 23.952 86.1543 24.2033 85.903C24.4546 85.643 24.7536 85.435 25.1003 85.279C25.447 85.1143 25.8023 85.032 26.1663 85.032C26.6863 85.032 27.1196 85.136 27.4663 85.344C27.813 85.5433 28.073 85.851 28.2463 86.267C28.4196 86.683 28.5063 87.2073 28.5063 87.84V92H27.1673V87.931C27.1673 87.541 27.1153 87.2203 27.0113 86.969C26.9073 86.709 26.747 86.5227 26.5303 86.41C26.3136 86.2887 26.045 86.2367 25.7243 86.254C25.4643 86.254 25.226 86.2973 25.0093 86.384C24.7926 86.462 24.602 86.5747 24.4373 86.722C24.2813 86.8693 24.1556 87.0427 24.0603 87.242C23.9736 87.4327 23.9303 87.6407 23.9303 87.866V92H23.2673C23.1546 92 23.042 92 22.9293 92C22.8166 92 22.704 92 22.5913 92ZM31.1677 92V83.433H32.5067V92H31.1677ZM29.7507 86.475V85.175H34.0927V86.475H29.7507ZM35.065 88.945V87.619H38.809V88.945H35.065ZM43.6132 92.13C42.9112 92.13 42.2872 91.9827 41.7412 91.688C41.2039 91.3847 40.7792 90.973 40.4672 90.453C40.1639 89.933 40.0122 89.335 40.0122 88.659C40.0122 88.1217 40.0989 87.632 40.2722 87.19C40.4456 86.748 40.6839 86.3667 40.9872 86.046C41.2992 85.7167 41.6676 85.4653 42.0922 85.292C42.5256 85.11 42.9936 85.019 43.4962 85.019C43.9382 85.019 44.3499 85.1057 44.7312 85.279C45.1126 85.4437 45.4419 85.6733 45.7192 85.968C46.0052 86.2627 46.2219 86.6137 46.3692 87.021C46.5252 87.4197 46.5989 87.8573 46.5902 88.334L46.5772 88.906H41.0002L40.7012 87.84H45.4202L45.2252 88.061V87.749C45.1992 87.463 45.1039 87.2073 44.9392 86.982C44.7746 86.7567 44.5666 86.579 44.3152 86.449C44.0639 86.319 43.7909 86.254 43.4962 86.254C43.0282 86.254 42.6339 86.345 42.3132 86.527C41.9926 86.7003 41.7499 86.9603 41.5852 87.307C41.4206 87.645 41.3382 88.0653 41.3382 88.568C41.3382 89.0447 41.4379 89.4607 41.6372 89.816C41.8366 90.1627 42.1182 90.4313 42.4822 90.622C42.8462 90.8127 43.2666 90.908 43.7432 90.908C44.0812 90.908 44.3932 90.8517 44.6792 90.739C44.9739 90.6263 45.2902 90.4227 45.6282 90.128L46.3042 91.077C46.0962 91.285 45.8406 91.467 45.5372 91.623C45.2426 91.779 44.9262 91.9047 44.5882 92C44.2589 92.0867 43.9339 92.13 43.6132 92.13ZM48.0454 92V85.175H49.3844V86.579L49.1504 86.735C49.2371 86.4317 49.4061 86.1543 49.6574 85.903C49.9087 85.643 50.2077 85.435 50.5544 85.279C50.9011 85.1143 51.2564 85.032 51.6204 85.032C52.1404 85.032 52.5737 85.136 52.9204 85.344C53.2671 85.5433 53.5271 85.851 53.7004 86.267C53.8737 86.683 53.9604 87.2073 53.9604 87.84V92H52.6214V87.931C52.6214 87.541 52.5694 87.2203 52.4654 86.969C52.3614 86.709 52.2011 86.5227 51.9844 86.41C51.7677 86.2887 51.4991 86.2367 51.1784 86.254C50.9184 86.254 50.6801 86.2973 50.4634 86.384C50.2467 86.462 50.0561 86.5747 49.8914 86.722C49.7354 86.8693 49.6097 87.0427 49.5144 87.242C49.4277 87.4327 49.3844 87.6407 49.3844 87.866V92H48.7214C48.6087 92 48.4961 92 48.3834 92C48.2707 92 48.1581 92 48.0454 92ZM58.6239 92.13C57.9999 92.13 57.4409 91.9783 56.9469 91.675C56.4615 91.363 56.0759 90.9427 55.7899 90.414C55.5039 89.8767 55.3609 89.2657 55.3609 88.581C55.3609 87.8963 55.4995 87.2897 55.7769 86.761C56.0629 86.2237 56.4485 85.8033 56.9339 85.5C57.4192 85.188 57.9695 85.032 58.5849 85.032C58.9229 85.032 59.2479 85.0883 59.5599 85.201C59.8805 85.305 60.1665 85.4523 60.4179 85.643C60.6692 85.825 60.8642 86.0287 61.0029 86.254C61.1502 86.4707 61.2239 86.6917 61.2239 86.917L60.8339 86.943V82.38H62.1729V92H60.8339V90.375H61.0939C61.0939 90.583 61.0245 90.791 60.8859 90.999C60.7472 91.1983 60.5609 91.3847 60.3269 91.558C60.1015 91.7313 59.8372 91.87 59.5339 91.974C59.2392 92.078 58.9359 92.13 58.6239 92.13ZM58.8059 90.973C59.2132 90.973 59.5729 90.869 59.8849 90.661C60.1969 90.453 60.4395 90.1713 60.6129 89.816C60.7949 89.452 60.8859 89.0403 60.8859 88.581C60.8859 88.1217 60.7949 87.7143 60.6129 87.359C60.4395 86.995 60.1969 86.709 59.8849 86.501C59.5729 86.293 59.2132 86.189 58.8059 86.189C58.3985 86.189 58.0389 86.293 57.7269 86.501C57.4149 86.709 57.1679 86.995 56.9859 87.359C56.8125 87.7143 56.7259 88.1217 56.7259 88.581C56.7259 89.0403 56.8125 89.452 56.9859 89.816C57.1679 90.1713 57.4149 90.453 57.7269 90.661C58.0389 90.869 58.3985 90.973 58.8059 90.973ZM67.9977 92V82.9H71.5597C72.2097 82.9 72.7947 83.0083 73.3147 83.225C73.8433 83.4417 74.294 83.7537 74.6667 84.161C75.0393 84.5683 75.3253 85.0493 75.5247 85.604C75.724 86.1587 75.8237 86.774 75.8237 87.45C75.8237 88.126 75.724 88.7457 75.5247 89.309C75.3253 89.8637 75.0393 90.3447 74.6667 90.752C74.3027 91.1507 73.8563 91.4583 73.3277 91.675C72.799 91.8917 72.2097 92 71.5597 92H67.9977ZM69.4017 90.791L69.3627 90.648H71.4947C71.954 90.648 72.3613 90.5743 72.7167 90.427C73.0807 90.2797 73.384 90.0717 73.6267 89.803C73.878 89.5257 74.0687 89.1877 74.1987 88.789C74.3287 88.3903 74.3937 87.944 74.3937 87.45C74.3937 86.956 74.3287 86.514 74.1987 86.124C74.0687 85.7253 73.878 85.3873 73.6267 85.11C73.3753 84.8327 73.072 84.6203 72.7167 84.473C72.3613 84.3257 71.954 84.252 71.4947 84.252H69.3237L69.4017 84.135V90.791ZM80.5693 92.13C79.8673 92.13 79.2433 91.9827 78.6973 91.688C78.1599 91.3847 77.7353 90.973 77.4233 90.453C77.1199 89.933 76.9683 89.335 76.9683 88.659C76.9683 88.1217 77.0549 87.632 77.2283 87.19C77.4016 86.748 77.6399 86.3667 77.9433 86.046C78.2553 85.7167 78.6236 85.4653 79.0483 85.292C79.4816 85.11 79.9496 85.019 80.4523 85.019C80.8943 85.019 81.3059 85.1057 81.6873 85.279C82.0686 85.4437 82.3979 85.6733 82.6753 85.968C82.9613 86.2627 83.1779 86.6137 83.3253 87.021C83.4813 87.4197 83.5549 87.8573 83.5463 88.334L83.5333 88.906H77.9563L77.6573 87.84H82.3763L82.1813 88.061V87.749C82.1553 87.463 82.0599 87.2073 81.8953 86.982C81.7306 86.7567 81.5226 86.579 81.2713 86.449C81.0199 86.319 80.7469 86.254 80.4523 86.254C79.9843 86.254 79.5899 86.345 79.2693 86.527C78.9486 86.7003 78.7059 86.9603 78.5413 87.307C78.3766 87.645 78.2943 88.0653 78.2943 88.568C78.2943 89.0447 78.3939 89.4607 78.5933 89.816C78.7926 90.1627 79.0743 90.4313 79.4383 90.622C79.8023 90.8127 80.2226 90.908 80.6993 90.908C81.0373 90.908 81.3493 90.8517 81.6353 90.739C81.9299 90.6263 82.2463 90.4227 82.5843 90.128L83.2603 91.077C83.0523 91.285 82.7966 91.467 82.4933 91.623C82.1986 91.779 81.8823 91.9047 81.5443 92C81.2149 92.0867 80.8899 92.13 80.5693 92.13ZM87.1105 92L84.2245 85.175H85.6675L87.7475 90.284L87.5005 90.401L89.7235 85.175H91.1015L88.0725 92H87.1105ZM95.3212 92.13C94.6192 92.13 93.9952 91.9827 93.4492 91.688C92.9119 91.3847 92.4872 90.973 92.1752 90.453C91.8719 89.933 91.7202 89.335 91.7202 88.659C91.7202 88.1217 91.8069 87.632 91.9802 87.19C92.1536 86.748 92.3919 86.3667 92.6952 86.046C93.0072 85.7167 93.3756 85.4653 93.8002 85.292C94.2336 85.11 94.7016 85.019 95.2042 85.019C95.6462 85.019 96.0579 85.1057 96.4392 85.279C96.8206 85.4437 97.1499 85.6733 97.4272 85.968C97.7132 86.2627 97.9299 86.6137 98.0772 87.021C98.2332 87.4197 98.3069 87.8573 98.2982 88.334L98.2852 88.906H92.7082L92.4092 87.84H97.1282L96.9332 88.061V87.749C96.9072 87.463 96.8119 87.2073 96.6472 86.982C96.4826 86.7567 96.2746 86.579 96.0232 86.449C95.7719 86.319 95.4989 86.254 95.2042 86.254C94.7362 86.254 94.3419 86.345 94.0212 86.527C93.7006 86.7003 93.4579 86.9603 93.2932 87.307C93.1286 87.645 93.0462 88.0653 93.0462 88.568C93.0462 89.0447 93.1459 89.4607 93.3452 89.816C93.5446 90.1627 93.8262 90.4313 94.1902 90.622C94.5542 90.8127 94.9746 90.908 95.4512 90.908C95.7892 90.908 96.1012 90.8517 96.3872 90.739C96.6819 90.6263 96.9982 90.4227 97.3362 90.128L98.0122 91.077C97.8042 91.285 97.5486 91.467 97.2452 91.623C96.9506 91.779 96.6342 91.9047 96.2962 92C95.9669 92.0867 95.6419 92.13 95.3212 92.13ZM99.7794 92V82.38H101.118V92H99.7794ZM105.957 92.13C105.29 92.13 104.692 91.9783 104.163 91.675C103.643 91.363 103.231 90.9427 102.928 90.414C102.625 89.8767 102.473 89.2657 102.473 88.581C102.473 87.8963 102.625 87.2897 102.928 86.761C103.231 86.2237 103.643 85.8033 104.163 85.5C104.692 85.188 105.29 85.032 105.957 85.032C106.616 85.032 107.205 85.188 107.725 85.5C108.254 85.8033 108.67 86.2237 108.973 86.761C109.276 87.2897 109.428 87.8963 109.428 88.581C109.428 89.2657 109.276 89.8767 108.973 90.414C108.67 90.9427 108.254 91.363 107.725 91.675C107.205 91.9783 106.616 92.13 105.957 92.13ZM105.957 90.908C106.364 90.908 106.728 90.8083 107.049 90.609C107.37 90.401 107.621 90.1237 107.803 89.777C107.985 89.4217 108.072 89.023 108.063 88.581C108.072 88.1303 107.985 87.7317 107.803 87.385C107.621 87.0297 107.37 86.7523 107.049 86.553C106.728 86.3537 106.364 86.254 105.957 86.254C105.55 86.254 105.181 86.358 104.852 86.566C104.531 86.7653 104.28 87.0427 104.098 87.398C103.916 87.7447 103.829 88.139 103.838 88.581C103.829 89.023 103.916 89.4217 104.098 89.777C104.28 90.1237 104.531 90.401 104.852 90.609C105.181 90.8083 105.55 90.908 105.957 90.908ZM110.887 94.86V85.175H112.239V86.735L112.031 86.618C112.083 86.358 112.231 86.111 112.473 85.877C112.716 85.6343 113.011 85.4393 113.357 85.292C113.713 85.136 114.077 85.058 114.449 85.058C115.065 85.058 115.611 85.2097 116.087 85.513C116.564 85.8163 116.941 86.2323 117.218 86.761C117.496 87.2897 117.634 87.8963 117.634 88.581C117.634 89.257 117.496 89.8637 117.218 90.401C116.95 90.9297 116.577 91.35 116.1 91.662C115.624 91.9653 115.086 92.117 114.488 92.117C114.09 92.117 113.704 92.039 113.331 91.883C112.959 91.7183 112.642 91.5103 112.382 91.259C112.122 91.0077 111.962 90.7477 111.901 90.479L112.239 90.297V94.86H110.887ZM114.267 90.882C114.666 90.882 115.021 90.7823 115.333 90.583C115.645 90.3837 115.892 90.1107 116.074 89.764C116.256 89.4173 116.347 89.023 116.347 88.581C116.347 88.139 116.256 87.749 116.074 87.411C115.901 87.0643 115.658 86.7913 115.346 86.592C115.034 86.3927 114.675 86.293 114.267 86.293C113.86 86.293 113.5 86.3927 113.188 86.592C112.876 86.7827 112.629 87.0513 112.447 87.398C112.265 87.7447 112.174 88.139 112.174 88.581C112.174 89.023 112.265 89.4173 112.447 89.764C112.629 90.1107 112.876 90.3837 113.188 90.583C113.5 90.7823 113.86 90.882 114.267 90.882ZM122.273 92.13C121.571 92.13 120.947 91.9827 120.401 91.688C119.864 91.3847 119.439 90.973 119.127 90.453C118.824 89.933 118.672 89.335 118.672 88.659C118.672 88.1217 118.759 87.632 118.932 87.19C119.106 86.748 119.344 86.3667 119.647 86.046C119.959 85.7167 120.328 85.4653 120.752 85.292C121.186 85.11 121.654 85.019 122.156 85.019C122.598 85.019 123.01 85.1057 123.391 85.279C123.773 85.4437 124.102 85.6733 124.379 85.968C124.665 86.2627 124.882 86.6137 125.029 87.021C125.185 87.4197 125.259 87.8573 125.25 88.334L125.237 88.906H119.66L119.361 87.84H124.08L123.885 88.061V87.749C123.859 87.463 123.764 87.2073 123.599 86.982C123.435 86.7567 123.227 86.579 122.975 86.449C122.724 86.319 122.451 86.254 122.156 86.254C121.688 86.254 121.294 86.345 120.973 86.527C120.653 86.7003 120.41 86.9603 120.245 87.307C120.081 87.645 119.998 88.0653 119.998 88.568C119.998 89.0447 120.098 89.4607 120.297 89.816C120.497 90.1627 120.778 90.4313 121.142 90.622C121.506 90.8127 121.927 90.908 122.403 90.908C122.741 90.908 123.053 90.8517 123.339 90.739C123.634 90.6263 123.95 90.4227 124.288 90.128L124.964 91.077C124.756 91.285 124.501 91.467 124.197 91.623C123.903 91.779 123.586 91.9047 123.248 92C122.919 92.0867 122.594 92.13 122.273 92.13ZM126.706 92V85.175H128.058V87.32L127.928 86.8C128.023 86.4707 128.183 86.1717 128.409 85.903C128.643 85.6343 128.907 85.422 129.202 85.266C129.505 85.11 129.817 85.032 130.138 85.032C130.285 85.032 130.424 85.045 130.554 85.071C130.692 85.097 130.801 85.1273 130.879 85.162L130.528 86.618C130.424 86.5747 130.307 86.54 130.177 86.514C130.055 86.4793 129.934 86.462 129.813 86.462C129.579 86.462 129.353 86.5097 129.137 86.605C128.929 86.6917 128.742 86.8173 128.578 86.982C128.422 87.138 128.296 87.3243 128.201 87.541C128.105 87.749 128.058 87.9787 128.058 88.23V92H126.706ZM134.89 93.716L140.246 82.9H141.533L136.19 93.716H134.89ZM146.81 92V82.9H150.372C151.022 82.9 151.607 83.0083 152.127 83.225C152.656 83.4417 153.106 83.7537 153.479 84.161C153.852 84.5683 154.138 85.0493 154.337 85.604C154.536 86.1587 154.636 86.774 154.636 87.45C154.636 88.126 154.536 88.7457 154.337 89.309C154.138 89.8637 153.852 90.3447 153.479 90.752C153.115 91.1507 152.669 91.4583 152.14 91.675C151.611 91.8917 151.022 92 150.372 92H146.81ZM148.214 90.791L148.175 90.648H150.307C150.766 90.648 151.174 90.5743 151.529 90.427C151.893 90.2797 152.196 90.0717 152.439 89.803C152.69 89.5257 152.881 89.1877 153.011 88.789C153.141 88.3903 153.206 87.944 153.206 87.45C153.206 86.956 153.141 86.514 153.011 86.124C152.881 85.7253 152.69 85.3873 152.439 85.11C152.188 84.8327 151.884 84.6203 151.529 84.473C151.174 84.3257 150.766 84.252 150.307 84.252H148.136L148.214 84.135V90.791ZM158.823 92.13C158.259 92.13 157.744 91.974 157.276 91.662C156.816 91.35 156.448 90.9253 156.171 90.388C155.893 89.8507 155.755 89.244 155.755 88.568C155.755 87.8833 155.893 87.2767 156.171 86.748C156.457 86.2107 156.838 85.7903 157.315 85.487C157.8 85.1837 158.342 85.032 158.94 85.032C159.295 85.032 159.62 85.084 159.915 85.188C160.209 85.292 160.465 85.4393 160.682 85.63C160.907 85.812 161.089 86.0243 161.228 86.267C161.375 86.5097 161.466 86.7697 161.501 87.047L161.202 86.943V85.175H162.554V92H161.202V90.375L161.514 90.284C161.462 90.518 161.353 90.7477 161.189 90.973C161.033 91.1897 160.829 91.3847 160.578 91.558C160.335 91.7313 160.062 91.87 159.759 91.974C159.464 92.078 159.152 92.13 158.823 92.13ZM159.174 90.895C159.581 90.895 159.941 90.7953 160.253 90.596C160.565 90.3967 160.807 90.1237 160.981 89.777C161.163 89.4217 161.254 89.0187 161.254 88.568C161.254 88.126 161.163 87.7317 160.981 87.385C160.807 87.0383 160.565 86.7653 160.253 86.566C159.941 86.3667 159.581 86.267 159.174 86.267C158.775 86.267 158.42 86.3667 158.108 86.566C157.804 86.7653 157.562 87.0383 157.38 87.385C157.206 87.7317 157.12 88.126 157.12 88.568C157.12 89.0187 157.206 89.4217 157.38 89.777C157.562 90.1237 157.804 90.3967 158.108 90.596C158.42 90.7953 158.775 90.895 159.174 90.895ZM165.268 92V83.433H166.607V92H165.268ZM163.851 86.475V85.175H168.193V86.475H163.851ZM171.975 92.13C171.412 92.13 170.896 91.974 170.428 91.662C169.969 91.35 169.6 90.9253 169.323 90.388C169.046 89.8507 168.907 89.244 168.907 88.568C168.907 87.8833 169.046 87.2767 169.323 86.748C169.609 86.2107 169.99 85.7903 170.467 85.487C170.952 85.1837 171.494 85.032 172.092 85.032C172.447 85.032 172.772 85.084 173.067 85.188C173.362 85.292 173.617 85.4393 173.834 85.63C174.059 85.812 174.241 86.0243 174.38 86.267C174.527 86.5097 174.618 86.7697 174.653 87.047L174.354 86.943V85.175H175.706V92H174.354V90.375L174.666 90.284C174.614 90.518 174.506 90.7477 174.341 90.973C174.185 91.1897 173.981 91.3847 173.73 91.558C173.487 91.7313 173.214 91.87 172.911 91.974C172.616 92.078 172.304 92.13 171.975 92.13ZM172.326 90.895C172.733 90.895 173.093 90.7953 173.405 90.596C173.717 90.3967 173.96 90.1237 174.133 89.777C174.315 89.4217 174.406 89.0187 174.406 88.568C174.406 88.126 174.315 87.7317 174.133 87.385C173.96 87.0383 173.717 86.7653 173.405 86.566C173.093 86.3667 172.733 86.267 172.326 86.267C171.927 86.267 171.572 86.3667 171.26 86.566C170.957 86.7653 170.714 87.0383 170.532 87.385C170.359 87.7317 170.272 88.126 170.272 88.568C170.272 89.0187 170.359 89.4217 170.532 89.777C170.714 90.1237 170.957 90.3967 171.26 90.596C171.572 90.7953 171.927 90.895 172.326 90.895ZM184.365 92.13C183.871 92.13 183.412 92.065 182.987 91.935C182.571 91.805 182.19 91.61 181.843 91.35C181.505 91.0813 181.202 90.752 180.933 90.362L181.895 89.257C182.32 89.8637 182.727 90.284 183.117 90.518C183.507 90.752 183.971 90.869 184.508 90.869C184.838 90.869 185.137 90.817 185.405 90.713C185.674 90.609 185.886 90.466 186.042 90.284C186.198 90.102 186.276 89.894 186.276 89.66C186.276 89.504 186.25 89.3567 186.198 89.218C186.146 89.0793 186.064 88.9537 185.951 88.841C185.847 88.7283 185.709 88.6243 185.535 88.529C185.371 88.4337 185.176 88.3513 184.95 88.282C184.725 88.204 184.465 88.139 184.17 88.087C183.702 87.9917 183.295 87.866 182.948 87.71C182.602 87.554 182.311 87.359 182.077 87.125C181.843 86.891 181.67 86.6267 181.557 86.332C181.445 86.0287 181.388 85.6907 181.388 85.318C181.388 84.954 181.466 84.616 181.622 84.304C181.787 83.992 182.008 83.7233 182.285 83.498C182.571 83.264 182.905 83.0863 183.286 82.965C183.668 82.835 184.079 82.77 184.521 82.77C184.989 82.77 185.418 82.8307 185.808 82.952C186.198 83.0733 186.545 83.2553 186.848 83.498C187.152 83.732 187.403 84.0223 187.602 84.369L186.614 85.344C186.441 85.058 186.246 84.8197 186.029 84.629C185.813 84.4297 185.574 84.2823 185.314 84.187C185.054 84.083 184.777 84.031 184.482 84.031C184.144 84.031 183.85 84.083 183.598 84.187C183.347 84.291 183.148 84.4383 183 84.629C182.862 84.811 182.792 85.0277 182.792 85.279C182.792 85.461 182.827 85.63 182.896 85.786C182.966 85.9333 183.07 86.0677 183.208 86.189C183.356 86.3017 183.551 86.4057 183.793 86.501C184.036 86.5877 184.326 86.6657 184.664 86.735C185.141 86.839 185.566 86.9733 185.938 87.138C186.311 87.294 186.627 87.4803 186.887 87.697C187.147 87.9137 187.342 88.1563 187.472 88.425C187.611 88.6937 187.68 88.984 187.68 89.296C187.68 89.8767 187.546 90.3793 187.277 90.804C187.009 91.2287 186.627 91.558 186.133 91.792C185.639 92.0173 185.05 92.13 184.365 92.13ZM192.231 92.13C191.598 92.13 191.03 91.974 190.528 91.662C190.034 91.35 189.639 90.9253 189.345 90.388C189.059 89.8507 188.916 89.2483 188.916 88.581C188.916 87.9137 189.059 87.3113 189.345 86.774C189.639 86.2367 190.034 85.812 190.528 85.5C191.03 85.188 191.598 85.032 192.231 85.032C192.837 85.032 193.388 85.1577 193.882 85.409C194.384 85.6517 194.766 85.9853 195.026 86.41L194.285 87.32C194.146 87.1207 193.968 86.9387 193.752 86.774C193.535 86.6093 193.305 86.4793 193.063 86.384C192.82 86.2887 192.586 86.241 192.361 86.241C191.945 86.241 191.572 86.345 191.243 86.553C190.922 86.7523 190.666 87.0297 190.476 87.385C190.285 87.7403 190.19 88.139 190.19 88.581C190.19 89.023 190.289 89.4217 190.489 89.777C190.688 90.1237 190.952 90.401 191.282 90.609C191.611 90.817 191.975 90.921 192.374 90.921C192.608 90.921 192.833 90.882 193.05 90.804C193.275 90.726 193.492 90.609 193.7 90.453C193.908 90.297 194.103 90.1063 194.285 89.881L195.026 90.791C194.748 91.181 194.35 91.5017 193.83 91.753C193.318 92.0043 192.785 92.13 192.231 92.13ZM196.51 92V85.175H197.849V92H196.51ZM197.16 83.667C196.874 83.667 196.653 83.5933 196.497 83.446C196.341 83.2987 196.263 83.0907 196.263 82.822C196.263 82.5707 196.341 82.367 196.497 82.211C196.661 82.055 196.882 81.977 197.16 81.977C197.446 81.977 197.667 82.0507 197.823 82.198C197.979 82.3453 198.057 82.5533 198.057 82.822C198.057 83.0733 197.974 83.277 197.81 83.433C197.654 83.589 197.437 83.667 197.16 83.667ZM203.092 92.13C202.39 92.13 201.766 91.9827 201.22 91.688C200.682 91.3847 200.258 90.973 199.946 90.453C199.642 89.933 199.491 89.335 199.491 88.659C199.491 88.1217 199.577 87.632 199.751 87.19C199.924 86.748 200.162 86.3667 200.466 86.046C200.778 85.7167 201.146 85.4653 201.571 85.292C202.004 85.11 202.472 85.019 202.975 85.019C203.417 85.019 203.828 85.1057 204.21 85.279C204.591 85.4437 204.92 85.6733 205.198 85.968C205.484 86.2627 205.7 86.6137 205.848 87.021C206.004 87.4197 206.077 87.8573 206.069 88.334L206.056 88.906H200.479L200.18 87.84H204.899L204.704 88.061V87.749C204.678 87.463 204.582 87.2073 204.418 86.982C204.253 86.7567 204.045 86.579 203.794 86.449C203.542 86.319 203.269 86.254 202.975 86.254C202.507 86.254 202.112 86.345 201.792 86.527C201.471 86.7003 201.228 86.9603 201.064 87.307C200.899 87.645 200.817 88.0653 200.817 88.568C200.817 89.0447 200.916 89.4607 201.116 89.816C201.315 90.1627 201.597 90.4313 201.961 90.622C202.325 90.8127 202.745 90.908 203.222 90.908C203.56 90.908 203.872 90.8517 204.158 90.739C204.452 90.6263 204.769 90.4227 205.107 90.128L205.783 91.077C205.575 91.285 205.319 91.467 205.016 91.623C204.721 91.779 204.405 91.9047 204.067 92C203.737 92.0867 203.412 92.13 203.092 92.13ZM207.524 92V85.175H208.863V86.579L208.629 86.735C208.716 86.4317 208.885 86.1543 209.136 85.903C209.387 85.643 209.686 85.435 210.033 85.279C210.38 85.1143 210.735 85.032 211.099 85.032C211.619 85.032 212.052 85.136 212.399 85.344C212.746 85.5433 213.006 85.851 213.179 86.267C213.352 86.683 213.439 87.2073 213.439 87.84V92H212.1V87.931C212.1 87.541 212.048 87.2203 211.944 86.969C211.84 86.709 211.68 86.5227 211.463 86.41C211.246 86.2887 210.978 86.2367 210.657 86.254C210.397 86.254 210.159 86.2973 209.942 86.384C209.725 86.462 209.535 86.5747 209.37 86.722C209.214 86.8693 209.088 87.0427 208.993 87.242C208.906 87.4327 208.863 87.6407 208.863 87.866V92H208.2C208.087 92 207.975 92 207.862 92C207.749 92 207.637 92 207.524 92ZM216.1 92V83.433H217.439V92H216.1ZM214.683 86.475V85.175H219.025V86.475H214.683ZM220.466 92V85.175H221.805V92H220.466ZM221.116 83.667C220.83 83.667 220.609 83.5933 220.453 83.446C220.297 83.2987 220.219 83.0907 220.219 82.822C220.219 82.5707 220.297 82.367 220.453 82.211C220.617 82.055 220.838 81.977 221.116 81.977C221.402 81.977 221.623 82.0507 221.779 82.198C221.935 82.3453 222.013 82.5533 222.013 82.822C222.013 83.0733 221.93 83.277 221.766 83.433C221.61 83.589 221.393 83.667 221.116 83.667ZM226.138 92.13C225.566 92.13 225.05 92.0303 224.591 91.831C224.131 91.6317 223.75 91.337 223.447 90.947L224.357 90.167C224.617 90.4703 224.898 90.6913 225.202 90.83C225.514 90.96 225.865 91.025 226.255 91.025C226.411 91.025 226.554 91.0077 226.684 90.973C226.822 90.9297 226.939 90.869 227.035 90.791C227.139 90.713 227.217 90.622 227.269 90.518C227.321 90.4053 227.347 90.284 227.347 90.154C227.347 89.9287 227.264 89.7467 227.1 89.608C227.013 89.5473 226.874 89.4823 226.684 89.413C226.502 89.335 226.263 89.257 225.969 89.179C225.466 89.049 225.054 88.9017 224.734 88.737C224.413 88.5723 224.166 88.386 223.993 88.178C223.863 88.0133 223.767 87.8357 223.707 87.645C223.646 87.4457 223.616 87.229 223.616 86.995C223.616 86.709 223.676 86.449 223.798 86.215C223.928 85.9723 224.101 85.7643 224.318 85.591C224.543 85.409 224.803 85.2703 225.098 85.175C225.401 85.0797 225.722 85.032 226.06 85.032C226.38 85.032 226.697 85.0753 227.009 85.162C227.329 85.2487 227.624 85.3743 227.893 85.539C228.161 85.7037 228.387 85.8987 228.569 86.124L227.802 86.969C227.637 86.8043 227.455 86.6613 227.256 86.54C227.065 86.41 226.87 86.3103 226.671 86.241C226.471 86.1717 226.289 86.137 226.125 86.137C225.943 86.137 225.778 86.1543 225.631 86.189C225.483 86.2237 225.358 86.2757 225.254 86.345C225.158 86.4143 225.085 86.501 225.033 86.605C224.981 86.709 224.955 86.826 224.955 86.956C224.963 87.0687 224.989 87.177 225.033 87.281C225.085 87.3763 225.154 87.4587 225.241 87.528C225.336 87.5973 225.479 87.671 225.67 87.749C225.86 87.827 226.103 87.9007 226.398 87.97C226.831 88.0827 227.186 88.2083 227.464 88.347C227.75 88.477 227.975 88.6287 228.14 88.802C228.313 88.9667 228.434 89.1573 228.504 89.374C228.573 89.5907 228.608 89.8333 228.608 90.102C228.608 90.492 228.495 90.843 228.27 91.155C228.053 91.4583 227.758 91.6967 227.386 91.87C227.013 92.0433 226.597 92.13 226.138 92.13ZM230.928 92V83.433H232.267V92H230.928ZM229.511 86.475V85.175H233.853V86.475H229.511ZM238.014 93.716L243.37 82.9H244.657L239.314 93.716H238.014ZM253.47 92.078C252.768 92.078 252.14 91.9263 251.585 91.623C251.031 91.311 250.593 90.8863 250.272 90.349C249.96 89.803 249.804 89.1877 249.804 88.503V82.887H251.208V88.386C251.208 88.828 251.312 89.2267 251.52 89.582C251.728 89.9287 252.001 90.206 252.339 90.414C252.686 90.622 253.063 90.726 253.47 90.726C253.904 90.726 254.294 90.622 254.64 90.414C254.996 90.206 255.277 89.9287 255.485 89.582C255.693 89.2267 255.797 88.828 255.797 88.386V82.887H257.136V88.503C257.136 89.1877 256.976 89.803 256.655 90.349C256.343 90.8863 255.91 91.311 255.355 91.623C254.801 91.9263 254.172 92.078 253.47 92.078ZM259.219 92V85.175H260.558V86.579L260.324 86.735C260.411 86.4317 260.58 86.1543 260.831 85.903C261.083 85.643 261.382 85.435 261.728 85.279C262.075 85.1143 262.43 85.032 262.794 85.032C263.314 85.032 263.748 85.136 264.094 85.344C264.441 85.5433 264.701 85.851 264.874 86.267C265.048 86.683 265.134 87.2073 265.134 87.84V92H263.795V87.931C263.795 87.541 263.743 87.2203 263.639 86.969C263.535 86.709 263.375 86.5227 263.158 86.41C262.942 86.2887 262.673 86.2367 262.352 86.254C262.092 86.254 261.854 86.2973 261.637 86.384C261.421 86.462 261.23 86.5747 261.065 86.722C260.909 86.8693 260.784 87.0427 260.688 87.242C260.602 87.4327 260.558 87.6407 260.558 87.866V92H259.895C259.783 92 259.67 92 259.557 92C259.445 92 259.332 92 259.219 92ZM269.798 92.13C269.174 92.13 268.615 91.9783 268.121 91.675C267.635 91.363 267.25 90.9427 266.964 90.414C266.678 89.8767 266.535 89.2657 266.535 88.581C266.535 87.8963 266.673 87.2897 266.951 86.761C267.237 86.2237 267.622 85.8033 268.108 85.5C268.593 85.188 269.143 85.032 269.759 85.032C270.097 85.032 270.422 85.0883 270.734 85.201C271.054 85.305 271.34 85.4523 271.592 85.643C271.843 85.825 272.038 86.0287 272.177 86.254C272.324 86.4707 272.398 86.6917 272.398 86.917L272.008 86.943V82.38H273.347V92H272.008V90.375H272.268C272.268 90.583 272.198 90.791 272.06 90.999C271.921 91.1983 271.735 91.3847 271.501 91.558C271.275 91.7313 271.011 91.87 270.708 91.974C270.413 92.078 270.11 92.13 269.798 92.13ZM269.98 90.973C270.387 90.973 270.747 90.869 271.059 90.661C271.371 90.453 271.613 90.1713 271.787 89.816C271.969 89.452 272.06 89.0403 272.06 88.581C272.06 88.1217 271.969 87.7143 271.787 87.359C271.613 86.995 271.371 86.709 271.059 86.501C270.747 86.293 270.387 86.189 269.98 86.189C269.572 86.189 269.213 86.293 268.901 86.501C268.589 86.709 268.342 86.995 268.16 87.359C267.986 87.7143 267.9 88.1217 267.9 88.581C267.9 89.0403 267.986 89.452 268.16 89.816C268.342 90.1713 268.589 90.453 268.901 90.661C269.213 90.869 269.572 90.973 269.98 90.973ZM278.375 92.13C277.673 92.13 277.049 91.9827 276.503 91.688C275.966 91.3847 275.541 90.973 275.229 90.453C274.926 89.933 274.774 89.335 274.774 88.659C274.774 88.1217 274.861 87.632 275.034 87.19C275.207 86.748 275.446 86.3667 275.749 86.046C276.061 85.7167 276.429 85.4653 276.854 85.292C277.287 85.11 277.755 85.019 278.258 85.019C278.7 85.019 279.112 85.1057 279.493 85.279C279.874 85.4437 280.204 85.6733 280.481 85.968C280.767 86.2627 280.984 86.6137 281.131 87.021C281.287 87.4197 281.361 87.8573 281.352 88.334L281.339 88.906H275.762L275.463 87.84H280.182L279.987 88.061V87.749C279.961 87.463 279.866 87.2073 279.701 86.982C279.536 86.7567 279.328 86.579 279.077 86.449C278.826 86.319 278.553 86.254 278.258 86.254C277.79 86.254 277.396 86.345 277.075 86.527C276.754 86.7003 276.512 86.9603 276.347 87.307C276.182 87.645 276.1 88.0653 276.1 88.568C276.1 89.0447 276.2 89.4607 276.399 89.816C276.598 90.1627 276.88 90.4313 277.244 90.622C277.608 90.8127 278.028 90.908 278.505 90.908C278.843 90.908 279.155 90.8517 279.441 90.739C279.736 90.6263 280.052 90.4227 280.39 90.128L281.066 91.077C280.858 91.285 280.602 91.467 280.299 91.623C280.004 91.779 279.688 91.9047 279.35 92C279.021 92.0867 278.696 92.13 278.375 92.13ZM282.807 92V85.175H284.159V87.32L284.029 86.8C284.124 86.4707 284.285 86.1717 284.51 85.903C284.744 85.6343 285.008 85.422 285.303 85.266C285.606 85.11 285.918 85.032 286.239 85.032C286.386 85.032 286.525 85.045 286.655 85.071C286.794 85.097 286.902 85.1273 286.98 85.162L286.629 86.618C286.525 86.5747 286.408 86.54 286.278 86.514C286.157 86.4793 286.035 86.462 285.914 86.462C285.68 86.462 285.455 86.5097 285.238 86.605C285.03 86.6917 284.844 86.8173 284.679 86.982C284.523 87.138 284.397 87.3243 284.302 87.541C284.207 87.749 284.159 87.9787 284.159 88.23V92H282.807ZM290.915 94.99C290.43 94.99 289.944 94.912 289.459 94.756C288.982 94.6087 288.597 94.4137 288.302 94.171L288.796 93.131C288.969 93.261 289.173 93.3737 289.407 93.469C289.641 93.573 289.888 93.651 290.148 93.703C290.408 93.7637 290.664 93.794 290.915 93.794C291.392 93.794 291.79 93.716 292.111 93.56C292.432 93.404 292.674 93.1743 292.839 92.871C293.004 92.5677 293.086 92.1907 293.086 91.74V90.427L293.229 90.518C293.186 90.7867 293.043 91.0467 292.8 91.298C292.566 91.5407 292.271 91.74 291.916 91.896C291.561 92.052 291.197 92.13 290.824 92.13C290.174 92.13 289.593 91.9783 289.082 91.675C288.579 91.363 288.181 90.9427 287.886 90.414C287.591 89.8767 287.444 89.2657 287.444 88.581C287.444 87.8963 287.587 87.2897 287.873 86.761C288.168 86.2237 288.566 85.8033 289.069 85.5C289.58 85.188 290.152 85.032 290.785 85.032C291.045 85.032 291.296 85.0667 291.539 85.136C291.782 85.1967 292.007 85.2877 292.215 85.409C292.423 85.5217 292.609 85.6473 292.774 85.786C292.939 85.9247 293.073 86.072 293.177 86.228C293.281 86.384 293.346 86.5313 293.372 86.67L293.086 86.774V85.175H294.425V91.584C294.425 92.13 294.343 92.611 294.178 93.027C294.022 93.4517 293.792 93.807 293.489 94.093C293.186 94.3877 292.817 94.6087 292.384 94.756C291.951 94.912 291.461 94.99 290.915 94.99ZM290.967 90.895C291.392 90.895 291.769 90.7953 292.098 90.596C292.427 90.3967 292.683 90.1237 292.865 89.777C293.047 89.4303 293.138 89.0317 293.138 88.581C293.138 88.1303 293.043 87.7317 292.852 87.385C292.67 87.0297 292.414 86.7523 292.085 86.553C291.764 86.3537 291.392 86.254 290.967 86.254C290.551 86.254 290.178 86.358 289.849 86.566C289.528 86.7653 289.273 87.0427 289.082 87.398C288.9 87.7447 288.809 88.139 288.809 88.581C288.809 89.023 288.9 89.4217 289.082 89.777C289.273 90.1237 289.528 90.3967 289.849 90.596C290.178 90.7953 290.551 90.895 290.967 90.895ZM296.302 92V85.175H297.654V87.32L297.524 86.8C297.62 86.4707 297.78 86.1717 298.005 85.903C298.239 85.6343 298.504 85.422 298.798 85.266C299.102 85.11 299.414 85.032 299.734 85.032C299.882 85.032 300.02 85.045 300.15 85.071C300.289 85.097 300.397 85.1273 300.475 85.162L300.124 86.618C300.02 86.5747 299.903 86.54 299.773 86.514C299.652 86.4793 299.531 86.462 299.409 86.462C299.175 86.462 298.95 86.5097 298.733 86.605C298.525 86.6917 298.339 86.8173 298.174 86.982C298.018 87.138 297.893 87.3243 297.797 87.541C297.702 87.749 297.654 87.9787 297.654 88.23V92H296.302ZM303.879 92.13C303.316 92.13 302.8 91.974 302.332 91.662C301.873 91.35 301.505 90.9253 301.227 90.388C300.95 89.8507 300.811 89.244 300.811 88.568C300.811 87.8833 300.95 87.2767 301.227 86.748C301.513 86.2107 301.895 85.7903 302.371 85.487C302.857 85.1837 303.398 85.032 303.996 85.032C304.352 85.032 304.677 85.084 304.971 85.188C305.266 85.292 305.522 85.4393 305.738 85.63C305.964 85.812 306.146 86.0243 306.284 86.267C306.432 86.5097 306.523 86.7697 306.557 87.047L306.258 86.943V85.175H307.61V92H306.258V90.375L306.57 90.284C306.518 90.518 306.41 90.7477 306.245 90.973C306.089 91.1897 305.886 91.3847 305.634 91.558C305.392 91.7313 305.119 91.87 304.815 91.974C304.521 92.078 304.209 92.13 303.879 92.13ZM304.23 90.895C304.638 90.895 304.997 90.7953 305.309 90.596C305.621 90.3967 305.864 90.1237 306.037 89.777C306.219 89.4217 306.31 89.0187 306.31 88.568C306.31 88.126 306.219 87.7317 306.037 87.385C305.864 87.0383 305.621 86.7653 305.309 86.566C304.997 86.3667 304.638 86.267 304.23 86.267C303.832 86.267 303.476 86.3667 303.164 86.566C302.861 86.7653 302.618 87.0383 302.436 87.385C302.263 87.7317 302.176 88.126 302.176 88.568C302.176 89.0187 302.263 89.4217 302.436 89.777C302.618 90.1237 302.861 90.3967 303.164 90.596C303.476 90.7953 303.832 90.895 304.23 90.895ZM312.327 92.13C311.703 92.13 311.144 91.9783 310.65 91.675C310.165 91.363 309.779 90.9427 309.493 90.414C309.207 89.8767 309.064 89.2657 309.064 88.581C309.064 87.8963 309.203 87.2897 309.48 86.761C309.766 86.2237 310.152 85.8033 310.637 85.5C311.122 85.188 311.673 85.032 312.288 85.032C312.626 85.032 312.951 85.0883 313.263 85.201C313.584 85.305 313.87 85.4523 314.121 85.643C314.372 85.825 314.567 86.0287 314.706 86.254C314.853 86.4707 314.927 86.6917 314.927 86.917L314.537 86.943V82.38H315.876V92H314.537V90.375H314.797C314.797 90.583 314.728 90.791 314.589 90.999C314.45 91.1983 314.264 91.3847 314.03 91.558C313.805 91.7313 313.54 91.87 313.237 91.974C312.942 92.078 312.639 92.13 312.327 92.13ZM312.509 90.973C312.916 90.973 313.276 90.869 313.588 90.661C313.9 90.453 314.143 90.1713 314.316 89.816C314.498 89.452 314.589 89.0403 314.589 88.581C314.589 88.1217 314.498 87.7143 314.316 87.359C314.143 86.995 313.9 86.709 313.588 86.501C313.276 86.293 312.916 86.189 312.509 86.189C312.102 86.189 311.742 86.293 311.43 86.501C311.118 86.709 310.871 86.995 310.689 87.359C310.516 87.7143 310.429 88.1217 310.429 88.581C310.429 89.0403 310.516 89.452 310.689 89.816C310.871 90.1713 311.118 90.453 311.43 90.661C311.742 90.869 312.102 90.973 312.509 90.973ZM320.314 92.13C319.829 92.13 319.404 92.0173 319.04 91.792C318.685 91.5667 318.408 91.2503 318.208 90.843C318.018 90.4357 317.922 89.9503 317.922 89.387V85.175H319.261V89.023C319.261 89.4217 319.322 89.7683 319.443 90.063C319.573 90.349 319.755 90.57 319.989 90.726C320.232 90.882 320.522 90.96 320.86 90.96C321.112 90.96 321.341 90.921 321.549 90.843C321.757 90.7563 321.935 90.6393 322.082 90.492C322.238 90.3447 322.36 90.167 322.446 89.959C322.533 89.751 322.576 89.5257 322.576 89.283V85.175H323.915V92H322.576V90.57L322.81 90.414C322.706 90.7347 322.529 91.025 322.277 91.285C322.035 91.545 321.744 91.753 321.406 91.909C321.068 92.0563 320.704 92.13 320.314 92.13ZM328.419 92.13C327.856 92.13 327.34 91.974 326.872 91.662C326.413 91.35 326.045 90.9253 325.767 90.388C325.49 89.8507 325.351 89.244 325.351 88.568C325.351 87.8833 325.49 87.2767 325.767 86.748C326.053 86.2107 326.435 85.7903 326.911 85.487C327.397 85.1837 327.938 85.032 328.536 85.032C328.892 85.032 329.217 85.084 329.511 85.188C329.806 85.292 330.062 85.4393 330.278 85.63C330.504 85.812 330.686 86.0243 330.824 86.267C330.972 86.5097 331.063 86.7697 331.097 87.047L330.798 86.943V85.175H332.15V92H330.798V90.375L331.11 90.284C331.058 90.518 330.95 90.7477 330.785 90.973C330.629 91.1897 330.426 91.3847 330.174 91.558C329.932 91.7313 329.659 91.87 329.355 91.974C329.061 92.078 328.749 92.13 328.419 92.13ZM328.77 90.895C329.178 90.895 329.537 90.7953 329.849 90.596C330.161 90.3967 330.404 90.1237 330.577 89.777C330.759 89.4217 330.85 89.0187 330.85 88.568C330.85 88.126 330.759 87.7317 330.577 87.385C330.404 87.0383 330.161 86.7653 329.849 86.566C329.537 86.3667 329.178 86.267 328.77 86.267C328.372 86.267 328.016 86.3667 327.704 86.566C327.401 86.7653 327.158 87.0383 326.976 87.385C326.803 87.7317 326.716 88.126 326.716 88.568C326.716 89.0187 326.803 89.4217 326.976 89.777C327.158 90.1237 327.401 90.3967 327.704 90.596C328.016 90.7953 328.372 90.895 328.77 90.895ZM334.865 92V83.433H336.204V92H334.865ZM333.448 86.475V85.175H337.79V86.475H333.448ZM342.131 92.13C341.429 92.13 340.805 91.9827 340.259 91.688C339.721 91.3847 339.297 90.973 338.985 90.453C338.681 89.933 338.53 89.335 338.53 88.659C338.53 88.1217 338.616 87.632 338.79 87.19C338.963 86.748 339.201 86.3667 339.505 86.046C339.817 85.7167 340.185 85.4653 340.61 85.292C341.043 85.11 341.511 85.019 342.014 85.019C342.456 85.019 342.867 85.1057 343.249 85.279C343.63 85.4437 343.959 85.6733 344.237 85.968C344.523 86.2627 344.739 86.6137 344.887 87.021C345.043 87.4197 345.116 87.8573 345.108 88.334L345.095 88.906H339.518L339.219 87.84H343.938L343.743 88.061V87.749C343.717 87.463 343.621 87.2073 343.457 86.982C343.292 86.7567 343.084 86.579 342.833 86.449C342.581 86.319 342.308 86.254 342.014 86.254C341.546 86.254 341.151 86.345 340.831 86.527C340.51 86.7003 340.267 86.9603 340.103 87.307C339.938 87.645 339.856 88.0653 339.856 88.568C339.856 89.0447 339.955 89.4607 340.155 89.816C340.354 90.1627 340.636 90.4313 341 90.622C341.364 90.8127 341.784 90.908 342.261 90.908C342.599 90.908 342.911 90.8517 343.197 90.739C343.491 90.6263 343.808 90.4227 344.146 90.128L344.822 91.077C344.614 91.285 344.358 91.467 344.055 91.623C343.76 91.779 343.444 91.9047 343.106 92C342.776 92.0867 342.451 92.13 342.131 92.13ZM353.353 92.13C352.859 92.13 352.399 92.065 351.975 91.935C351.559 91.805 351.177 91.61 350.831 91.35C350.493 91.0813 350.189 90.752 349.921 90.362L350.883 89.257C351.307 89.8637 351.715 90.284 352.105 90.518C352.495 90.752 352.958 90.869 353.496 90.869C353.825 90.869 354.124 90.817 354.393 90.713C354.661 90.609 354.874 90.466 355.03 90.284C355.186 90.102 355.264 89.894 355.264 89.66C355.264 89.504 355.238 89.3567 355.186 89.218C355.134 89.0793 355.051 88.9537 354.939 88.841C354.835 88.7283 354.696 88.6243 354.523 88.529C354.358 88.4337 354.163 88.3513 353.938 88.282C353.712 88.204 353.452 88.139 353.158 88.087C352.69 87.9917 352.282 87.866 351.936 87.71C351.589 87.554 351.299 87.359 351.065 87.125C350.831 86.891 350.657 86.6267 350.545 86.332C350.432 86.0287 350.376 85.6907 350.376 85.318C350.376 84.954 350.454 84.616 350.61 84.304C350.774 83.992 350.995 83.7233 351.273 83.498C351.559 83.264 351.892 83.0863 352.274 82.965C352.655 82.835 353.067 82.77 353.509 82.77C353.977 82.77 354.406 82.8307 354.796 82.952C355.186 83.0733 355.532 83.2553 355.836 83.498C356.139 83.732 356.39 84.0223 356.59 84.369L355.602 85.344C355.428 85.058 355.233 84.8197 355.017 84.629C354.8 84.4297 354.562 84.2823 354.302 84.187C354.042 84.083 353.764 84.031 353.47 84.031C353.132 84.031 352.837 84.083 352.586 84.187C352.334 84.291 352.135 84.4383 351.988 84.629C351.849 84.811 351.78 85.0277 351.78 85.279C351.78 85.461 351.814 85.63 351.884 85.786C351.953 85.9333 352.057 86.0677 352.196 86.189C352.343 86.3017 352.538 86.4057 352.781 86.501C353.023 86.5877 353.314 86.6657 353.652 86.735C354.128 86.839 354.553 86.9733 354.926 87.138C355.298 87.294 355.615 87.4803 355.875 87.697C356.135 87.9137 356.33 88.1563 356.46 88.425C356.598 88.6937 356.668 88.984 356.668 89.296C356.668 89.8767 356.533 90.3793 356.265 90.804C355.996 91.2287 355.615 91.558 355.121 91.792C354.627 92.0173 354.037 92.13 353.353 92.13ZM359.164 92V83.433H360.503V92H359.164ZM357.747 86.475V85.175H362.089V86.475H357.747ZM365.7 92.13C365.215 92.13 364.79 92.0173 364.426 91.792C364.071 91.5667 363.793 91.2503 363.594 90.843C363.403 90.4357 363.308 89.9503 363.308 89.387V85.175H364.647V89.023C364.647 89.4217 364.708 89.7683 364.829 90.063C364.959 90.349 365.141 90.57 365.375 90.726C365.618 90.882 365.908 90.96 366.246 90.96C366.497 90.96 366.727 90.921 366.935 90.843C367.143 90.7563 367.321 90.6393 367.468 90.492C367.624 90.3447 367.745 90.167 367.832 89.959C367.919 89.751 367.962 89.5257 367.962 89.283V85.175H369.301V92H367.962V90.57L368.196 90.414C368.092 90.7347 367.914 91.025 367.663 91.285C367.42 91.545 367.13 91.753 366.792 91.909C366.454 92.0563 366.09 92.13 365.7 92.13ZM374.026 92.13C373.402 92.13 372.843 91.9783 372.349 91.675C371.864 91.363 371.478 90.9427 371.192 90.414C370.906 89.8767 370.763 89.2657 370.763 88.581C370.763 87.8963 370.902 87.2897 371.179 86.761C371.465 86.2237 371.851 85.8033 372.336 85.5C372.822 85.188 373.372 85.032 373.987 85.032C374.325 85.032 374.65 85.0883 374.962 85.201C375.283 85.305 375.569 85.4523 375.82 85.643C376.072 85.825 376.267 86.0287 376.405 86.254C376.553 86.4707 376.626 86.6917 376.626 86.917L376.236 86.943V82.38H377.575V92H376.236V90.375H376.496C376.496 90.583 376.427 90.791 376.288 90.999C376.15 91.1983 375.963 91.3847 375.729 91.558C375.504 91.7313 375.24 91.87 374.936 91.974C374.642 92.078 374.338 92.13 374.026 92.13ZM374.208 90.973C374.616 90.973 374.975 90.869 375.287 90.661C375.599 90.453 375.842 90.1713 376.015 89.816C376.197 89.452 376.288 89.0403 376.288 88.581C376.288 88.1217 376.197 87.7143 376.015 87.359C375.842 86.995 375.599 86.709 375.287 86.501C374.975 86.293 374.616 86.189 374.208 86.189C373.801 86.189 373.441 86.293 373.129 86.501C372.817 86.709 372.57 86.995 372.388 87.359C372.215 87.7143 372.128 88.1217 372.128 88.581C372.128 89.0403 372.215 89.452 372.388 89.816C372.57 90.1713 372.817 90.453 373.129 90.661C373.441 90.869 373.801 90.973 374.208 90.973ZM382.603 92.13C381.901 92.13 381.277 91.9827 380.731 91.688C380.194 91.3847 379.769 90.973 379.457 90.453C379.154 89.933 379.002 89.335 379.002 88.659C379.002 88.1217 379.089 87.632 379.262 87.19C379.436 86.748 379.674 86.3667 379.977 86.046C380.289 85.7167 380.658 85.4653 381.082 85.292C381.516 85.11 381.984 85.019 382.486 85.019C382.928 85.019 383.34 85.1057 383.721 85.279C384.103 85.4437 384.432 85.6733 384.709 85.968C384.995 86.2627 385.212 86.6137 385.359 87.021C385.515 87.4197 385.589 87.8573 385.58 88.334L385.567 88.906H379.99L379.691 87.84H384.41L384.215 88.061V87.749C384.189 87.463 384.094 87.2073 383.929 86.982C383.765 86.7567 383.557 86.579 383.305 86.449C383.054 86.319 382.781 86.254 382.486 86.254C382.018 86.254 381.624 86.345 381.303 86.527C380.983 86.7003 380.74 86.9603 380.575 87.307C380.411 87.645 380.328 88.0653 380.328 88.568C380.328 89.0447 380.428 89.4607 380.627 89.816C380.827 90.1627 381.108 90.4313 381.472 90.622C381.836 90.8127 382.257 90.908 382.733 90.908C383.071 90.908 383.383 90.8517 383.669 90.739C383.964 90.6263 384.28 90.4227 384.618 90.128L385.294 91.077C385.086 91.285 384.831 91.467 384.527 91.623C384.233 91.779 383.916 91.9047 383.578 92C383.249 92.0867 382.924 92.13 382.603 92.13ZM387.036 92V85.175H388.375V86.579L388.141 86.735C388.227 86.4317 388.396 86.1543 388.648 85.903C388.899 85.643 389.198 85.435 389.545 85.279C389.891 85.1143 390.247 85.032 390.611 85.032C391.131 85.032 391.564 85.136 391.911 85.344C392.257 85.5433 392.517 85.851 392.691 86.267C392.864 86.683 392.951 87.2073 392.951 87.84V92H391.612V87.931C391.612 87.541 391.56 87.2203 391.456 86.969C391.352 86.709 391.191 86.5227 390.975 86.41C390.758 86.2887 390.489 86.2367 390.169 86.254C389.909 86.254 389.67 86.2973 389.454 86.384C389.237 86.462 389.046 86.5747 388.882 86.722C388.726 86.8693 388.6 87.0427 388.505 87.242C388.418 87.4327 388.375 87.6407 388.375 87.866V92H387.712C387.599 92 387.486 92 387.374 92C387.261 92 387.148 92 387.036 92ZM395.612 92V83.433H396.951V92H395.612ZM394.195 86.475V85.175H398.537V86.475H394.195Z" fill="black"/>
<path d="M11.5166 109V103.08H12.3406V105.664L12.1966 105.76C12.25 105.573 12.354 105.403 12.5086 105.248C12.6633 105.088 12.8473 104.96 13.0606 104.864C13.274 104.763 13.4926 104.712 13.7166 104.712C14.0366 104.712 14.3033 104.776 14.5166 104.904C14.73 105.027 14.89 105.216 14.9966 105.472C15.1033 105.728 15.1566 106.051 15.1566 106.44V109H14.3326V106.496C14.3326 106.256 14.3006 106.059 14.2366 105.904C14.1726 105.744 14.074 105.629 13.9406 105.56C13.8073 105.485 13.642 105.453 13.4446 105.464C13.2846 105.464 13.138 105.491 13.0046 105.544C12.8713 105.592 12.754 105.661 12.6526 105.752C12.5566 105.843 12.4793 105.949 12.4206 106.072C12.3673 106.189 12.3406 106.317 12.3406 106.456V109H11.9326C11.8633 109 11.794 109 11.7246 109C11.6553 109 11.586 109 11.5166 109ZM16.7944 109V103.728H17.6184V109H16.7944ZM15.9224 105.6V104.8H18.5944V105.6H15.9224ZM19.8648 109V103.728H20.6888V109H19.8648ZM18.9928 105.6V104.8H21.6648V105.6H18.9928ZM22.4151 110.76V104.8H23.2471V105.76L23.1191 105.688C23.1511 105.528 23.2417 105.376 23.3911 105.232C23.5404 105.083 23.7217 104.963 23.9351 104.872C24.1537 104.776 24.3777 104.728 24.6071 104.728C24.9857 104.728 25.3217 104.821 25.6151 105.008C25.9084 105.195 26.1404 105.451 26.3111 105.776C26.4817 106.101 26.5671 106.475 26.5671 106.896C26.5671 107.312 26.4817 107.685 26.3111 108.016C26.1457 108.341 25.9164 108.6 25.6231 108.792C25.3297 108.979 24.9991 109.072 24.6311 109.072C24.3857 109.072 24.1484 109.024 23.9191 108.928C23.6897 108.827 23.4951 108.699 23.3351 108.544C23.1751 108.389 23.0764 108.229 23.0391 108.064L23.2471 107.952V110.76H22.4151ZM24.4951 108.312C24.7404 108.312 24.9591 108.251 25.1511 108.128C25.3431 108.005 25.4951 107.837 25.6071 107.624C25.7191 107.411 25.7751 107.168 25.7751 106.896C25.7751 106.624 25.7191 106.384 25.6071 106.176C25.5004 105.963 25.3511 105.795 25.1591 105.672C24.9671 105.549 24.7457 105.488 24.4951 105.488C24.2444 105.488 24.0231 105.549 23.8311 105.672C23.6391 105.789 23.4871 105.955 23.3751 106.168C23.2631 106.381 23.2071 106.624 23.2071 106.896C23.2071 107.168 23.2631 107.411 23.3751 107.624C23.4871 107.837 23.6391 108.005 23.8311 108.128C24.0231 108.251 24.2444 108.312 24.4951 108.312ZM28.8619 109.08C28.5099 109.08 28.1926 109.019 27.9099 108.896C27.6273 108.773 27.3926 108.592 27.2059 108.352L27.7659 107.872C27.9259 108.059 28.0993 108.195 28.2859 108.28C28.4779 108.36 28.6939 108.4 28.9339 108.4C29.0299 108.4 29.1179 108.389 29.1979 108.368C29.2833 108.341 29.3553 108.304 29.4139 108.256C29.4779 108.208 29.5259 108.152 29.5579 108.088C29.5899 108.019 29.6059 107.944 29.6059 107.864C29.6059 107.725 29.5553 107.613 29.4539 107.528C29.4006 107.491 29.3153 107.451 29.1979 107.408C29.0859 107.36 28.9393 107.312 28.7579 107.264C28.4486 107.184 28.1953 107.093 27.9979 106.992C27.8006 106.891 27.6486 106.776 27.5419 106.648C27.4619 106.547 27.4033 106.437 27.3659 106.32C27.3286 106.197 27.3099 106.064 27.3099 105.92C27.3099 105.744 27.3473 105.584 27.4219 105.44C27.5019 105.291 27.6086 105.163 27.7419 105.056C27.8806 104.944 28.0406 104.859 28.2219 104.8C28.4086 104.741 28.6059 104.712 28.8139 104.712C29.0113 104.712 29.2059 104.739 29.3979 104.792C29.5953 104.845 29.7766 104.923 29.9419 105.024C30.1073 105.125 30.2459 105.245 30.3579 105.384L29.8859 105.904C29.7846 105.803 29.6726 105.715 29.5499 105.64C29.4326 105.56 29.3126 105.499 29.1899 105.456C29.0673 105.413 28.9553 105.392 28.8539 105.392C28.7419 105.392 28.6406 105.403 28.5499 105.424C28.4593 105.445 28.3819 105.477 28.3179 105.52C28.2593 105.563 28.2139 105.616 28.1819 105.68C28.1499 105.744 28.1339 105.816 28.1339 105.896C28.1393 105.965 28.1553 106.032 28.1819 106.096C28.2139 106.155 28.2566 106.205 28.3099 106.248C28.3686 106.291 28.4566 106.336 28.5739 106.384C28.6913 106.432 28.8406 106.477 29.0219 106.52C29.2886 106.589 29.5073 106.667 29.6779 106.752C29.8539 106.832 29.9926 106.925 30.0939 107.032C30.2006 107.133 30.2753 107.251 30.3179 107.384C30.3606 107.517 30.3819 107.667 30.3819 107.832C30.3819 108.072 30.3126 108.288 30.1739 108.48C30.0406 108.667 29.8593 108.813 29.6299 108.92C29.4006 109.027 29.1446 109.08 28.8619 109.08ZM31.6261 109.08C31.4501 109.08 31.3141 109.029 31.2181 108.928C31.1221 108.821 31.0741 108.672 31.0741 108.48C31.0741 108.304 31.1247 108.16 31.2261 108.048C31.3274 107.936 31.4607 107.88 31.6261 107.88C31.8021 107.88 31.9381 107.933 32.0341 108.04C32.1301 108.141 32.1781 108.288 32.1781 108.48C32.1781 108.656 32.1274 108.8 32.0261 108.912C31.9247 109.024 31.7914 109.08 31.6261 109.08ZM31.6261 105.92C31.4501 105.92 31.3141 105.869 31.2181 105.768C31.1221 105.661 31.0741 105.512 31.0741 105.32C31.0741 105.144 31.1247 105 31.2261 104.888C31.3274 104.776 31.4607 104.72 31.6261 104.72C31.8021 104.72 31.9381 104.773 32.0341 104.88C32.1301 104.981 32.1781 105.128 32.1781 105.32C32.1781 105.496 32.1274 105.64 32.0261 105.752C31.9247 105.864 31.7914 105.92 31.6261 105.92ZM32.6784 110.056L35.9744 103.4H36.7664L33.4784 110.056H32.6784ZM36.3971 110.056L39.6931 103.4H40.4851L37.1971 110.056H36.3971ZM41.2823 109V104.8H42.1143V106.12L42.0343 105.8C42.0929 105.597 42.1916 105.413 42.3303 105.248C42.4743 105.083 42.6369 104.952 42.8183 104.856C43.0049 104.76 43.1969 104.712 43.3943 104.712C43.4849 104.712 43.5703 104.72 43.6503 104.736C43.7356 104.752 43.8023 104.771 43.8503 104.792L43.6343 105.688C43.5703 105.661 43.4983 105.64 43.4183 105.624C43.3436 105.603 43.2689 105.592 43.1943 105.592C43.0503 105.592 42.9116 105.621 42.7783 105.68C42.6503 105.733 42.5356 105.811 42.4343 105.912C42.3383 106.008 42.2609 106.123 42.2023 106.256C42.1436 106.384 42.1143 106.525 42.1143 106.68V109H41.2823ZM44.6448 109V104.8H45.4688V109H44.6448ZM45.0448 103.872C44.8688 103.872 44.7328 103.827 44.6368 103.736C44.5408 103.645 44.4928 103.517 44.4928 103.352C44.4928 103.197 44.5408 103.072 44.6368 102.976C44.7381 102.88 44.8741 102.832 45.0448 102.832C45.2208 102.832 45.3568 102.877 45.4528 102.968C45.5488 103.059 45.5968 103.187 45.5968 103.352C45.5968 103.507 45.5461 103.632 45.4448 103.728C45.3488 103.824 45.2155 103.872 45.0448 103.872ZM48.5194 109.08C48.13 109.08 47.7807 108.984 47.4714 108.792C47.1674 108.6 46.9247 108.339 46.7434 108.008C46.5674 107.677 46.4794 107.307 46.4794 106.896C46.4794 106.485 46.5674 106.115 46.7434 105.784C46.9247 105.453 47.1674 105.192 47.4714 105C47.7807 104.808 48.13 104.712 48.5194 104.712C48.8927 104.712 49.2314 104.789 49.5354 104.944C49.8447 105.093 50.0794 105.299 50.2394 105.56L49.7834 106.12C49.698 105.997 49.5887 105.885 49.4554 105.784C49.322 105.683 49.1807 105.603 49.0314 105.544C48.882 105.485 48.738 105.456 48.5994 105.456C48.3434 105.456 48.114 105.52 47.9114 105.648C47.714 105.771 47.5567 105.941 47.4394 106.16C47.322 106.379 47.2634 106.624 47.2634 106.896C47.2634 107.168 47.3247 107.413 47.4474 107.632C47.57 107.845 47.7327 108.016 47.9354 108.144C48.138 108.272 48.362 108.336 48.6074 108.336C48.7514 108.336 48.89 108.312 49.0234 108.264C49.162 108.216 49.2954 108.144 49.4234 108.048C49.5514 107.952 49.6714 107.835 49.7834 107.696L50.2394 108.256C50.0687 108.496 49.8234 108.693 49.5034 108.848C49.1887 109.003 48.8607 109.08 48.5194 109.08ZM51.7686 107.688L51.7286 106.792L53.7366 104.8H54.8486L51.7686 107.688ZM51.0166 109V103.08H51.8406V109H51.0166ZM53.8486 109L52.2646 107.152L52.8486 106.616L54.9046 109H53.8486ZM56.2675 110.84L57.1155 108.88L57.1235 109.536L55.0275 104.8H55.9875L57.2995 107.888C57.3262 107.941 57.3582 108.024 57.3955 108.136C57.4328 108.243 57.4648 108.349 57.4915 108.456L57.2835 108.504C57.3262 108.392 57.3662 108.28 57.4035 108.168C57.4462 108.056 57.4862 107.944 57.5235 107.832L58.6195 104.8H59.5955L57.8675 109L57.1555 110.84H56.2675ZM60.2119 109V104.8H61.0359V105.664L60.8919 105.76C60.9453 105.573 61.0493 105.403 61.2039 105.248C61.3586 105.088 61.5426 104.96 61.7559 104.864C61.9693 104.763 62.1879 104.712 62.4119 104.712C62.7319 104.712 62.9986 104.776 63.2119 104.904C63.4253 105.027 63.5853 105.216 63.6919 105.472C63.7986 105.728 63.8519 106.051 63.8519 106.44V109H63.0279V106.496C63.0279 106.256 62.9959 106.059 62.9319 105.904C62.8679 105.744 62.7693 105.629 62.6359 105.56C62.5026 105.485 62.3373 105.453 62.1399 105.464C61.9799 105.464 61.8333 105.491 61.6999 105.544C61.5666 105.592 61.4493 105.661 61.3479 105.752C61.2519 105.843 61.1746 105.949 61.1159 106.072C61.0626 106.189 61.0359 106.317 61.0359 106.456V109H60.6279C60.5586 109 60.4893 109 60.4199 109C60.3506 109 60.2813 109 60.2119 109ZM66.8498 110.84C66.5511 110.84 66.2524 110.792 65.9538 110.696C65.6604 110.605 65.4231 110.485 65.2418 110.336L65.5458 109.696C65.6524 109.776 65.7778 109.845 65.9218 109.904C66.0658 109.968 66.2178 110.016 66.3778 110.048C66.5378 110.085 66.6951 110.104 66.8498 110.104C67.1431 110.104 67.3884 110.056 67.5858 109.96C67.7831 109.864 67.9324 109.723 68.0338 109.536C68.1351 109.349 68.1858 109.117 68.1858 108.84V108.032L68.2738 108.088C68.2471 108.253 68.1591 108.413 68.0098 108.568C67.8658 108.717 67.6844 108.84 67.4658 108.936C67.2471 109.032 67.0231 109.08 66.7938 109.08C66.3938 109.08 66.0364 108.987 65.7218 108.8C65.4124 108.608 65.1671 108.349 64.9858 108.024C64.8044 107.693 64.7138 107.317 64.7138 106.896C64.7138 106.475 64.8018 106.101 64.9778 105.776C65.1591 105.445 65.4044 105.187 65.7138 105C66.0284 104.808 66.3804 104.712 66.7698 104.712C66.9298 104.712 67.0844 104.733 67.2338 104.776C67.3831 104.813 67.5218 104.869 67.6498 104.944C67.7778 105.013 67.8924 105.091 67.9938 105.176C68.0951 105.261 68.1778 105.352 68.2418 105.448C68.3058 105.544 68.3458 105.635 68.3618 105.72L68.1858 105.784V104.8H69.0098V108.744C69.0098 109.08 68.9591 109.376 68.8578 109.632C68.7618 109.893 68.6204 110.112 68.4338 110.288C68.2471 110.469 68.0204 110.605 67.7538 110.696C67.4871 110.792 67.1858 110.84 66.8498 110.84ZM66.8818 108.32C67.1431 108.32 67.3751 108.259 67.5778 108.136C67.7804 108.013 67.9378 107.845 68.0498 107.632C68.1618 107.419 68.2178 107.173 68.2178 106.896C68.2178 106.619 68.1591 106.373 68.0418 106.16C67.9298 105.941 67.7724 105.771 67.5698 105.648C67.3724 105.525 67.1431 105.464 66.8818 105.464C66.6258 105.464 66.3964 105.528 66.1938 105.656C65.9964 105.779 65.8391 105.949 65.7218 106.168C65.6098 106.381 65.5538 106.624 65.5538 106.896C65.5538 107.168 65.6098 107.413 65.7218 107.632C65.8391 107.845 65.9964 108.013 66.1938 108.136C66.3964 108.259 66.6258 108.32 66.8818 108.32ZM71.5746 109.08C71.2759 109.08 71.0146 109.011 70.7906 108.872C70.5719 108.733 70.4012 108.539 70.2786 108.288C70.1612 108.037 70.1026 107.739 70.1026 107.392V104.8H70.9266V107.168C70.9266 107.413 70.9639 107.627 71.0386 107.808C71.1186 107.984 71.2306 108.12 71.3746 108.216C71.5239 108.312 71.7026 108.36 71.9106 108.36C72.0652 108.36 72.2066 108.336 72.3346 108.288C72.4626 108.235 72.5719 108.163 72.6626 108.072C72.7586 107.981 72.8332 107.872 72.8866 107.744C72.9399 107.616 72.9666 107.477 72.9666 107.328V104.8H73.7906V109H72.9666V108.12L73.1106 108.024C73.0466 108.221 72.9372 108.4 72.7826 108.56C72.6332 108.72 72.4546 108.848 72.2466 108.944C72.0386 109.035 71.8146 109.08 71.5746 109.08ZM75.6503 110.84L76.4983 108.88L76.5063 109.536L74.4103 104.8H75.3703L76.6823 107.888C76.709 107.941 76.741 108.024 76.7783 108.136C76.8156 108.243 76.8476 108.349 76.8743 108.456L76.6663 108.504C76.709 108.392 76.749 108.28 76.7863 108.168C76.829 108.056 76.869 107.944 76.9063 107.832L78.0023 104.8H78.9783L77.2503 109L76.5383 110.84H75.6503ZM81.4766 109.08C81.0446 109.08 80.6606 108.989 80.3246 108.808C79.994 108.621 79.7326 108.368 79.5406 108.048C79.354 107.728 79.2606 107.36 79.2606 106.944C79.2606 106.613 79.314 106.312 79.4206 106.04C79.5273 105.768 79.674 105.533 79.8606 105.336C80.0526 105.133 80.2793 104.979 80.5406 104.872C80.8073 104.76 81.0953 104.704 81.4046 104.704C81.6766 104.704 81.93 104.757 82.1646 104.864C82.3993 104.965 82.602 105.107 82.7726 105.288C82.9486 105.469 83.082 105.685 83.1726 105.936C83.2686 106.181 83.314 106.451 83.3086 106.744L83.3006 107.096H79.8686L79.6846 106.44H82.5886L82.4686 106.576V106.384C82.4526 106.208 82.394 106.051 82.2926 105.912C82.1913 105.773 82.0633 105.664 81.9086 105.584C81.754 105.504 81.586 105.464 81.4046 105.464C81.1166 105.464 80.874 105.52 80.6766 105.632C80.4793 105.739 80.33 105.899 80.2286 106.112C80.1273 106.32 80.0766 106.579 80.0766 106.888C80.0766 107.181 80.138 107.437 80.2606 107.656C80.3833 107.869 80.5566 108.035 80.7806 108.152C81.0046 108.269 81.2633 108.328 81.5566 108.328C81.7646 108.328 81.9566 108.293 82.1326 108.224C82.314 108.155 82.5086 108.029 82.7166 107.848L83.1326 108.432C83.0046 108.56 82.8473 108.672 82.6606 108.768C82.4793 108.864 82.2846 108.941 82.0766 109C81.874 109.053 81.674 109.08 81.4766 109.08ZM84.2041 109V104.8H85.0281V105.664L84.8841 105.76C84.9375 105.573 85.0415 105.403 85.1961 105.248C85.3508 105.088 85.5348 104.96 85.7481 104.864C85.9615 104.763 86.1801 104.712 86.4041 104.712C86.7241 104.712 86.9908 104.776 87.2041 104.904C87.4175 105.027 87.5775 105.216 87.6841 105.472C87.7908 105.728 87.8441 106.051 87.8441 106.44V109H87.0201V106.496C87.0201 106.256 86.9881 106.059 86.9241 105.904C86.8601 105.744 86.7615 105.629 86.6281 105.56C86.4948 105.485 86.3295 105.453 86.1321 105.464C85.9721 105.464 85.8255 105.491 85.6921 105.544C85.5588 105.592 85.4415 105.661 85.3401 105.752C85.2441 105.843 85.1668 105.949 85.1081 106.072C85.0548 106.189 85.0281 106.317 85.0281 106.456V109H84.6201C84.5508 109 84.4815 109 84.4121 109C84.3428 109 84.2735 109 84.2041 109ZM89.2979 109.088C89.1219 109.088 88.9859 109.037 88.8899 108.936C88.7939 108.829 88.7459 108.68 88.7459 108.488C88.7459 108.312 88.7966 108.168 88.8979 108.056C88.9993 107.944 89.1326 107.888 89.2979 107.888C89.4739 107.888 89.6099 107.941 89.7059 108.048C89.8019 108.149 89.8499 108.296 89.8499 108.488C89.8499 108.664 89.7993 108.808 89.6979 108.92C89.5966 109.032 89.4633 109.088 89.2979 109.088ZM92.5343 109.08C92.1503 109.08 91.8063 108.987 91.5023 108.8C91.2036 108.608 90.9663 108.349 90.7903 108.024C90.6143 107.693 90.5263 107.317 90.5263 106.896C90.5263 106.475 90.6116 106.101 90.7823 105.776C90.9583 105.445 91.1956 105.187 91.4943 105C91.7929 104.808 92.1316 104.712 92.5103 104.712C92.7183 104.712 92.9183 104.747 93.1103 104.816C93.3076 104.88 93.4836 104.971 93.6383 105.088C93.7929 105.2 93.9129 105.325 93.9983 105.464C94.0889 105.597 94.1343 105.733 94.1343 105.872L93.8943 105.888V103.08H94.7183V109H93.8943V108H94.0543C94.0543 108.128 94.0116 108.256 93.9263 108.384C93.8409 108.507 93.7263 108.621 93.5823 108.728C93.4436 108.835 93.2809 108.92 93.0943 108.984C92.9129 109.048 92.7263 109.08 92.5343 109.08ZM92.6463 108.368C92.8969 108.368 93.1183 108.304 93.3103 108.176C93.5023 108.048 93.6516 107.875 93.7583 107.656C93.8703 107.432 93.9263 107.179 93.9263 106.896C93.9263 106.613 93.8703 106.363 93.7583 106.144C93.6516 105.92 93.5023 105.744 93.3103 105.616C93.1183 105.488 92.8969 105.424 92.6463 105.424C92.3956 105.424 92.1743 105.488 91.9823 105.616C91.7903 105.744 91.6383 105.92 91.5263 106.144C91.4196 106.363 91.3663 106.613 91.3663 106.896C91.3663 107.179 91.4196 107.432 91.5263 107.656C91.6383 107.875 91.7903 108.048 91.9823 108.176C92.1743 108.304 92.3956 108.368 92.6463 108.368ZM97.8126 109.08C97.3806 109.08 96.9966 108.989 96.6606 108.808C96.3299 108.621 96.0686 108.368 95.8766 108.048C95.6899 107.728 95.5966 107.36 95.5966 106.944C95.5966 106.613 95.6499 106.312 95.7566 106.04C95.8632 105.768 96.0099 105.533 96.1966 105.336C96.3886 105.133 96.6152 104.979 96.8766 104.872C97.1432 104.76 97.4312 104.704 97.7406 104.704C98.0126 104.704 98.2659 104.757 98.5006 104.864C98.7352 104.965 98.9379 105.107 99.1086 105.288C99.2846 105.469 99.4179 105.685 99.5086 105.936C99.6046 106.181 99.6499 106.451 99.6446 106.744L99.6366 107.096H96.2046L96.0206 106.44H98.9246L98.8046 106.576V106.384C98.7886 106.208 98.7299 106.051 98.6286 105.912C98.5272 105.773 98.3992 105.664 98.2446 105.584C98.0899 105.504 97.9219 105.464 97.7406 105.464C97.4526 105.464 97.2099 105.52 97.0126 105.632C96.8152 105.739 96.6659 105.899 96.5646 106.112C96.4632 106.32 96.4126 106.579 96.4126 106.888C96.4126 107.181 96.4739 107.437 96.5966 107.656C96.7192 107.869 96.8926 108.035 97.1166 108.152C97.3406 108.269 97.5992 108.328 97.8926 108.328C98.1006 108.328 98.2926 108.293 98.4686 108.224C98.6499 108.155 98.8446 108.029 99.0526 107.848L99.4686 108.432C99.3406 108.56 99.1832 108.672 98.9966 108.768C98.8152 108.864 98.6206 108.941 98.4126 109C98.2099 109.053 98.0099 109.08 97.8126 109.08ZM101.838 109L100.062 104.8H100.95L102.23 107.944L102.078 108.016L103.446 104.8H104.294L102.43 109H101.838Z" fill="#919191"/>
<path d="M126.693 109V104.8H127.517V105.664L127.373 105.76C127.426 105.573 127.53 105.403 127.685 105.248C127.839 105.088 128.023 104.96 128.237 104.864C128.45 104.763 128.669 104.712 128.893 104.712C129.213 104.712 129.479 104.776 129.693 104.904C129.906 105.027 130.066 105.216 130.173 105.472C130.279 105.728 130.333 106.051 130.333 106.44V109H129.509V106.496C129.509 106.256 129.477 106.059 129.413 105.904C129.349 105.744 129.25 105.629 129.117 105.56C128.983 105.485 128.818 105.453 128.621 105.464C128.461 105.464 128.314 105.491 128.181 105.544C128.047 105.592 127.93 105.661 127.829 105.752C127.733 105.843 127.655 105.949 127.597 106.072C127.543 106.189 127.517 106.317 127.517 106.456V109H127.109C127.039 109 126.97 109 126.901 109C126.831 109 126.762 109 126.693 109ZM133.33 110.84C133.032 110.84 132.733 110.792 132.434 110.696C132.141 110.605 131.904 110.485 131.722 110.336L132.026 109.696C132.133 109.776 132.258 109.845 132.402 109.904C132.546 109.968 132.698 110.016 132.858 110.048C133.018 110.085 133.176 110.104 133.33 110.104C133.624 110.104 133.869 110.056 134.066 109.96C134.264 109.864 134.413 109.723 134.514 109.536C134.616 109.349 134.666 109.117 134.666 108.84V108.032L134.754 108.088C134.728 108.253 134.64 108.413 134.49 108.568C134.346 108.717 134.165 108.84 133.946 108.936C133.728 109.032 133.504 109.08 133.274 109.08C132.874 109.08 132.517 108.987 132.202 108.8C131.893 108.608 131.648 108.349 131.466 108.024C131.285 107.693 131.194 107.317 131.194 106.896C131.194 106.475 131.282 106.101 131.458 105.776C131.64 105.445 131.885 105.187 132.194 105C132.509 104.808 132.861 104.712 133.25 104.712C133.41 104.712 133.565 104.733 133.714 104.776C133.864 104.813 134.002 104.869 134.13 104.944C134.258 105.013 134.373 105.091 134.474 105.176C134.576 105.261 134.658 105.352 134.722 105.448C134.786 105.544 134.826 105.635 134.842 105.72L134.666 105.784V104.8H135.49V108.744C135.49 109.08 135.44 109.376 135.338 109.632C135.242 109.893 135.101 110.112 134.914 110.288C134.728 110.469 134.501 110.605 134.234 110.696C133.968 110.792 133.666 110.84 133.33 110.84ZM133.362 108.32C133.624 108.32 133.856 108.259 134.058 108.136C134.261 108.013 134.418 107.845 134.53 107.632C134.642 107.419 134.698 107.173 134.698 106.896C134.698 106.619 134.64 106.373 134.522 106.16C134.41 105.941 134.253 105.771 134.05 105.648C133.853 105.525 133.624 105.464 133.362 105.464C133.106 105.464 132.877 105.528 132.674 105.656C132.477 105.779 132.32 105.949 132.202 106.168C132.09 106.381 132.034 106.624 132.034 106.896C132.034 107.168 132.09 107.413 132.202 107.632C132.32 107.845 132.477 108.013 132.674 108.136C132.877 108.259 133.106 108.32 133.362 108.32ZM138.055 109.08C137.757 109.08 137.495 109.011 137.271 108.872C137.053 108.733 136.882 108.539 136.759 108.288C136.642 108.037 136.583 107.739 136.583 107.392V104.8H137.407V107.168C137.407 107.413 137.445 107.627 137.519 107.808C137.599 107.984 137.711 108.12 137.855 108.216C138.005 108.312 138.183 108.36 138.391 108.36C138.546 108.36 138.687 108.336 138.815 108.288C138.943 108.235 139.053 108.163 139.143 108.072C139.239 107.981 139.314 107.872 139.367 107.744C139.421 107.616 139.447 107.477 139.447 107.328V104.8H140.271V109H139.447V108.12L139.591 108.024C139.527 108.221 139.418 108.4 139.263 108.56C139.114 108.72 138.935 108.848 138.727 108.944C138.519 109.035 138.295 109.08 138.055 109.08ZM142.131 110.84L142.979 108.88L142.987 109.536L140.891 104.8H141.851L143.163 107.888C143.19 107.941 143.222 108.024 143.259 108.136C143.296 108.243 143.328 108.349 143.355 108.456L143.147 108.504C143.19 108.392 143.23 108.28 143.267 108.168C143.31 108.056 143.35 107.944 143.387 107.832L144.483 104.8H145.459L143.731 109L143.019 110.84H142.131ZM146.075 109V104.8H146.907V106.12L146.827 105.8C146.886 105.597 146.985 105.413 147.123 105.248C147.267 105.083 147.43 104.952 147.611 104.856C147.798 104.76 147.99 104.712 148.187 104.712C148.278 104.712 148.363 104.72 148.443 104.736C148.529 104.752 148.595 104.771 148.643 104.792L148.427 105.688C148.363 105.661 148.291 105.64 148.211 105.624C148.137 105.603 148.062 105.592 147.987 105.592C147.843 105.592 147.705 105.621 147.571 105.68C147.443 105.733 147.329 105.811 147.227 105.912C147.131 106.008 147.054 106.123 146.995 106.256C146.937 106.384 146.907 106.525 146.907 106.68V109H146.075ZM149.438 109V104.8H150.262V109H149.438ZM149.838 103.872C149.662 103.872 149.526 103.827 149.43 103.736C149.334 103.645 149.286 103.517 149.286 103.352C149.286 103.197 149.334 103.072 149.43 102.976C149.531 102.88 149.667 102.832 149.838 102.832C150.014 102.832 150.15 102.877 150.246 102.968C150.342 103.059 150.39 103.187 150.39 103.352C150.39 103.507 150.339 103.632 150.238 103.728C150.142 103.824 150.009 103.872 149.838 103.872ZM153.313 109.08C152.923 109.08 152.574 108.984 152.265 108.792C151.961 108.6 151.718 108.339 151.537 108.008C151.361 107.677 151.273 107.307 151.273 106.896C151.273 106.485 151.361 106.115 151.537 105.784C151.718 105.453 151.961 105.192 152.265 105C152.574 104.808 152.923 104.712 153.313 104.712C153.686 104.712 154.025 104.789 154.329 104.944C154.638 105.093 154.873 105.299 155.033 105.56L154.577 106.12C154.491 105.997 154.382 105.885 154.249 105.784C154.115 105.683 153.974 105.603 153.825 105.544C153.675 105.485 153.531 105.456 153.393 105.456C153.137 105.456 152.907 105.52 152.705 105.648C152.507 105.771 152.35 105.941 152.233 106.16C152.115 106.379 152.057 106.624 152.057 106.896C152.057 107.168 152.118 107.413 152.241 107.632C152.363 107.845 152.526 108.016 152.729 108.144C152.931 108.272 153.155 108.336 153.401 108.336C153.545 108.336 153.683 108.312 153.817 108.264C153.955 108.216 154.089 108.144 154.217 108.048C154.345 107.952 154.465 107.835 154.577 107.696L155.033 108.256C154.862 108.496 154.617 108.693 154.297 108.848C153.982 109.003 153.654 109.08 153.313 109.08ZM156.562 107.688L156.522 106.792L158.53 104.8H159.642L156.562 107.688ZM155.81 109V103.08H156.634V109H155.81ZM158.642 109L157.058 107.152L157.642 106.616L159.698 109H158.642ZM161.061 110.84L161.909 108.88L161.917 109.536L159.821 104.8H160.781L162.093 107.888C162.119 107.941 162.151 108.024 162.189 108.136C162.226 108.243 162.258 108.349 162.285 108.456L162.077 108.504C162.119 108.392 162.159 108.28 162.197 108.168C162.239 108.056 162.279 107.944 162.317 107.832L163.413 104.8H164.389L162.661 109L161.949 110.84H161.061Z" fill="#919191"/>
<path d="M5.68536 103C3.75543 103 2.18536 104.57 2.18536 106.5C2.18536 108.43 3.75543 110 5.68536 110C7.6153 110 9.18536 108.43 9.18536 106.5C9.18536 104.57 7.6153 103 5.68536 103ZM7.18762 107.206C7.20698 106.973 7.21761 106.737 7.21761 106.5C7.21761 106.263 7.20698 106.027 7.18762 105.794C8.04966 105.982 8.50794 106.304 8.50794 106.5C8.50794 106.696 8.04966 107.018 7.18762 107.206ZM5.68536 109.323C5.48893 109.323 5.16702 108.864 4.97933 108.002C5.21222 108.022 5.44878 108.032 5.68536 108.032C5.92195 108.032 6.15851 108.022 6.3914 108.002C6.20371 108.864 5.8818 109.323 5.68536 109.323ZM5.68536 107.355C5.39176 107.355 5.12209 107.339 4.87208 107.313C4.84638 107.063 4.83054 106.794 4.83054 106.5C4.83054 106.206 4.84638 105.937 4.87208 105.687C5.12209 105.661 5.39176 105.645 5.68536 105.645C5.97896 105.645 6.24864 105.661 6.49865 105.687C6.52435 105.937 6.54019 106.206 6.54019 106.5C6.54019 106.794 6.52435 107.063 6.49865 107.313C6.24864 107.339 5.97896 107.355 5.68536 107.355ZM2.86278 106.5C2.86278 106.304 3.32107 105.982 4.18311 105.794C4.16375 106.027 4.15312 106.263 4.15312 106.5C4.15312 106.737 4.16375 106.973 4.18311 107.206C3.32107 107.018 2.86278 106.696 2.86278 106.5ZM5.68536 103.677C5.8818 103.677 6.20371 104.136 6.3914 104.998C6.15851 104.978 5.92195 104.968 5.68536 104.968C5.44878 104.968 5.21222 104.978 4.97933 104.998C5.16702 104.136 5.48893 103.677 5.68536 103.677ZM8.30336 105.45C7.96431 105.29 7.54846 105.17 7.09603 105.089C7.01535 104.637 6.89535 104.221 6.73508 103.882C7.44782 104.169 8.01651 104.738 8.30336 105.45ZM4.63565 103.882C4.47538 104.221 4.35538 104.637 4.27469 105.089C3.82228 105.17 3.40643 105.29 3.06738 105.45C3.35423 104.738 3.92292 104.169 4.63565 103.882ZM3.06739 107.55C3.40645 107.71 3.82228 107.83 4.27469 107.911C4.35538 108.363 4.47535 108.779 4.63563 109.118C3.92292 108.831 3.35424 108.262 3.06739 107.55ZM6.73509 109.118C6.89538 108.779 7.01535 108.363 7.09603 107.911C7.54845 107.83 7.96429 107.71 8.30335 107.55C8.0165 108.262 7.44784 108.831 6.73509 109.118Z" fill="#919191"/>
<path d="M115.592 103C114.761 103 113.957 103.303 113.324 103.855C112.691 104.408 112.27 105.173 112.137 106.014C112.004 106.855 112.167 107.717 112.597 108.446C113.027 109.175 113.696 109.724 114.485 109.993C114.66 110.025 114.725 109.917 114.725 109.823C114.725 109.737 114.721 109.455 114.721 109.154C113.842 109.32 113.614 108.935 113.544 108.733C113.467 108.536 113.343 108.362 113.185 108.226C113.063 108.159 112.888 107.993 113.181 107.988C113.293 108.001 113.4 108.04 113.494 108.104C113.588 108.168 113.665 108.255 113.719 108.356C113.767 108.444 113.831 108.522 113.909 108.584C113.986 108.647 114.074 108.693 114.169 108.721C114.264 108.748 114.363 108.756 114.46 108.745C114.558 108.733 114.653 108.701 114.739 108.652C114.754 108.469 114.833 108.299 114.962 108.172C114.183 108.082 113.369 107.773 113.369 106.4C113.364 106.043 113.493 105.698 113.728 105.436C113.621 105.126 113.634 104.786 113.763 104.485C113.763 104.485 114.056 104.391 114.725 104.853C115.298 104.691 115.903 104.691 116.475 104.853C117.145 104.386 117.438 104.485 117.438 104.485C117.567 104.786 117.58 105.126 117.473 105.436C117.709 105.698 117.837 106.043 117.832 106.4C117.832 107.777 117.014 108.082 116.235 108.172C116.318 108.259 116.383 108.363 116.423 108.478C116.464 108.592 116.48 108.714 116.471 108.836C116.471 109.316 116.467 109.702 116.467 109.823C116.467 109.917 116.532 110.029 116.707 109.993C117.494 109.721 118.162 109.172 118.59 108.442C119.018 107.713 119.18 106.851 119.046 106.011C118.912 105.171 118.491 104.406 117.858 103.855C117.225 103.303 116.422 103 115.592 103Z" fill="#919191"/>
<path d="M125.404 106.828C125.404 107.005 125.389 107.185 125.357 107.367C125.329 107.549 125.277 107.715 125.201 107.863C125.128 108.009 125.029 108.129 124.904 108.223C124.779 108.316 124.62 108.363 124.428 108.363C124.357 108.363 124.287 108.35 124.217 108.324C124.149 108.296 124.088 108.257 124.033 108.207C123.978 108.155 123.934 108.094 123.9 108.023C123.867 107.953 123.85 107.876 123.85 107.793V107.754C123.826 107.84 123.792 107.921 123.748 107.996C123.706 108.069 123.656 108.133 123.596 108.188C123.536 108.242 123.469 108.285 123.396 108.316C123.324 108.348 123.245 108.363 123.162 108.363C123.003 108.363 122.869 108.326 122.76 108.25C122.653 108.174 122.567 108.074 122.502 107.949C122.437 107.824 122.39 107.682 122.361 107.523C122.333 107.365 122.318 107.202 122.318 107.035C122.318 106.842 122.339 106.659 122.381 106.484C122.425 106.307 122.489 106.152 122.572 106.02C122.658 105.884 122.762 105.777 122.885 105.699C123.007 105.618 123.148 105.578 123.307 105.578C123.353 105.578 123.402 105.586 123.451 105.602C123.501 105.617 123.547 105.642 123.592 105.676C123.636 105.707 123.675 105.747 123.709 105.797C123.745 105.846 123.773 105.904 123.791 105.969V105.652H124.42V107.586C124.42 107.669 124.433 107.729 124.459 107.766C124.488 107.802 124.524 107.82 124.568 107.82C124.626 107.82 124.674 107.794 124.713 107.742C124.755 107.69 124.788 107.62 124.814 107.531C124.84 107.44 124.859 107.335 124.869 107.215C124.882 107.092 124.889 106.964 124.889 106.828C124.889 106.555 124.863 106.294 124.811 106.047C124.758 105.799 124.675 105.582 124.561 105.395C124.449 105.207 124.3 105.059 124.115 104.949C123.933 104.837 123.712 104.781 123.451 104.781C123.188 104.781 122.964 104.839 122.779 104.953C122.597 105.065 122.449 105.219 122.334 105.414C122.222 105.609 122.14 105.84 122.088 106.105C122.038 106.368 122.014 106.652 122.014 106.957C122.014 107.257 122.038 107.538 122.088 107.801C122.14 108.064 122.222 108.293 122.334 108.488C122.449 108.684 122.597 108.839 122.779 108.953C122.964 109.065 123.188 109.121 123.451 109.121C123.665 109.121 123.855 109.083 124.021 109.008C124.191 108.932 124.346 108.831 124.486 108.703L124.717 109.086C124.383 109.422 123.962 109.59 123.451 109.59C123.212 109.59 122.997 109.557 122.807 109.492C122.619 109.424 122.452 109.331 122.307 109.211C122.163 109.091 122.04 108.949 121.936 108.785C121.834 108.621 121.751 108.441 121.686 108.246C121.62 108.051 121.574 107.844 121.545 107.625C121.514 107.406 121.498 107.184 121.498 106.957C121.498 106.725 121.514 106.5 121.545 106.281C121.576 106.06 121.624 105.852 121.689 105.656C121.755 105.461 121.838 105.281 121.939 105.117C122.044 104.953 122.169 104.812 122.314 104.695C122.46 104.576 122.627 104.483 122.814 104.418C123.002 104.35 123.214 104.316 123.451 104.316C123.686 104.316 123.896 104.35 124.084 104.418C124.274 104.483 124.441 104.574 124.584 104.691C124.73 104.809 124.853 104.947 124.955 105.105C125.059 105.264 125.144 105.438 125.209 105.625C125.277 105.81 125.326 106.005 125.357 106.211C125.389 106.414 125.404 106.62 125.404 106.828ZM123.791 106.391C123.744 106.292 123.687 106.221 123.619 106.18C123.554 106.138 123.489 106.117 123.424 106.117C123.346 106.117 123.278 106.141 123.221 106.188C123.163 106.234 123.115 106.299 123.076 106.383C123.04 106.464 123.012 106.56 122.994 106.672C122.978 106.784 122.971 106.904 122.971 107.031C122.971 107.172 122.978 107.29 122.994 107.387C123.012 107.48 123.037 107.556 123.068 107.613C123.102 107.671 123.143 107.711 123.189 107.734C123.236 107.758 123.29 107.77 123.35 107.77C123.415 107.77 123.475 107.747 123.529 107.703C123.584 107.656 123.631 107.596 123.67 107.523C123.709 107.451 123.739 107.37 123.76 107.281C123.781 107.19 123.791 107.099 123.791 107.008V106.391Z" fill="#919191"/>
<path d="M178.639 103.5H173.526C173.469 103.499 173.412 103.51 173.358 103.531C173.305 103.552 173.256 103.583 173.215 103.623C173.174 103.663 173.141 103.711 173.118 103.763C173.095 103.815 173.083 103.872 173.083 103.929V109.071C173.083 109.128 173.095 109.185 173.118 109.237C173.141 109.289 173.174 109.337 173.215 109.377C173.256 109.417 173.305 109.448 173.358 109.469C173.412 109.49 173.469 109.501 173.526 109.5H178.639C178.696 109.501 178.753 109.49 178.807 109.469C178.86 109.448 178.909 109.417 178.95 109.377C178.991 109.337 179.024 109.289 179.047 109.237C179.07 109.185 179.082 109.128 179.083 109.071V103.929C179.082 103.872 179.07 103.815 179.047 103.763C179.024 103.711 178.991 103.663 178.95 103.623C178.909 103.583 178.86 103.552 178.807 103.531C178.753 103.51 178.696 103.499 178.639 103.5ZM174.902 108.522H173.997V105.822H174.902V108.522ZM174.45 105.444C174.325 105.444 174.205 105.395 174.117 105.307C174.029 105.219 173.979 105.1 173.979 104.976C173.979 104.852 174.029 104.733 174.117 104.645C174.205 104.557 174.325 104.508 174.45 104.508C174.516 104.501 174.583 104.507 174.647 104.527C174.71 104.547 174.769 104.581 174.819 104.625C174.869 104.669 174.908 104.723 174.936 104.784C174.963 104.844 174.977 104.91 174.977 104.976C174.977 105.042 174.963 105.108 174.936 105.168C174.908 105.229 174.869 105.283 174.819 105.327C174.769 105.372 174.71 105.405 174.647 105.425C174.583 105.445 174.516 105.451 174.45 105.444ZM178.168 108.522H177.263V107.073C177.263 106.71 177.133 106.473 176.804 106.473C176.702 106.474 176.603 106.505 176.52 106.564C176.437 106.622 176.374 106.705 176.339 106.8C176.315 106.871 176.305 106.945 176.309 107.019V108.519H175.403C175.403 108.519 175.403 106.065 175.403 105.819H176.309V106.2C176.391 106.058 176.511 105.941 176.655 105.862C176.799 105.783 176.962 105.744 177.127 105.75C177.73 105.75 178.168 106.137 178.168 106.968V108.522Z" fill="#919191"/>
<path d="M186.7 109V104.8H187.532V106.12L187.452 105.8C187.511 105.597 187.61 105.413 187.748 105.248C187.892 105.083 188.055 104.952 188.236 104.856C188.423 104.76 188.615 104.712 188.812 104.712C188.903 104.712 188.988 104.72 189.068 104.736C189.154 104.752 189.22 104.771 189.268 104.792L189.052 105.688C188.988 105.661 188.916 105.64 188.836 105.624C188.762 105.603 188.687 105.592 188.612 105.592C188.468 105.592 188.33 105.621 188.196 105.68C188.068 105.733 187.954 105.811 187.852 105.912C187.756 106.008 187.679 106.123 187.62 106.256C187.562 106.384 187.532 106.525 187.532 106.68V109H186.7ZM190.063 109V104.8H190.887V109H190.063ZM190.463 103.872C190.287 103.872 190.151 103.827 190.055 103.736C189.959 103.645 189.911 103.517 189.911 103.352C189.911 103.197 189.959 103.072 190.055 102.976C190.156 102.88 190.292 102.832 190.463 102.832C190.639 102.832 190.775 102.877 190.871 102.968C190.967 103.059 191.015 103.187 191.015 103.352C191.015 103.507 190.964 103.632 190.863 103.728C190.767 103.824 190.634 103.872 190.463 103.872ZM193.938 109.08C193.548 109.08 193.199 108.984 192.89 108.792C192.586 108.6 192.343 108.339 192.162 108.008C191.986 107.677 191.898 107.307 191.898 106.896C191.898 106.485 191.986 106.115 192.162 105.784C192.343 105.453 192.586 105.192 192.89 105C193.199 104.808 193.548 104.712 193.938 104.712C194.311 104.712 194.65 104.789 194.954 104.944C195.263 105.093 195.498 105.299 195.658 105.56L195.202 106.12C195.116 105.997 195.007 105.885 194.874 105.784C194.74 105.683 194.599 105.603 194.45 105.544C194.3 105.485 194.156 105.456 194.018 105.456C193.762 105.456 193.532 105.52 193.33 105.648C193.132 105.771 192.975 105.941 192.858 106.16C192.74 106.379 192.682 106.624 192.682 106.896C192.682 107.168 192.743 107.413 192.866 107.632C192.988 107.845 193.151 108.016 193.354 108.144C193.556 108.272 193.78 108.336 194.026 108.336C194.17 108.336 194.308 108.312 194.442 108.264C194.58 108.216 194.714 108.144 194.842 108.048C194.97 107.952 195.09 107.835 195.202 107.696L195.658 108.256C195.487 108.496 195.242 108.693 194.922 108.848C194.607 109.003 194.279 109.08 193.938 109.08ZM197.187 107.688L197.147 106.792L199.155 104.8H200.267L197.187 107.688ZM196.435 109V103.08H197.259V109H196.435ZM199.267 109L197.683 107.152L198.267 106.616L200.323 109H199.267ZM201.686 110.84L202.534 108.88L202.542 109.536L200.446 104.8H201.406L202.718 107.888C202.744 107.941 202.776 108.024 202.814 108.136C202.851 108.243 202.883 108.349 202.91 108.456L202.702 108.504C202.744 108.392 202.784 108.28 202.822 108.168C202.864 108.056 202.904 107.944 202.942 107.832L204.038 104.8H205.014L203.286 109L202.574 110.84H201.686ZM205.63 109V104.8H206.454V105.664L206.31 105.76C206.363 105.573 206.467 105.403 206.622 105.248C206.777 105.088 206.961 104.96 207.174 104.864C207.387 104.763 207.606 104.712 207.83 104.712C208.15 104.712 208.417 104.776 208.63 104.904C208.843 105.027 209.003 105.216 209.11 105.472C209.217 105.728 209.27 106.051 209.27 106.44V109H208.446V106.496C208.446 106.256 208.414 106.059 208.35 105.904C208.286 105.744 208.187 105.629 208.054 105.56C207.921 105.485 207.755 105.453 207.558 105.464C207.398 105.464 207.251 105.491 207.118 105.544C206.985 105.592 206.867 105.661 206.766 105.752C206.67 105.843 206.593 105.949 206.534 106.072C206.481 106.189 206.454 106.317 206.454 106.456V109H206.046C205.977 109 205.907 109 205.838 109C205.769 109 205.699 109 205.63 109ZM212.268 110.84C211.969 110.84 211.671 110.792 211.372 110.696C211.079 110.605 210.841 110.485 210.66 110.336L210.964 109.696C211.071 109.776 211.196 109.845 211.34 109.904C211.484 109.968 211.636 110.016 211.796 110.048C211.956 110.085 212.113 110.104 212.268 110.104C212.561 110.104 212.807 110.056 213.004 109.96C213.201 109.864 213.351 109.723 213.452 109.536C213.553 109.349 213.604 109.117 213.604 108.84V108.032L213.692 108.088C213.665 108.253 213.577 108.413 213.428 108.568C213.284 108.717 213.103 108.84 212.884 108.936C212.665 109.032 212.441 109.08 212.212 109.08C211.812 109.08 211.455 108.987 211.14 108.8C210.831 108.608 210.585 108.349 210.404 108.024C210.223 107.693 210.132 107.317 210.132 106.896C210.132 106.475 210.22 106.101 210.396 105.776C210.577 105.445 210.823 105.187 211.132 105C211.447 104.808 211.799 104.712 212.188 104.712C212.348 104.712 212.503 104.733 212.652 104.776C212.801 104.813 212.94 104.869 213.068 104.944C213.196 105.013 213.311 105.091 213.412 105.176C213.513 105.261 213.596 105.352 213.66 105.448C213.724 105.544 213.764 105.635 213.78 105.72L213.604 105.784V104.8H214.428V108.744C214.428 109.08 214.377 109.376 214.276 109.632C214.18 109.893 214.039 110.112 213.852 110.288C213.665 110.469 213.439 110.605 213.172 110.696C212.905 110.792 212.604 110.84 212.268 110.84ZM212.3 108.32C212.561 108.32 212.793 108.259 212.996 108.136C213.199 108.013 213.356 107.845 213.468 107.632C213.58 107.419 213.636 107.173 213.636 106.896C213.636 106.619 213.577 106.373 213.46 106.16C213.348 105.941 213.191 105.771 212.988 105.648C212.791 105.525 212.561 105.464 212.3 105.464C212.044 105.464 211.815 105.528 211.612 105.656C211.415 105.779 211.257 105.949 211.14 106.168C211.028 106.381 210.972 106.624 210.972 106.896C210.972 107.168 211.028 107.413 211.14 107.632C211.257 107.845 211.415 108.013 211.612 108.136C211.815 108.259 212.044 108.32 212.3 108.32ZM216.993 109.08C216.694 109.08 216.433 109.011 216.209 108.872C215.99 108.733 215.819 108.539 215.697 108.288C215.579 108.037 215.521 107.739 215.521 107.392V104.8H216.345V107.168C216.345 107.413 216.382 107.627 216.457 107.808C216.537 107.984 216.649 108.12 216.793 108.216C216.942 108.312 217.121 108.36 217.329 108.36C217.483 108.36 217.625 108.336 217.753 108.288C217.881 108.235 217.99 108.163 218.081 108.072C218.177 107.981 218.251 107.872 218.305 107.744C218.358 107.616 218.385 107.477 218.385 107.328V104.8H219.209V109H218.385V108.12L218.529 108.024C218.465 108.221 218.355 108.4 218.201 108.56C218.051 108.72 217.873 108.848 217.665 108.944C217.457 109.035 217.233 109.08 216.993 109.08ZM221.068 110.84L221.916 108.88L221.924 109.536L219.828 104.8H220.788L222.1 107.888C222.127 107.941 222.159 108.024 222.196 108.136C222.234 108.243 222.266 108.349 222.292 108.456L222.084 108.504C222.127 108.392 222.167 108.28 222.204 108.168C222.247 108.056 222.287 107.944 222.324 107.832L223.42 104.8H224.396L222.668 109L221.956 110.84H221.068ZM226.895 109.08C226.463 109.08 226.079 108.989 225.743 108.808C225.412 108.621 225.151 108.368 224.959 108.048C224.772 107.728 224.679 107.36 224.679 106.944C224.679 106.613 224.732 106.312 224.839 106.04C224.945 105.768 225.092 105.533 225.279 105.336C225.471 105.133 225.697 104.979 225.959 104.872C226.225 104.76 226.513 104.704 226.823 104.704C227.095 104.704 227.348 104.757 227.583 104.864C227.817 104.965 228.02 105.107 228.191 105.288C228.367 105.469 228.5 105.685 228.591 105.936C228.687 106.181 228.732 106.451 228.727 106.744L228.719 107.096H225.287L225.103 106.44H228.007L227.887 106.576V106.384C227.871 106.208 227.812 106.051 227.711 105.912C227.609 105.773 227.481 105.664 227.327 105.584C227.172 105.504 227.004 105.464 226.823 105.464C226.535 105.464 226.292 105.52 226.095 105.632C225.897 105.739 225.748 105.899 225.647 106.112C225.545 106.32 225.495 106.579 225.495 106.888C225.495 107.181 225.556 107.437 225.679 107.656C225.801 107.869 225.975 108.035 226.199 108.152C226.423 108.269 226.681 108.328 226.975 108.328C227.183 108.328 227.375 108.293 227.551 108.224C227.732 108.155 227.927 108.029 228.135 107.848L228.551 108.432C228.423 108.56 228.265 108.672 228.079 108.768C227.897 108.864 227.703 108.941 227.495 109C227.292 109.053 227.092 109.08 226.895 109.08ZM229.622 109V104.8H230.446V105.664L230.302 105.76C230.356 105.573 230.46 105.403 230.614 105.248C230.769 105.088 230.953 104.96 231.166 104.864C231.38 104.763 231.598 104.712 231.822 104.712C232.142 104.712 232.409 104.776 232.622 104.904C232.836 105.027 232.996 105.216 233.102 105.472C233.209 105.728 233.262 106.051 233.262 106.44V109H232.438V106.496C232.438 106.256 232.406 106.059 232.342 105.904C232.278 105.744 232.18 105.629 232.046 105.56C231.913 105.485 231.748 105.453 231.55 105.464C231.39 105.464 231.244 105.491 231.11 105.544C230.977 105.592 230.86 105.661 230.758 105.752C230.662 105.843 230.585 105.949 230.526 106.072C230.473 106.189 230.446 106.317 230.446 106.456V109H230.038C229.969 109 229.9 109 229.83 109C229.761 109 229.692 109 229.622 109ZM236.132 109.08C235.748 109.08 235.404 108.987 235.1 108.8C234.801 108.608 234.564 108.349 234.388 108.024C234.212 107.693 234.124 107.317 234.124 106.896C234.124 106.475 234.209 106.101 234.38 105.776C234.556 105.445 234.793 105.187 235.092 105C235.391 104.808 235.729 104.712 236.108 104.712C236.316 104.712 236.516 104.747 236.708 104.816C236.905 104.88 237.081 104.971 237.236 105.088C237.391 105.2 237.511 105.325 237.596 105.464C237.687 105.597 237.732 105.733 237.732 105.872L237.492 105.888V103.08H238.316V109H237.492V108H237.652C237.652 108.128 237.609 108.256 237.524 108.384C237.439 108.507 237.324 108.621 237.18 108.728C237.041 108.835 236.879 108.92 236.692 108.984C236.511 109.048 236.324 109.08 236.132 109.08ZM236.244 108.368C236.495 108.368 236.716 108.304 236.908 108.176C237.1 108.048 237.249 107.875 237.356 107.656C237.468 107.432 237.524 107.179 237.524 106.896C237.524 106.613 237.468 106.363 237.356 106.144C237.249 105.92 237.1 105.744 236.908 105.616C236.716 105.488 236.495 105.424 236.244 105.424C235.993 105.424 235.772 105.488 235.58 105.616C235.388 105.744 235.236 105.92 235.124 106.144C235.017 106.363 234.964 106.613 234.964 106.896C234.964 107.179 235.017 107.432 235.124 107.656C235.236 107.875 235.388 108.048 235.58 108.176C235.772 108.304 235.993 108.368 236.244 108.368ZM241.41 109.08C240.978 109.08 240.594 108.989 240.258 108.808C239.928 108.621 239.666 108.368 239.474 108.048C239.288 107.728 239.194 107.36 239.194 106.944C239.194 106.613 239.248 106.312 239.354 106.04C239.461 105.768 239.608 105.533 239.794 105.336C239.986 105.133 240.213 104.979 240.474 104.872C240.741 104.76 241.029 104.704 241.338 104.704C241.61 104.704 241.864 104.757 242.098 104.864C242.333 104.965 242.536 105.107 242.706 105.288C242.882 105.469 243.016 105.685 243.106 105.936C243.202 106.181 243.248 106.451 243.242 106.744L243.234 107.096H239.802L239.618 106.44H242.522L242.402 106.576V106.384C242.386 106.208 242.328 106.051 242.226 105.912C242.125 105.773 241.997 105.664 241.842 105.584C241.688 105.504 241.52 105.464 241.338 105.464C241.05 105.464 240.808 105.52 240.61 105.632C240.413 105.739 240.264 105.899 240.162 106.112C240.061 106.32 240.01 106.579 240.01 106.888C240.01 107.181 240.072 107.437 240.194 107.656C240.317 107.869 240.49 108.035 240.714 108.152C240.938 108.269 241.197 108.328 241.49 108.328C241.698 108.328 241.89 108.293 242.066 108.224C242.248 108.155 242.442 108.029 242.65 107.848L243.066 108.432C242.938 108.56 242.781 108.672 242.594 108.768C242.413 108.864 242.218 108.941 242.01 109C241.808 109.053 241.608 109.08 241.41 109.08ZM245.436 109L243.66 104.8H244.548L245.828 107.944L245.676 108.016L247.044 104.8H247.892L246.028 109H245.436Z" fill="#919191"/>
<path d="M185.412 106.828C185.412 107.005 185.396 107.185 185.365 107.367C185.337 107.549 185.284 107.715 185.209 107.863C185.136 108.009 185.037 108.129 184.912 108.223C184.787 108.316 184.628 108.363 184.435 108.363C184.365 108.363 184.295 108.35 184.225 108.324C184.157 108.296 184.096 108.257 184.041 108.207C183.986 108.155 183.942 108.094 183.908 108.023C183.874 107.953 183.857 107.876 183.857 107.793V107.754C183.834 107.84 183.8 107.921 183.756 107.996C183.714 108.069 183.663 108.133 183.603 108.188C183.544 108.242 183.477 108.285 183.404 108.316C183.331 108.348 183.253 108.363 183.17 108.363C183.011 108.363 182.877 108.326 182.768 108.25C182.661 108.174 182.575 108.074 182.51 107.949C182.445 107.824 182.398 107.682 182.369 107.523C182.34 107.365 182.326 107.202 182.326 107.035C182.326 106.842 182.347 106.659 182.389 106.484C182.433 106.307 182.497 106.152 182.58 106.02C182.666 105.884 182.77 105.777 182.893 105.699C183.015 105.618 183.156 105.578 183.314 105.578C183.361 105.578 183.409 105.586 183.459 105.602C183.508 105.617 183.555 105.642 183.6 105.676C183.644 105.707 183.683 105.747 183.717 105.797C183.753 105.846 183.781 105.904 183.799 105.969V105.652H184.428V107.586C184.428 107.669 184.441 107.729 184.467 107.766C184.495 107.802 184.532 107.82 184.576 107.82C184.633 107.82 184.682 107.794 184.721 107.742C184.762 107.69 184.796 107.62 184.822 107.531C184.848 107.44 184.866 107.335 184.877 107.215C184.89 107.092 184.896 106.964 184.896 106.828C184.896 106.555 184.87 106.294 184.818 106.047C184.766 105.799 184.683 105.582 184.568 105.395C184.456 105.207 184.308 105.059 184.123 104.949C183.941 104.837 183.719 104.781 183.459 104.781C183.196 104.781 182.972 104.839 182.787 104.953C182.605 105.065 182.456 105.219 182.342 105.414C182.23 105.609 182.148 105.84 182.096 106.105C182.046 106.368 182.021 106.652 182.021 106.957C182.021 107.257 182.046 107.538 182.096 107.801C182.148 108.064 182.23 108.293 182.342 108.488C182.456 108.684 182.605 108.839 182.787 108.953C182.972 109.065 183.196 109.121 183.459 109.121C183.672 109.121 183.863 109.083 184.029 109.008C184.199 108.932 184.353 108.831 184.494 108.703L184.725 109.086C184.391 109.422 183.969 109.59 183.459 109.59C183.219 109.59 183.004 109.557 182.814 109.492C182.627 109.424 182.46 109.331 182.314 109.211C182.171 109.091 182.047 108.949 181.943 108.785C181.842 108.621 181.758 108.441 181.693 108.246C181.628 108.051 181.581 107.844 181.553 107.625C181.521 107.406 181.506 107.184 181.506 106.957C181.506 106.725 181.521 106.5 181.553 106.281C181.584 106.06 181.632 105.852 181.697 105.656C181.762 105.461 181.846 105.281 181.947 105.117C182.051 104.953 182.176 104.812 182.322 104.695C182.468 104.576 182.635 104.483 182.822 104.418C183.01 104.35 183.222 104.316 183.459 104.316C183.693 104.316 183.904 104.35 184.092 104.418C184.282 104.483 184.449 104.574 184.592 104.691C184.738 104.809 184.861 104.947 184.963 105.105C185.067 105.264 185.152 105.438 185.217 105.625C185.284 105.81 185.334 106.005 185.365 106.211C185.396 106.414 185.412 106.62 185.412 106.828ZM183.799 106.391C183.752 106.292 183.695 106.221 183.627 106.18C183.562 106.138 183.497 106.117 183.432 106.117C183.353 106.117 183.286 106.141 183.228 106.188C183.171 106.234 183.123 106.299 183.084 106.383C183.047 106.464 183.02 106.56 183.002 106.672C182.986 106.784 182.978 106.904 182.978 107.031C182.978 107.172 182.986 107.29 183.002 107.387C183.02 107.48 183.045 107.556 183.076 107.613C183.11 107.671 183.15 107.711 183.197 107.734C183.244 107.758 183.297 107.77 183.357 107.77C183.422 107.77 183.482 107.747 183.537 107.703C183.592 107.656 183.639 107.596 183.678 107.523C183.717 107.451 183.747 107.37 183.768 107.281C183.788 107.19 183.799 107.099 183.799 107.008V106.391Z" fill="#919191"/>
</svg>
