<svg width="158" height="261" viewBox="0 0 158 261" fill="none" xmlns="http://www.w3.org/2000/svg">
<path d="M157.74 32.8509C157.74 25.2254 151.179 20.3894 147.899 18.9246L138.738 31.1798C145.072 34.9141 157.74 40.4764 157.74 32.8509Z" fill="#8BD3DD"/>
<path d="M122.25 84.3789C122.5 95.0871 115.807 99.9324 112.43 101.017L104.173 87.0684L108.927 83.8785C113.263 79.5836 121.999 73.6707 122.25 84.3789Z" fill="#8BD3DD"/>
<path d="M46.8796 37.6007C37.4354 42.7384 34.8225 47.2967 34.6966 48.9337L53.3961 46.9032C55.159 41.6617 56.3238 32.463 46.8796 37.6007Z" fill="#8BD3DD"/>
<path d="M122.37 175.334C122.37 168.087 115.788 161.932 112.497 159.761L99.7734 167.649L103.998 175.334C110.122 178.354 122.37 182.581 122.37 175.334Z" fill="#8BD3DD"/>
<circle cx="42.7958" cy="251.639" r="9.26879" fill="#8BD3DD"/>
<circle cx="113.208" cy="250.522" r="9.26879" fill="#8BD3DD"/>
<circle cx="78.6009" cy="149.845" r="9.26879" fill="#8BD3DD"/>
<path d="M38.7509 1.927L0.11261 26.7297L10.4049 40.734L49.0432 16.7749L38.7509 1.927Z" fill="#8BD3DD"/>
<rect x="0.117645" y="25.7534" width="18.5355" height="206.644" rx="1" fill="#8BD3DD"/>
<rect x="34.7269" y="47.0465" width="18.5355" height="44.1162" rx="1" fill="#8BD3DD"/>
<rect x="34.7249" y="129.842" width="18.5355" height="76.8114" fill="#8BD3DD"/>
<rect x="108.701" y="40.9221" width="18.5355" height="74.7203" transform="rotate(60 108.701 40.9221)" fill="#8BD3DD"/>
<rect x="108.884" y="1.99353" width="18.5355" height="77.8571" transform="rotate(60 108.884 1.99353)" fill="#8BD3DD"/>
<rect x="149.241" y="19.7103" width="18.5355" height="37.1265" transform="rotate(120 149.241 19.7103)" fill="#8BD3DD"/>
<rect x="106.426" y="83.1455" width="18.5355" height="37.4" transform="rotate(60 106.426 83.1455)" fill="#8BD3DD"/>
<rect x="142.011" y="103.026" width="18.5355" height="37.4" transform="rotate(60 142.011 103.026)" fill="#8BD3DD"/>
<rect x="151.279" y="141.062" width="18.5355" height="37.4" transform="rotate(120 151.279 141.062)" fill="#8BD3DD"/>
<rect x="103.728" y="49.1447" width="18.5355" height="36.3733" fill="#8BD3DD"/>
<rect x="139.157" y="32.1084" width="18.5355" height="78.7377" fill="#8BD3DD"/>
<rect x="103.939" y="175.273" width="18.4309" height="76.6306" fill="#8BD3DD"/>
<circle cx="148.5" cy="230.744" r="9.26879" fill="#8BD3DD"/>
<rect x="139.231" y="155.495" width="18.4309" height="76.6306" fill="#8BD3DD"/>
<rect x="113.017" y="159.987" width="17.8269" height="34.2835" transform="rotate(120.966 113.017 159.987)" fill="#8BD3DD"/>
<path d="M14.7918 238.481C6.288 242.935 1.46242 236.625 0.11261 232.913V227.176L34.8702 205.411C41.0568 201.755 53.3963 196.637 53.2613 205.411C53.1264 214.184 50.618 217.165 49.3806 217.559C41.3943 222.677 23.2956 234.027 14.7918 238.481Z" fill="#8BD3DD"/>
<rect x="69.3322" y="148.109" width="18.5355" height="77.4718" fill="#8BD3DD"/>
<rect x="47.4623" y="259.791" width="18.5355" height="35.8904" transform="rotate(-120 47.4623 259.791)" fill="#8BD3DD"/>
<circle cx="43.9937" cy="129.842" r="9.26879" fill="#8BD3DD"/>
<circle cx="43.9916" cy="89.3004" r="9.26879" fill="#8BD3DD"/>
<circle cx="112.997" cy="49.1448" r="9.26879" fill="#8BD3DD"/>
<circle cx="113.718" cy="9.85229" r="9.26879" fill="#8BD3DD"/>
<circle cx="113.442" cy="130.122" r="9.26879" fill="#8BD3DD"/>
<circle cx="78.8163" cy="109.79" r="9.26879" fill="#8BD3DD"/>
<circle cx="43.9937" cy="9.37145" r="9.26879" fill="#8BD3DD"/>
<path d="M78.4748 241.928C85.0993 238.137 87.487 229.308 87.8529 225.367H69.3461C69.6287 232.467 71.8502 245.719 78.4748 241.928Z" fill="#8BD3DD"/>
<path d="M60.1207 90.1197L48.3972 97.4058L51.6842 85.5179L60.1207 90.1197Z" fill="#8BD3DD"/>
<path d="M157.696 110.036C157.696 115.269 152.39 118.814 149.737 119.933L143.196 108.791C148.029 107.026 157.696 104.804 157.696 110.036Z" fill="#8BD3DD"/>
<path d="M157.661 157.064C157.827 146.738 153.001 141.826 150.567 140.661L141.466 155.611C146.795 160.398 157.495 167.39 157.661 157.064Z" fill="#8BD3DD"/>
</svg>
