<svg width="8" height="14" viewBox="0 0 8 14" fill="none" xmlns="http://www.w3.org/2000/svg">
<path d="M7.99755 1.66159C7.99755 1.27467 7.66465 1.02928 7.4982 0.954956L7.03339 1.5768C7.35477 1.76628 7.99755 2.04851 7.99755 1.66159Z" fill="#0A0F15"/>
<path d="M6.19675 4.27581C6.20944 4.81915 5.86985 5.065 5.69847 5.12001L5.27954 4.41228L5.52074 4.25042C5.74079 4.03249 6.18405 3.73246 6.19675 4.27581Z" fill="#0A0F15"/>
<path d="M2.37276 1.90242C1.89355 2.16311 1.76097 2.3944 1.75458 2.47746L2.70341 2.37444C2.79286 2.10848 2.85196 1.64173 2.37276 1.90242Z" fill="#0A0F15"/>
<path d="M6.20304 8.89067C6.20304 8.52294 5.86905 8.21064 5.70206 8.10046L5.05646 8.50073L5.2708 8.89067C5.58154 9.0439 6.20304 9.25841 6.20304 8.89067Z" fill="#0A0F15"/>
<circle cx="2.16562" cy="12.7621" r="0.470306" fill="#0A0F15"/>
<circle cx="5.73807" cy="12.7055" r="0.470306" fill="#0A0F15"/>
<circle cx="3.98227" cy="7.59738" r="0.470306" fill="#0A0F15"/>
<path d="M1.96054 0.0925903L0 1.3511L0.52224 2.06169L2.48278 0.845984L1.96054 0.0925903Z" fill="#0A0F15"/>
<rect x="0.000244141" y="1.30151" width="0.940371" height="10.4838" rx="0.470185" fill="#0A0F15"/>
<rect x="1.7561" y="2.38159" width="0.940507" height="2.23849" rx="0.470254" fill="#0A0F15"/>
<rect x="1.7561" y="6.58252" width="0.940507" height="3.89748" fill="#0A0F15"/>
<rect x="5.50928" y="2.07098" width="0.940507" height="3.79137" transform="rotate(60 5.50928 2.07098)" fill="#0A0F15"/>
<rect x="5.51855" y="0.0959473" width="0.940507" height="3.95053" transform="rotate(60 5.51855 0.0959473)" fill="#0A0F15"/>
<rect x="7.56628" y="0.994812" width="0.940507" height="1.88383" transform="rotate(120 7.56628 0.994812)" fill="#0A0F15"/>
<rect x="5.3938" y="4.2132" width="0.940507" height="1.89771" transform="rotate(60 5.3938 4.2132)" fill="#0A0F15"/>
<rect x="7.1994" y="5.22192" width="0.940507" height="1.89771" transform="rotate(60 7.1994 5.22192)" fill="#0A0F15"/>
<rect x="7.66962" y="7.15173" width="0.940507" height="1.89771" transform="rotate(120 7.66962 7.15173)" fill="#0A0F15"/>
<rect x="5.25696" y="2.48816" width="0.940507" height="1.84561" fill="#0A0F15"/>
<rect x="7.05463" y="1.62384" width="0.940507" height="3.99522" fill="#0A0F15"/>
<rect x="5.26776" y="8.88751" width="0.935197" height="3.8883" fill="#0A0F15"/>
<circle cx="7.52866" cy="11.702" r="0.470306" fill="#0A0F15"/>
<rect x="7.05835" y="7.88403" width="0.935197" height="3.8883" fill="#0A0F15"/>
<rect x="5.72833" y="8.11194" width="0.904552" height="1.73957" transform="rotate(120.966 5.72833 8.11194)" fill="#0A0F15"/>
<path d="M0.744834 12.0946C0.313344 12.3206 0.0684906 12.0004 0 11.8121V11.521L1.76363 10.4166C2.07754 10.2311 2.70366 9.9714 2.69681 10.4166C2.68996 10.8618 2.56268 11.013 2.4999 11.033C2.09467 11.2927 1.17632 11.8686 0.744834 12.0946Z" fill="#0A0F15"/>
<rect x="3.51196" y="7.50934" width="0.940507" height="3.93098" fill="#0A0F15"/>
<rect x="2.40234" y="13.1757" width="0.940507" height="1.82111" transform="rotate(-120 2.40234 13.1757)" fill="#0A0F15"/>
<circle cx="2.22635" cy="6.58237" r="0.470306" fill="#0A0F15"/>
<circle cx="2.22629" cy="4.5256" r="0.470306" fill="#0A0F15"/>
<circle cx="5.72726" cy="2.48825" r="0.470306" fill="#0A0F15"/>
<circle cx="5.76382" cy="0.49472" r="0.470306" fill="#0A0F15"/>
<circle cx="5.74985" cy="6.59659" r="0.470306" fill="#0A0F15"/>
<circle cx="3.99307" cy="5.56509" r="0.470306" fill="#0A0F15"/>
<circle cx="2.22629" cy="0.470306" r="0.470306" fill="#0A0F15"/>
<path d="M3.97583 12.2694C4.31197 12.0771 4.43312 11.629 4.45168 11.4291H3.51263C3.52698 11.7893 3.6397 12.4618 3.97583 12.2694Z" fill="#0A0F15"/>
<path d="M3.04463 4.56717L2.44977 4.93688L2.61655 4.33368L3.04463 4.56717Z" fill="#0A0F15"/>
<path d="M7.99525 5.57767C7.99525 5.84315 7.72602 6.02307 7.5914 6.07984L7.25955 5.51446C7.50478 5.42491 7.99525 5.31218 7.99525 5.57767Z" fill="#0A0F15"/>
<path d="M7.9935 7.96388C8.00192 7.43993 7.75704 7.19072 7.63354 7.1316L7.17175 7.89014C7.44216 8.13303 7.98507 8.48783 7.9935 7.96388Z" fill="#0A0F15"/>
</svg>
